<?xml version="1.0" encoding="UTF-8" standalone="no"?>
<svg
   width="200"
   height="200"
   viewBox="0 0 200 200"
   version="1.1"
   id="svg22"
   sodipodi:docname="mars-head-common-voice.svg"
   inkscape:version="1.4.2 (ebf0e940d0, 2025-05-08)"
   xmlns:inkscape="http://www.inkscape.org/namespaces/inkscape"
   xmlns:sodipodi="http://sodipodi.sourceforge.net/DTD/sodipodi-0.dtd"
   xmlns:xlink="http://www.w3.org/1999/xlink"
   xmlns="http://www.w3.org/2000/svg"
   xmlns:svg="http://www.w3.org/2000/svg"
   xmlns:rdf="http://www.w3.org/1999/02/22-rdf-syntax-ns#"
   xmlns:cc="http://creativecommons.org/ns#"
   xmlns:dc="http://purl.org/dc/elements/1.1/">
  <sodipodi:namedview
     id="namedview22"
     pagecolor="#505050"
     bordercolor="#ffffff"
     borderopacity="1"
     inkscape:showpageshadow="0"
     inkscape:pageopacity="0"
     inkscape:pagecheckerboard="1"
     inkscape:deskcolor="#505050"
     showgrid="false"
     inkscape:zoom="1.8743455"
     inkscape:cx="101.36872"
     inkscape:cy="129.11173"
     inkscape:window-width="1504"
     inkscape:window-height="969"
     inkscape:window-x="0"
     inkscape:window-y="0"
     inkscape:window-maximized="0"
     inkscape:current-layer="robo/1.eq-n" />
  <!-- Generator: Sketch 51.2 (57519) - http://www.bohemiancoding.com/sketch -->
  <title
     id="title1">Mars</title>
  <desc
     id="desc1">Created with Sketch.</desc>
  <defs
     id="defs10">
    <path
       d="m 14.0208,63.5776 -0.1424,-0.08 C 12.693286,65.878759 10.302376,67.422602 7.6444906,67.522919 4.9866056,67.623236 2.4861247,66.264009 1.1248928,63.978957 -0.23633922,61.693905 -0.24097719,58.847877 1.1128,56.5584 L 1.0384,56.5184 26.2896,0.2536 42.0872,5.3608 Z m 192.3624,0 0.1416,-0.08 c 1.18374,2.384044 3.57565,3.930639 6.23547,4.031828 2.65983,0.10119 5.16232,-1.259204 6.52378,-3.546419 1.36145,-2.287215 1.3642,-5.135576 0.007,-7.425409 l 0.0744,-0.04 L 194.1144,0.2464 178.32,5.3528 Z"
       id="path-1" />
    <linearGradient
       x1="0.39511356"
       y1="0.99197543"
       x2="0.41409209"
       y2="-0.19250116"
       id="linearGradient-3">
      <stop
         stop-color="#FF656E"
         offset="0%"
         id="stop1" />
      <stop
         stop-color="#C5C9FF"
         offset="100%"
         id="stop2" />
    </linearGradient>
    <radialGradient
       cx="123.45392"
       cy="83.421265"
       fx="123.45392"
       fy="83.421265"
       r="245.5368"
       gradientTransform="scale(0.72771562,1.3741632)"
       id="radialGradient-4"
       gradientUnits="userSpaceOnUse">
      <stop
         stop-color="#FFFFFF"
         offset="0%"
         id="stop3" />
      <stop
         stop-color="#FAFCFF"
         offset="76.5986272%"
         id="stop4" />
      <stop
         stop-color="#F2F2F2"
         offset="100%"
         id="stop5" />
    </radialGradient>
    <path
       d="m 167.128,73.744 c 0,7.949707 -1.27101,14.54 -3.36156,20.003336 C 157.3918,110.40644 143.397,116.58714 134.5816,118.88 c -5.86345,1.43777 -18.50803,5.644 -47.1568,5.644 -28.648769,0 -42.550136,-4.49669 -47.347089,-5.644 C 31.735297,116.94021 18.716818,111.62088 12.120326,96.294512 11.146591,94.032125 10.312791,91.551685 9.6546214,88.831875 8.5948192,84.452363 7.9904,79.452205 7.9904,73.7424 V 46.5656 c 0,-4.453998 0.3811674,-8.481268 1.0704268,-12.122693 0.5684884,-3.00338 1.3465612,-5.744285 2.2932172,-8.245651 C 21.233293,0.09313821 49.4728,0.0768 49.4728,0.0768 h 76.172 c 0,0 24.44525,0.01414274 35.80515,21.039495 3.43844,6.364024 5.67805,14.653036 5.67805,25.449305 z m -10.34,138.472 c 0,0 0.1744,-3.1144 3.62,-42.6616 3.4736,-39.876 -30.484,-37.3792 -30.484,-37.3792 l -43.5504,-0.9944 -39.4848,0.9944 c 0,0 -33.044,-3.3728 -30.48,37.3792 2.4896,39.62 2.8952,42.6616 2.8952,42.6616 0,0 1.0728,11.5664 1.1024,15.2176 0.0976,11.9776 3.5896,52.9408 22.34,64.2712 24,14.5016 66.7928,14.8504 90.2408,0 18.5112,-11.7248 22.24,-52.2936 22.34,-64.2712 0.0264,-3.6512 1.4608,-15.2176 1.4608,-15.2176 z"
       id="path-5" />
    <radialGradient
       cx="96.305511"
       cy="118.64331"
       fx="96.305511"
       fy="118.64331"
       r="84.68576"
       gradientTransform="scale(1.1638715,0.85920137)"
       id="radialGradient-7"
       gradientUnits="userSpaceOnUse">
      <stop
         stop-color="#FFFFFF"
         offset="0%"
         id="stop6" />
      <stop
         stop-color="#FAFCFF"
         offset="76.5986272%"
         id="stop7" />
      <stop
         stop-color="#E0E0E0"
         offset="100%"
         id="stop8" />
    </radialGradient>
    <path
       d="M 0.11280379,0.4 H 49.8192 c 0,0 0.08178,16.3104 -25.017124,16.3104 C 0.9935813,16.7104 0.11280379,0.4 0.11280379,0.4 Z"
       id="path-8" />
    <filter
       x="0"
       y="-0.18393172"
       width="1"
       height="1.1839317"
       filterUnits="objectBoundingBox"
       id="filter-10">
      <feOffset
         dx="0"
         dy="-3"
         in="SourceAlpha"
         result="shadowOffsetInner1"
         id="feOffset8" />
      <feComposite
         in="shadowOffsetInner1"
         in2="SourceAlpha"
         operator="arithmetic"
         k2="-1"
         k3="1"
         result="shadowInnerInner1"
         id="feComposite8"
         k1="0"
         k4="0" />
      <feColorMatrix
         values="0 0 0 0 0.290196078   0 0 0 0 0.290196078   0 0 0 0 0.290196078  0 0 0 1 0"
         type="matrix"
         in="shadowInnerInner1"
         id="feColorMatrix8" />
    </filter>
    <path
       d="m 72.5952,40.24 c 1.516,-12.304 1.84,-24.0976 0.128,-35.2296 C 72.482231,3.0204045 70.796522,1.5216534 68.792,1.5152 47.670057,-0.0584664 26.467914,-0.25167717 5.3208,0.9368 3.3138206,0.9390238 1.62598,2.4426113 1.3928,4.436 -0.3632,14.9048 -0.48,30.04 1.548,40.2704 c 0.2974829,1.805721 1.7543998,3.1964 3.572,3.4096 21.247369,2.143093 42.656917,2.133711 63.9024,-0.028 1.872222,-0.09408 3.392663,-1.546091 3.5728,-3.412 z"
       id="path-11" />
    <linearGradient
       x1="0.25796247"
       y1="1"
       x2="0.25796247"
       y2="-0.30127427"
       id="linearGradient-13">
      <stop
         stop-color="#FF656E"
         offset="0%"
         id="stop9" />
      <stop
         stop-color="#C5C9FF"
         offset="100%"
         id="stop10" />
    </linearGradient>
    <circle
       id="path-14"
       cx="11.1752"
       cy="11.4872"
       r="10.7752" />
    <circle
       id="path-15"
       cx="11.1752"
       cy="11.4872"
       r="10.7752" />
    <filter
       x="0"
       y="0"
       width="1"
       height="1"
       filterUnits="objectBoundingBox"
       id="filter-16">
      <feGaussianBlur
         stdDeviation="0"
         in="SourceGraphic"
         id="feGaussianBlur10" />
    </filter>
    <linearGradient
       inkscape:collect="always"
       xlink:href="#linearGradient-3"
       id="linearGradient23"
       x1="42.943684"
       y1="149.71765"
       x2="45.040733"
       y2="18.837803"
       gradientTransform="scale(1.6016589,0.62435266)"
       gradientUnits="userSpaceOnUse" />
    <radialGradient
       cx="123.45392"
       cy="83.421265"
       fx="123.45392"
       fy="83.421265"
       r="245.5368"
       gradientTransform="scale(0.72771562,1.3741632)"
       id="radialGradient-4-7"
       gradientUnits="userSpaceOnUse">
      <stop
         stop-color="#FFFFFF"
         offset="0%"
         id="stop3-5" />
      <stop
         stop-color="#FAFCFF"
         offset="76.5986272%"
         id="stop4-3" />
      <stop
         stop-color="#F2F2F2"
         offset="100%"
         id="stop5-5" />
    </radialGradient>
    <radialGradient
       cx="123.45392"
       cy="83.421265"
       fx="123.45392"
       fy="83.421265"
       r="245.5368"
       gradientTransform="scale(0.72771562,1.3741632)"
       id="radialGradient8"
       gradientUnits="userSpaceOnUse">
      <stop
         stop-color="#FFFFFF"
         offset="0%"
         id="stop6-6" />
      <stop
         stop-color="#FAFCFF"
         offset="76.5986272%"
         id="stop7-2" />
      <stop
         stop-color="#F2F2F2"
         offset="100%"
         id="stop8-9" />
    </radialGradient>
  </defs>
  <g
     id="Homepage"
     stroke="none"
     stroke-width="1"
     fill="none"
     fill-rule="evenodd">
    <g
       id="Homepage_01.1"
       transform="translate(-343,-1372)">
      <g
         id="g22"
         transform="translate(0,1361)">
        <g
           id="robo/1.eq-n"
           transform="translate(345,14)">
          <g
             id="rooo_copy_3"
             stroke-width="1"
             fill-rule="evenodd"
             transform="translate(-13.3436,12.101097)">
            <path
               d="m 146.03627,7.6141185 0.29989,-0.3932271 -0.34573,-0.011216 -0.27523,0.00713 z m 0,0 0.41984,0.5195361 c -0.22081,0.178437 -0.62526,0.1784737 -0.83195,0.020843 z m -1.08864,-1.3471446 c 0.65047,-0.5256489 1.46989,-0.5257234 2.13191,-0.020843 l 0.45703,0.348542 1.03644,40.0160481 h -5.3503 l 1.29761,-39.9984294 z m 1.05266,-7.3931674 c 2.29273,6.016e-4 4.15098,1.8595032 4.15078,4.1522354 -2e-4,2.2927322 -1.85878,4.1513088 -4.15151,4.1515093 -2.29273,2.005e-4 -4.15163,-1.8580509 -4.15223,-4.1507831 -2.9e-4,-1.1015224 0.43716,-2.15801239 1.21605,-2.93690642 0.7789,-0.77889403 1.83539,-1.21634418 2.93691,-1.21605518 z"
               id="path11"
               stroke="#000007"
               stroke-width="2.4" />
            <g
               id="Shape_17_copy"
               transform="translate(24,46.4)">
              <path
                 d="m 163.0936,92.7304 c 4.9664,-0.088 11.5384,3.970408 11.5384,-33.1944 0,-37.164808 -6.572,-33.1064 -11.5384,-33.1944 M 12.2528,92.7304 c -4.9664,-0.088 -12.1976,0 -12.1976,-33.1944 0,-33.1944 7.2312,-33.1064 12.1976,-33.1944"
                 id="Ellipse_1_copy_4-2"
                 stroke="#000000"
                 stroke-width="2.4"
                 fill="url(#linearGradient-3)"
                 style="fill:url(#linearGradient23)" />
              <mask
                 id="mask-6"
                 fill="#ffffff">
                <use
                   xlink:href="#path-5"
                   id="use11" />
              </mask>
              <path
                 d="m 167.128,73.744 c 0,7.949707 -1.27101,14.54 -3.36156,20.003336 C 157.3918,110.40644 143.397,116.58714 134.5816,118.88 c -5.86345,1.43777 -18.50803,5.644 -47.1568,5.644 -28.648769,0 -42.550136,-4.49669 -47.347089,-5.644 C 31.735297,116.94021 18.716818,111.62088 12.120326,96.294512 11.146591,94.032125 10.312791,91.551685 9.6546214,88.831875 8.5948192,84.452363 7.9904,79.452205 7.9904,73.7424 V 46.5656 c 0,-4.453998 0.3811674,-8.481268 1.0704268,-12.122693 0.5684884,-3.00338 1.3465612,-5.744285 2.2932172,-8.245651 C 21.233293,0.09313821 49.4728,0.0768 49.4728,0.0768 h 76.172 c 0,0 24.44525,0.01414274 35.80515,21.039495 3.43844,6.364024 5.67805,14.653036 5.67805,25.449305 z"
                 id="use12"
                 style="fill:url(#radialGradient-4);stroke:#000000;stroke-width:2.4"
                 sodipodi:nodetypes="sscscssssssccsss" />
            </g>
            <path
               d="m 82.6872,60.4064 c 0,0 -35.2376,0.0216 -35.2376,41.3808 V 110 c 0,29.6216 20.7864,38.6536 26.9504,40.4312 6.6448,1.92 12.0648,4.7696 37.5664,4.7696 13.5264,0 64.7544,1.6704 64.7544,-45.2 v -8.2136 c 0,-41.36 -35.2384,-41.3808 -35.2384,-41.3808 z"
               id="Shape_1_copy_2"
               stroke="#000000"
               stroke-width="2.4"
               fill="url(#radialGradient-7)"
               style="fill:url(#radialGradient-7)" />
            <g
               id="Rectangle-path"
               transform="translate(86.4,120)">
              <mask
                 id="mask-9"
                 fill="#ffffff">
                <use
                   xlink:href="#path-8"
                   id="use13" />
              </mask>
              <g
                 id="g15">
                <use
                   fill="#000007"
                   fill-rule="evenodd"
                   xlink:href="#path-8"
                   id="use14" />
                <use
                   fill="#000000"
                   fill-opacity="1"
                   filter="url(#filter-10)"
                   xlink:href="#path-8"
                   id="use15" />
              </g>
            </g>
            <g
               id="g18"
               transform="translate(72,82.4)"
               fill-rule="nonzero">
              <g
                 id="Group-4">
                <g
                   id="Ellipse_1_copy_5"
                   stroke-width="2.4">
                  <circle
                     stroke="#ffffff"
                     stroke-linejoin="square"
                     fill="#000000"
                     fill-rule="evenodd"
                     cx="11.1752"
                     cy="11.4872"
                     r="9.5752001"
                     id="circle17" />
                  <circle
                     stroke="#cdcdcd"
                     cx="11.1752"
                     cy="11.4872"
                     r="11.9752"
                     id="circle18" />
                </g>
                <circle
                   id="Ellipse_5_copy"
                   fill="#ffffff"
                   cx="15.1248"
                   cy="5.1999998"
                   r="2.8" />
              </g>
            </g>
            <g
               id="Group-Copy"
               transform="translate(125.6,82.4)"
               fill-rule="nonzero">
              <g
                 id="g21">
                <g
                   id="g20"
                   stroke-width="2.4">
                  <circle
                     stroke="#ffffff"
                     stroke-linejoin="square"
                     fill="#000000"
                     fill-rule="evenodd"
                     cx="11.1752"
                     cy="11.4872"
                     r="9.5752001"
                     id="circle19" />
                  <circle
                     stroke="#cdcdcd"
                     cx="11.1752"
                     cy="11.4872"
                     r="11.9752"
                     id="circle20" />
                </g>
                <circle
                   id="circle21"
                   fill="#ffffff"
                   cx="15.1248"
                   cy="5.1999998"
                   r="2.8" />
              </g>
            </g>
          </g>
        </g>
      </g>
    </g>
  </g>
  <metadata
     id="metadata22">
    <rdf:RDF>
      <cc:Work
         rdf:about="">
        <dc:title>Mars</dc:title>
      </cc:Work>
    </rdf:RDF>
  </metadata>
</svg>
