<svg xmlns="http://www.w3.org/2000/svg" width="128" height="128" viewBox="0 0 128 128"><path fill="#010000" d="M56.577 112.496c-.215-.024-1.018-.096-1.785-.16-10.128-.853-20.557-5.03-28.596-11.452-2.372-1.894-4.42-3.788-6.263-5.79-1.461-1.587-3.203-3.662-3.2-3.812 0-.052.892-.567 1.981-1.144a802 802 0 0 0 2.858-1.523l.878-.472-.71-.077c-.392-.043-1-.15-1.354-.24a4 4 0 0 0-1.395-.088l-.753.072.837-.859c.981-1.006 2.554-2.386 3.95-3.467.547-.422.945-.784.886-.804-.153-.051-4.188 1.336-5.302 1.824-1.154.504-2.232 1.125-2.98 1.716-.315.249-.572.429-.572.4 0-.03.13-.47.29-.98.406-1.292 1.098-2.587 2.607-4.874 1.46-2.212 2.067-3.235 1.976-3.326-.08-.08-2.335 1.212-3.98 2.281-1.535.997-3.48 2.451-4.427 3.31-.378.342-.717.622-.753.622-.275 0 .388-1.873 1.026-2.901.285-.46 1.203-1.691 2.04-2.735.836-1.044 1.839-2.375 2.228-2.958a40 40 0 0 1 1.72-2.316c1.072-1.331 1.922-2.626 1.759-2.68-.159-.054-2.569 1.014-4.977 2.204-2.69 1.33-5.25 2.705-7.4 3.976-.872.515-1.61.937-1.64.937-.093 0 .583-1.563 1.06-2.454 1.534-2.865 5.372-7.74 9.307-11.82l1.117-1.158-.558.08c-1.811.258-5.666 2.007-11.136 5.053-1.275.71-2.335 1.271-2.356 1.247s-.066-.199-.102-.388c-.186-.976 3.796-5.045 10.97-11.208l2.509-2.156-.612.079c-1.678.217-4.681 1.344-10.155 3.81C1.98 59.88.082 60.68.007 60.604c-.08-.08.533-1.04 1.409-2.21.471-.629 1.752-2.039 2.865-3.153 2.752-2.753 4.903-4.577 11.11-9.42 3.37-2.629 4.027-3.16 3.977-3.21-.023-.022-1.014.213-2.204.523s-2.74.714-3.446.896l-3.628.942a187 187 0 0 1-3.315.836c-.534.125-1.564.431-2.288.681-1.174.406-2.712.7-2.712.52 0-.038.79-.84 1.758-1.784 8.491-8.29 21.724-18.847 29.55-23.576 3.372-2.038 7.797-3.957 11.552-5.01 3.2-.897 5.659-1.218 8.886-1.16l2.331.042 2.01.645c5.76 1.848 7.285 2.331 8.817 2.794 1.92.58 5.216 1.408 5.602 1.408.143 0 .929-.173 1.745-.384a57 57 0 0 1 3.151-.694c1.515-.283 1.897-.312 4.179-.31 2.389.003 2.566.018 3.627.31.614.169 1.594.535 2.177.815.975.468 1.173.623 2.456 1.92 2.781 2.814 4.02 5.26 4.016 7.932-.001.589-.08 1.397-.175 1.796l-.173.725.868.823c1.69 1.603 3.583 2.957 5.955 4.26 2.911 1.6 5.032 2.487 13.283 5.562 5.986 2.231 8.541 3.467 10.788 5.217.868.675 1.764 1.613 2.028 2.12.202.39.34 1.528.52 4.285.28 4.274.56 6.491 1.08 8.572.177.7.22 1.147.18 1.841-.048.843-.11 1.042-.79 2.497-1.786 3.833-3.76 8.672-3.76 9.218 0 .63-1.247 1.652-2.366 1.94-.755.195-2.441.164-3.649-.067l-.6-.115-.739.542c-1.776 1.302-3.394 2.302-6.534 4.036l-1.666.92-1.184.056c-2.197.104-5.118-.394-10.666-1.817-8.182-2.099-10.223-2.124-13.95-.174-2.395 1.254-5.53 2.975-6.353 3.489-1.026.64-2.536 2.085-3.328 3.185-1.65 2.293-2.608 4.922-3.769 10.356-1.04 4.865-1.346 5.986-2.13 7.792l-.432.998.278.851c.363 1.108.888 3.234.816 3.305-.031.031-.504.11-1.052.174-.973.115-8.76.24-9.534.153z" style="stroke-width:.08314961;stroke:none;stroke-dasharray:none;fill:#4bacb8;fill-opacity:1"/></svg>