<?xml version="1.0" encoding="UTF-8" standalone="no"?>
<svg
   width="80"
   height="80.017502"
   viewBox="0 0 80 80.017502"
   version="1.1"
   id="svg69"
   sodipodi:docname="focus.svg"
   inkscape:version="1.4.2 (ebf0e940d0, 2025-05-08)"
   xmlns:inkscape="http://www.inkscape.org/namespaces/inkscape"
   xmlns:sodipodi="http://sodipodi.sourceforge.net/DTD/sodipodi-0.dtd"
   xmlns="http://www.w3.org/2000/svg"
   xmlns:svg="http://www.w3.org/2000/svg">
  <defs
     id="defs69" />
  <sodipodi:namedview
     id="namedview69"
     pagecolor="#505050"
     bordercolor="#ffffff"
     borderopacity="1"
     inkscape:showpageshadow="0"
     inkscape:pageopacity="0"
     inkscape:pagecheckerboard="1"
     inkscape:deskcolor="#505050"
     showgrid="false"
     inkscape:zoom="2.2309711"
     inkscape:cx="189.60353"
     inkscape:cy="39.892941"
     inkscape:window-width="1504"
     inkscape:window-height="969"
     inkscape:window-x="0"
     inkscape:window-y="0"
     inkscape:window-maximized="0"
     inkscape:current-layer="svg69" />
  <linearGradient
     id="a"
     x1="74.478104"
     x2="7.4103999"
     y1="738.711"
     y2="780.95819"
     gradientTransform="translate(-0.95,-718.1625)"
     gradientUnits="userSpaceOnUse">
    <stop
       offset="0"
       stop-color="#9658f9"
       id="stop1" />
    <stop
       offset=".13"
       stop-color="#9356f4"
       id="stop2" />
    <stop
       offset=".29"
       stop-color="#8951e5"
       id="stop3" />
    <stop
       offset=".46"
       stop-color="#7a49cd"
       id="stop4" />
    <stop
       offset=".64"
       stop-color="#643dab"
       id="stop5" />
    <stop
       offset=".82"
       stop-color="#492e81"
       id="stop6" />
    <stop
       offset="1"
       stop-color="#291d4f"
       id="stop7" />
  </linearGradient>
  <path
     fill="url(#a)"
     d="m 74.63,26.8275 c -1.69,-4.05 -5.1,-8.43 -7.78,-9.81 2.18,4.27 3.44,8.56 3.93,11.76 v 0.06 c -4.38,-10.92 -11.82,-15.32 -17.89,-24.91 -0.31,-0.49 -0.61,-0.97 -0.92,-1.49 -0.17,-0.29 -0.3,-0.55 -0.42,-0.8 -0.25,-0.49 -0.45,-1 -0.58,-1.53 0,-0.03 -0.01,-0.05 -0.02,-0.07 -0.02,-0.02 -0.04,-0.03 -0.06,-0.03 -0.02,-0.01 -0.05,-0.01 -0.07,0 l -0.02,0.01 c -0.01,0 -0.02,0.01 -0.03,0.01 l 0.01,-0.02 c -9.74,5.7 -13.04,16.25 -13.34,21.53 -3.89,0.27 -7.61,1.7 -10.67,4.11 -0.32,-0.27 -0.66,-0.52 -1,-0.76 -0.88,-3.09 -0.92,-6.36 -0.11,-9.47 -3.98,1.81 -7.08,4.68 -9.33,7.21 h 0.01 c -1.54,-1.95 -1.43,-8.37 -1.34,-9.71 -0.02,-0.08 -1.15,0.59 -1.29,0.69 -1.36,0.97 -2.62,2.05 -3.79,3.25 -1.33,1.34 -2.54,2.8 -3.62,4.34 -2.5,3.53 -4.27,7.52 -5.21,11.74 -0.02,0.08 -0.03,0.17 -0.05,0.26 -0.07,0.34 -0.34,2.05 -0.38,2.42 v 0.08 c -0.34,1.76 -0.55,3.55 -0.63,5.35 v 0.2 c 0,21.41 17.35,38.76 38.76,38.76 19.17,0 35.09,-13.92 38.21,-32.2 0.07,-0.49 0.12,-0.99 0.18,-1.49 0.74,-6.67 -0.13,-13.66 -2.55,-19.49 z m -44.68,30.34 c 0.18,0.09 0.35,0.18 0.54,0.26 l 0.03,0.02 c -0.19,-0.09 -0.38,-0.19 -0.57,-0.28 z m 40.84,-28.31 v -0.04 z"
     id="path7"
     style="fill:url(#a)" />
  <radialGradient
     id="b"
     cx="-560.77899"
     cy="-12.7938"
     r="1.3333"
     gradientTransform="matrix(-23.5301,55.8694,-59,-24.8486,-13886.147,31025.199)"
     gradientUnits="userSpaceOnUse">
    <stop
       offset="0"
       stop-color="#9658f9"
       id="stop8" />
    <stop
       offset=".65"
       stop-color="#291d4f"
       id="stop9" />
  </radialGradient>
  <path
     fill="url(#b)"
     d="m 74.63,26.8275 c -1.69,-4.05 -5.1,-8.43 -7.78,-9.81 2.18,4.27 3.44,8.56 3.93,11.76 v 0.08 c 3.66,9.91 1.66,20 -1.21,26.16 -4.44,9.53 -15.2,19.3 -32.02,18.83 -18.18,-0.52 -34.2,-14.01 -37.19,-31.69 -0.55,-2.79 0,-4.2 0.27,-6.46 -0.33,1.74 -0.46,2.25 -0.63,5.35 v 0.2 c 0,21.41 17.35,38.76 38.76,38.76 19.17,0 35.09,-13.92 38.21,-32.2 0.07,-0.5 0.12,-0.99 0.18,-1.49 0.77,-6.67 -0.1,-13.66 -2.52,-19.49 z"
     id="path9"
     style="fill:url(#b)" />
  <radialGradient
     id="c"
     cx="-558.41687"
     cy="12.0649"
     r="1.3333"
     gradientTransform="matrix(60.5531,0,0,60.5531,33859.214,-680.9314)"
     gradientUnits="userSpaceOnUse">
    <stop
       offset=".25"
       stop-color="#ab71ff"
       stop-opacity="0"
       id="stop10" />
    <stop
       offset=".42"
       stop-color="#9462e0"
       stop-opacity=".18"
       id="stop11" />
    <stop
       offset=".73"
       stop-color="#573b8d"
       stop-opacity=".65"
       id="stop12" />
    <stop
       offset=".94"
       stop-color="#291d4f"
       id="stop13" />
  </radialGradient>
  <path
     fill="url(#c)"
     d="m 74.63,26.8275 c -1.69,-4.05 -5.1,-8.43 -7.78,-9.81 2.18,4.27 3.44,8.56 3.93,11.76 v 0.08 c 3.66,9.91 1.66,20 -1.21,26.16 -4.44,9.53 -15.2,19.3 -32.02,18.83 -18.18,-0.52 -34.2,-14.01 -37.19,-31.69 -0.55,-2.79 0,-4.2 0.27,-6.46 -0.33,1.74 -0.46,2.25 -0.63,5.35 v 0.2 c 0,21.41 17.35,38.76 38.76,38.76 19.17,0 35.09,-13.92 38.21,-32.2 0.07,-0.5 0.12,-0.99 0.18,-1.49 0.77,-6.67 -0.1,-13.66 -2.52,-19.49 z"
     id="path13"
     style="fill:url(#c)" />
  <radialGradient
     id="d"
     cx="-554.68793"
     cy="16.3965"
     r="1.3333"
     gradientTransform="matrix(43.7736,0,0,43.7736,24335.759,-719.4223)"
     gradientUnits="userSpaceOnUse">
    <stop
       offset=".18"
       stop-color="#9658f9"
       id="stop14" />
    <stop
       offset=".33"
       stop-color="#7e48ea"
       id="stop15" />
    <stop
       offset=".37"
       stop-color="#7542e5"
       id="stop16" />
    <stop
       offset=".41"
       stop-color="#6a3dd0"
       id="stop17" />
    <stop
       offset=".48"
       stop-color="#5332a2"
       id="stop18" />
    <stop
       offset=".56"
       stop-color="#41297e"
       id="stop19" />
    <stop
       offset=".63"
       stop-color="#342264"
       id="stop20" />
    <stop
       offset=".69"
       stop-color="#2c1e54"
       id="stop21" />
    <stop
       offset=".74"
       stop-color="#291d4f"
       id="stop22" />
  </radialGradient>
  <path
     fill="url(#d)"
     d="m 55.8,31.3875 0.24,0.18 c -0.97,-1.73 -2.18,-3.31 -3.6,-4.7 -12.05,-12.05 -3.16,-26.13 -1.66,-26.84 l 0.01,-0.02 c -9.74,5.7 -13.04,16.25 -13.34,21.53 0.45,-0.03 0.9,-0.07 1.36,-0.07 7.27,0 13.6,3.99 16.99,9.92 z"
     id="path22"
     style="fill:url(#d)" />
  <radialGradient
     id="e"
     cx="-548.04468"
     cy="25.399"
     r="1.3333"
     gradientTransform="matrix(28.8575,0,0,28.8575,15842.824,-673.7761)"
     gradientUnits="userSpaceOnUse">
    <stop
       offset=".07"
       stop-color="#9358fc"
       id="stop23" />
    <stop
       offset=".13"
       stop-color="#9857f8"
       id="stop24" />
    <stop
       offset=".21"
       stop-color="#a755eb"
       id="stop25" />
    <stop
       offset=".3"
       stop-color="#bf52d7"
       id="stop26" />
    <stop
       offset=".39"
       stop-color="#e14eba"
       id="stop27" />
    <stop
       offset=".42"
       stop-color="#ef4caf"
       id="stop28" />
    <stop
       offset=".74"
       stop-color="#ff7583"
       id="stop29" />
    <stop
       offset=".97"
       stop-color="#ffb753"
       id="stop30" />
  </radialGradient>
  <path
     fill="url(#e)"
     d="m 38.92,33.7875 c -0.06,0.96 -3.47,4.29 -4.66,4.29 -11.02,0 -12.81,6.67 -12.81,6.67 0.49,5.62 4.4,10.24 9.13,12.69 0.22,0.11 0.43,0.21 0.65,0.31 0.38,0.17 0.76,0.32 1.14,0.47 1.62,0.57 3.32,0.9 5.04,0.97 19.32,0.91 23.06,-23.1 9.12,-30.07 3.57,-0.62 7.28,0.82 9.35,2.27 -3.39,-5.92 -9.72,-9.92 -16.98,-9.92 -0.46,0 -0.92,0.04 -1.36,0.07 -3.89,0.27 -7.61,1.7 -10.67,4.11 0.59,0.5 1.26,1.17 2.66,2.55 2.62,2.59 9.37,5.27 9.39,5.59 z"
     id="path30"
     style="fill:url(#e)" />
  <radialGradient
     id="f"
     cx="-542.69391"
     cy="46.9772"
     r="1.3333"
     gradientTransform="matrix(14.8399,-3.6717,4.3134,17.4334,7887.7873,-2779.9972)"
     gradientUnits="userSpaceOnUse">
    <stop
       offset=".22"
       stop-color="#ffb653"
       stop-opacity=".3"
       id="stop31" />
    <stop
       offset=".34"
       stop-color="#ff807a"
       stop-opacity=".5"
       id="stop32" />
    <stop
       offset=".44"
       stop-color="#ff7781"
       stop-opacity=".48"
       id="stop33" />
    <stop
       offset=".57"
       stop-color="#ff5c94"
       stop-opacity=".43"
       id="stop34" />
    <stop
       offset=".64"
       stop-color="#ff4aa2"
       stop-opacity=".4"
       id="stop35" />
    <stop
       offset=".86"
       stop-color="#9658f9"
       stop-opacity=".3"
       id="stop36" />
  </radialGradient>
  <path
     fill="url(#f)"
     d="m 38.92,33.7875 c -0.06,0.96 -3.47,4.29 -4.66,4.29 -11.02,0 -12.81,6.67 -12.81,6.67 0.49,5.62 4.4,10.24 9.13,12.69 0.22,0.11 0.43,0.21 0.65,0.31 0.38,0.17 0.76,0.32 1.14,0.47 1.62,0.57 3.32,0.9 5.04,0.97 19.32,0.91 23.06,-23.1 9.12,-30.07 3.57,-0.62 7.28,0.82 9.35,2.27 -3.39,-5.92 -9.72,-9.92 -16.98,-9.92 -0.46,0 -0.92,0.04 -1.36,0.07 -3.89,0.27 -7.61,1.7 -10.67,4.11 0.59,0.5 1.26,1.17 2.66,2.55 2.62,2.59 9.37,5.27 9.39,5.59 z"
     id="path36"
     style="fill:url(#f)" />
  <radialGradient
     id="g"
     cx="-540.03839"
     cy="34.7808"
     r="1.3333"
     gradientTransform="matrix(20.7439,0,0,20.7439,11246.823,-708.1591)"
     gradientUnits="userSpaceOnUse">
    <stop
       offset=".03"
       stop-color="#9658f9"
       id="stop37" />
    <stop
       offset=".62"
       stop-color="#7542e5"
       id="stop38" />
    <stop
       offset=".72"
       stop-color="#6339c2"
       id="stop39" />
    <stop
       offset=".93"
       stop-color="#37246b"
       id="stop40" />
    <stop
       offset="1"
       stop-color="#291d4f"
       id="stop41" />
  </radialGradient>
  <path
     fill="url(#g)"
     d="m 24.97,24.3575 c 0.31,0.2 0.57,0.37 0.8,0.53 -0.88,-3.09 -0.92,-6.36 -0.11,-9.47 -3.98,1.81 -7.08,4.68 -9.33,7.21 0.19,0 5.82,-0.11 8.64,1.73 z"
     id="path41"
     style="fill:url(#g)" />
  <radialGradient
     id="h"
     cx="-561.3476"
     cy="-10.8628"
     r="1.3333"
     gradientTransform="matrix(-18.9321,82.9278,-65.0914,-14.8601,-11285.843,46369.631)"
     gradientUnits="userSpaceOnUse">
    <stop
       offset=".2"
       stop-color="#ab71ff"
       id="stop42" />
    <stop
       offset=".29"
       stop-color="#a46bfc"
       id="stop43" />
    <stop
       offset=".41"
       stop-color="#9059f2"
       id="stop44" />
    <stop
       offset=".54"
       stop-color="#7542e5"
       id="stop45" />
    <stop
       offset=".64"
       stop-color="#6239bf"
       id="stop46" />
    <stop
       offset=".94"
       stop-color="#291d4f"
       id="stop47" />
  </radialGradient>
  <path
     fill="url(#h)"
     d="m 0.36,42.1575 c 2.99,17.67 19.01,31.17 37.2,31.68 16.83,0.48 27.59,-9.29 32.02,-18.83 2.87,-6.16 4.86,-16.24 1.21,-26.16 v -0.08 0.06 c 1.37,8.98 -3.19,17.67 -10.33,23.55 l -0.02,0.05 c -13.91,11.33 -27.22,6.83 -29.92,4.99 -0.18,-0.09 -0.37,-0.18 -0.56,-0.28 -8.11,-3.88 -11.46,-11.27 -10.74,-17.6 -6.85,0 -9.18,-5.78 -9.18,-5.78 0,0 6.15,-4.38 14.25,-0.57 7.51,3.53 14.55,0.57 14.55,0.57 -0.01,-0.32 -6.76,-3 -9.39,-5.59 -1.41,-1.38 -2.07,-2.05 -2.66,-2.55 -0.32,-0.27 -0.66,-0.52 -1,-0.76 -0.23,-0.16 -0.49,-0.33 -0.8,-0.53 -2.83,-1.84 -8.45,-1.74 -8.63,-1.73 h -0.01 c -1.54,-1.95 -1.43,-8.37 -1.34,-9.71 -0.02,-0.08 -1.15,0.59 -1.29,0.69 -1.36,0.97 -2.62,2.05 -3.79,3.25 -1.33,1.34 -2.54,2.8 -3.62,4.34 -2.5,3.53 -4.27,7.52 -5.21,11.74 -0.05,0.11 -1.42,6.13 -0.74,9.25 z"
     id="path47"
     style="fill:url(#h)" />
  <radialGradient
     id="i"
     cx="-555.98523"
     cy="-11.7984"
     r="1.3333"
     gradientTransform="matrix(6.8048,64.4667,-42.375,4.4729,3334.4836,35909.815)"
     gradientUnits="userSpaceOnUse">
    <stop
       offset=".09"
       stop-color="#9658f9"
       id="stop48" />
    <stop
       offset=".14"
       stop-color="#8c51f3"
       id="stop49" />
    <stop
       offset=".26"
       stop-color="#7542e5"
       id="stop50" />
    <stop
       offset=".29"
       stop-color="#6e3ed6"
       id="stop51" />
    <stop
       offset=".4"
       stop-color="#5533a6"
       id="stop52" />
    <stop
       offset=".5"
       stop-color="#422980"
       id="stop53" />
    <stop
       offset=".59"
       stop-color="#342365"
       id="stop54" />
    <stop
       offset=".67"
       stop-color="#2c1e55"
       id="stop55" />
    <stop
       offset=".74"
       stop-color="#291d4f"
       id="stop56" />
  </radialGradient>
  <path
     fill="url(#i)"
     d="m 52.44,26.8675 c 1.41,1.39 2.62,2.97 3.6,4.7 0.21,0.16 0.41,0.32 0.58,0.47 8.79,8.1 4.18,19.55 3.84,20.37 7.14,-5.89 11.71,-14.58 10.33,-23.55 -4.38,-10.94 -11.81,-15.34 -17.88,-24.93 -0.31,-0.49 -0.61,-0.97 -0.92,-1.49 -0.17,-0.29 -0.31,-0.55 -0.43,-0.8 -0.25,-0.49 -0.45,-1 -0.58,-1.53 0,-0.03 -0.01,-0.05 -0.02,-0.07 -0.02,-0.02 -0.04,-0.03 -0.06,-0.03 -0.02,-0.01 -0.05,-0.01 -0.07,0 l -0.02,0.01 c -0.01,0 -0.02,0.01 -0.03,0.01 -1.5,0.71 -10.39,14.79 1.66,26.84 z"
     id="path56"
     style="fill:url(#i)" />
  <radialGradient
     id="j"
     cx="-557.50403"
     cy="13.1056"
     r="1.3333"
     gradientTransform="matrix(55.2472,0,0,55.2472,30844.208,-700.4765)"
     gradientUnits="userSpaceOnUse">
    <stop
       offset="0"
       stop-color="#9658f9"
       id="stop57" />
    <stop
       offset=".12"
       stop-color="#9155f6"
       id="stop58" />
    <stop
       offset=".25"
       stop-color="#834cee"
       id="stop59" />
    <stop
       offset=".34"
       stop-color="#7542e5"
       id="stop60" />
    <stop
       offset=".78"
       stop-color="#291d4f"
       id="stop61" />
  </radialGradient>
  <path
     fill="url(#j)"
     d="m 56.62,32.0375 c -0.17,-0.15 -0.37,-0.31 -0.58,-0.47 l -0.24,-0.18 c -2.07,-1.45 -5.77,-2.89 -9.35,-2.27 13.94,6.97 10.2,30.97 -9.12,30.07 -1.72,-0.07 -3.42,-0.4 -5.04,-0.97 -0.38,-0.14 -0.76,-0.3 -1.14,-0.47 -0.22,-0.1 -0.44,-0.2 -0.65,-0.31 l 0.03,0.02 c 2.7,1.84 16.01,6.33 29.92,-4.99 l 0.02,-0.05 c 0.33,-0.84 4.93,-12.28 -3.85,-20.38 z"
     id="path61"
     style="fill:url(#j)" />
  <radialGradient
     id="k"
     cx="-558.30988"
     cy="12.0167"
     r="1.3333"
     gradientTransform="matrix(60.3433,0,0,60.3433,33753.378,-697.2472)"
     gradientUnits="userSpaceOnUse">
    <stop
       offset=".19"
       stop-color="#9658f9"
       id="stop62" />
    <stop
       offset=".49"
       stop-color="#834bed"
       id="stop63" />
    <stop
       offset=".66"
       stop-color="#7542e5"
       id="stop64" />
    <stop
       offset=".7"
       stop-color="#6b3dd2"
       id="stop65" />
    <stop
       offset=".79"
       stop-color="#52319f"
       id="stop66" />
    <stop
       offset=".91"
       stop-color="#291d4f"
       id="stop67" />
  </radialGradient>
  <path
     fill="url(#k)"
     d="m 21.36,44.7475 c 0,0 1.79,-6.67 12.81,-6.67 1.19,0 4.6,-3.32 4.66,-4.29 0,0 -7.05,2.96 -14.55,-0.57 -8.1,-3.81 -14.25,0.57 -14.25,0.57 0,0 2.34,5.78 9.18,5.78 -0.72,6.34 2.63,13.72 10.74,17.6 0.18,0.09 0.35,0.18 0.54,0.26 -4.73,-2.45 -8.64,-7.08 -9.13,-12.68 z"
     id="path67"
     style="fill:url(#k)" />
  <linearGradient
     id="l"
     x1="69.693497"
     x2="14.9457"
     y1="730.23407"
     y2="784.98163"
     gradientTransform="translate(0.32435425,-718.1625)"
     gradientUnits="userSpaceOnUse">
    <stop
       offset="0"
       stop-color="#9059ff"
       stop-opacity=".9"
       id="stop68" />
    <stop
       offset=".61"
       stop-color="#291d4f"
       stop-opacity="0"
       id="stop69" />
  </linearGradient>
  <path
     fill="url(#l)"
     d="m 75.904354,26.8275 c -1.69,-4.05 -5.1,-8.43 -7.78,-9.81 2.18,4.27 3.44,8.56 3.93,11.76 v 0.06 c -4.38,-10.92 -11.82,-15.32 -17.89,-24.91 -0.31,-0.49 -0.61,-0.97 -0.92,-1.49 -0.17,-0.29 -0.3,-0.55 -0.42,-0.8 -0.25,-0.49 -0.45,-1 -0.58,-1.53 0,-0.03 -0.01,-0.05 -0.02,-0.07 -0.02,-0.02 -0.04,-0.03 -0.06,-0.03 -0.02,-0.01 -0.05,-0.01 -0.07,0 l -0.02,0.01 c -0.01,0 -0.02,0.01 -0.03,0.01 l 0.01,-0.02 c -9.74,5.7 -13.04,16.25 -13.34,21.53 0.45,-0.03 0.9,-0.07 1.36,-0.07 7.27,0 13.6,4 16.98,9.92 -2.07,-1.45 -5.77,-2.89 -9.35,-2.27 13.94,6.97 10.2,30.97 -9.12,30.07 -1.72,-0.07 -3.42,-0.4 -5.04,-0.97 -0.38,-0.14 -0.76,-0.3 -1.14,-0.47 -0.22,-0.1 -0.44,-0.2 -0.65,-0.31 l 0.03,0.02 c -0.18,-0.09 -0.37,-0.18 -0.56,-0.28 0.18,0.09 0.35,0.18 0.54,0.26 -4.73,-2.45 -8.65,-7.07 -9.13,-12.68 0,0 1.79,-6.67 12.81,-6.67 1.19,0 4.6,-3.32 4.66,-4.29 -0.01,-0.32 -6.76,-3 -9.39,-5.59 -1.41,-1.38 -2.07,-2.05 -2.66,-2.55 -0.32,-0.27 -0.66,-0.52 -1,-0.76 -0.88,-3.09 -0.92,-6.36 -0.11,-9.47 -3.98,1.81 -7.08,4.68 -9.33,7.21 -1.54,-1.95 -1.43,-8.37 -1.34,-9.71 -0.02,-0.08 -1.15,0.59 -1.29,0.69 -1.36,0.97 -2.62,2.05 -3.79,3.25 -1.3299997,1.34 -2.5399997,2.8 -3.6199997,4.34 -2.5,3.53 -4.27,7.52 -5.21,11.74 -0.02,0.08 -0.03,0.17 -0.05,0.26 -0.07,0.34 -0.4,2.07 -0.45,2.44 -0.3,1.79 -0.49,3.6 -0.57,5.41 v 0.2 c 0,21.41 17.3499997,38.76 38.7599997,38.76 19.17,0 35.09,-13.92 38.21,-32.2 0.07,-0.49 0.12,-0.99 0.18,-1.49 0.75,-6.67 -0.12,-13.66 -2.54,-19.5 z m -3.84,1.99 v 0.04 z"
     id="path69"
     style="fill:url(#l)" />
</svg>
