<?xml version="1.0" encoding="UTF-8" standalone="no"?>
<!-- Created with Inkscape (http://www.inkscape.org/) -->
<svg version="1.1" id="svg1" width="1024" height="1024" viewBox="0 0 1024 1024" sodipodi:docname="servo-color.svg" inkscape:version="1.4.2 (ebf0e940d0, 2025-05-08)" xmlns:inkscape="http://www.inkscape.org/namespaces/inkscape" xmlns:sodipodi="http://sodipodi.sourceforge.net/DTD/sodipodi-0.dtd" xmlns="http://www.w3.org/2000/svg" xmlns:svg="http://www.w3.org/2000/svg">
  <defs id="defs1"/>
  <sodipodi:namedview id="namedview1" pagecolor="#ffffff" bordercolor="#000000" borderopacity="0.25" inkscape:showpageshadow="2" inkscape:pageopacity="0.0" inkscape:pagecheckerboard="0" inkscape:deskcolor="#d1d1d1" inkscape:zoom="0.17342157" inkscape:cx="1470.4053" inkscape:cy="-184.52145" inkscape:window-width="1870" inkscape:window-height="1011" inkscape:window-x="0" inkscape:window-y="0" inkscape:window-maximized="1" inkscape:current-layer="g1"/>
  <g inkscape:groupmode="layer" inkscape:label="Image" id="g1">
    <rect id="background" x="587.69568" y="-719.53839" width="2408.6692" height="2395.1614" rx="39.059502" style="fill:none;fill-rule:evenodd;stroke:none;stroke-width:12.9483"/>
    <g id="g2" transform="translate(-18.91024,-11.794685)">
      <path d="m 299.68859,622.4552 207.4189,149.17612 V 922.18347 C 346.38129,912.91168 210.95829,810.3537 155.28189,668.40451 Z" id="Path" fill="#1192e8" style="fill-rule:evenodd;stroke:none;stroke-width:12.9483"/>
      <path d="m 762.12809,622.4552 144.4085,45.94931 c -55.6762,141.94863 -191.0984,244.50635 -351.8218,253.77896 V 771.63132 Z" id="path1" fill="#1192e8" style="fill-rule:evenodd;stroke:none;stroke-width:12.9483"/>
      <path d="m 275.79069,215.56108 89.0547,121.73781 -78.7752,239.99075 -145.345,46.24909 c -7.7084,-29.73694 -12.0391,-60.81441 -12.563,-92.80797 l -0.052,-6.59371 c 0,-124.37661 57.5287,-235.45246 147.6825,-308.57597 z" id="path2" fill="#009d9a" style="fill-rule:evenodd;stroke:none;stroke-width:12.9483"/>
      <path d="m 786.02779,215.56108 c 90.1539,73.12351 147.6825,184.19936 147.6825,308.57597 0,34.31915 -4.38,67.62568 -12.617,99.40168 l -145.3468,-46.24909 -78.7751,-239.99075 z" id="path3" fill="#009d9a" style="fill-rule:evenodd;stroke:none;stroke-width:12.9483"/>
      <path d="m 530.90929,125.4059 c 79.7255,0 154.0411,22.92827 216.5849,62.48668 l -89.3693,122.16754 h -254.433 l -89.3677,-122.16754 c 60.7987,-38.45471 132.7215,-61.19407 209.9239,-62.43323 z" id="path4" fill="#42be65" style="fill-rule:evenodd;stroke:none;stroke-width:12.9483"/>
    </g>
  </g>
</svg>