<svg xmlns="http://www.w3.org/2000/svg" xml:space="preserve" width="320mm" height="320mm" viewBox="0 0 320 320"><path fill="#fedb00" d="M0 0q3.165-.001 6.328-.005 11.11-.015 22.22-.013 10.24-.001 20.48-.026 8.888-.019 17.776-.018 5.265.002 10.531-.013c19.954-.057 39.97.121 59.643 3.818 6.196.997 12.544 1.115 18.808 1.372 6.65.41 10.241 1.09 14.828 6.052a296 296 0 0 1-2 5l-.813 2.02c-2.1 4.996-4.647 9.263-7.734 13.707-1.901 2.974-3.261 6.067-4.594 9.328-.86 1.945-.86 1.945-2.86 4.945h-2c-.09.542-.182 1.083-.276 1.64-.944 3.082-2.523 5.418-4.286 8.11l-1.941 2.985-1.496 2.265 2.562-1.312c7.543-3.703 14.954-6.063 23.063-8.25q3.333-.904 6.664-1.817l2.96-.799c2.722-.765 2.722-.765 5.154-1.799 3.224-1.27 6.514-2.146 9.863-3.011l2.128-.556q3.427-.89 6.856-1.768l2.365-.61a587 587 0 0 1 38.51-8.516c3.219-.629 6.418-1.332 9.621-2.038 7.462-1.61 14.957-2.884 22.504-4.024l2.128-.322c16.48-2.47 32.996-4.09 49.622-5.178l2.025-.135a333.6 333.6 0 0 1 49.35.385l2.317.183c8.376.685 16.382 1.592 24.308 4.567l2.021.755c1.858.721 3.7 1.483 5.541 2.245 3.896 1.61 7.714 3.098 11.743 4.332 5.453 1.784 10.285 4.529 15.257 7.356l2.768 1.549q3.34 1.871 6.67 3.763c.22 6.814-.066 12.877-1.938 19.438l-.552 2.06a699 699 0 0 1-1.51 5.502 385 385 0 0 0-1 4h-2l-.813 3.313c-1.17 3.636-1.642 4.232-4.187 6.687a65 65 0 0 0-2.27 3.88l-1.245 2.277-1.298 2.406q-1.344 2.454-2.691 4.906l-1.305 2.379a206 206 0 0 1-10.254 16.652c-2.524 3.744-4.56 7.576-6.53 11.633-4.314 8.794-8.778 17.353-14.56 25.281-2.22 3.109-4.29 6.305-6.347 9.524l-1.155 1.803a938 938 0 0 0-5.298 8.388c-3.073 4.91-6.057 9.653-10.047 13.871h-2l-.742 1.711c-1.485 2.702-3.278 4.662-5.383 6.914-7.916 8.57-7.916 8.57-14.477 18.168l-1.398 2.207h-2l-.781 1.735c-1.333 2.477-2.87 4.4-4.719 6.515l-1.844 2.14c-1.656 1.61-1.656 1.61-3.656 1.61l-.766 1.64c-3.425 6.548-7.89 12.673-12.359 18.548-8.962 11.592-8.962 11.592-10.875 25.812 1.364 2.038 1.364 2.038 3.312 4 11.328 13.456 18.264 31.52 24.563 47.813a98 98 0 0 0 4.016 8.965c5.026 10.001 9.022 20.174 12.546 30.785l.652 1.945c3.232 9.701 6.36 19.18 5.911 29.492l2 1c.281 1.913.55 3.83.747 5.753.394 3.497 1.15 6.902 1.882 10.341l.947 4.625c.489 2.38.981 4.757 1.488 7.133 2.056 9.676 3.172 18.611 2.936 28.504 0 5.263.887 10.193 1.937 15.332q.56 2.985 1.106 5.972l.517 2.817c3.448 19.772 1.92 41.236-1.091 60.937-.497 3.802-.755 7.571-.969 11.399-.228 4.035-.515 7.783-1.563 11.687-1.643 6.318-1.09 13.027-.937 19.5h-2l.042 1.963c.422 35.773-7.984 77.284-25.042 109.037q-1.414 2.81-2.812 5.625l-1.547 3.063a266 266 0 0 0-3.344 7c-4.838 10.347-10.998 19.266-17.85 28.383-9.665 12.667-9.665 12.667-16.447 26.93h-2l-.75 2.187c-2.365 5.32-6.126 8.733-10.625 12.312l-2.937 2.36-2.688 2.14c-2.88 2.328-5.67 4.671-8.293 7.293-2.823 2.823-5.713 5.562-8.644 8.27l-1.697 1.568c-4.66 4.277-9.44 8.403-14.26 12.497-4.635 3.943-9.145 8-13.63 12.114-2.899 2.644-5.849 5.224-8.82 7.786-1.692 1.46-1.692 1.46-3.25 3.164-1.406 1.308-1.406 1.308-3.406 1.308v2a393 393 0 0 1-5 3l-2.187 2.188-1.813 1.812h-2v2c-1.68 1.373-1.68 1.373-4.016 2.934l-2.543 1.717-2.691 1.787q-2.603 1.746-5.203 3.496l-2.349 1.564a83 83 0 0 0-4.357 3.194c-1.841 1.308-1.841 1.308-3.841 1.308v2c-4.385 3-4.385 3-7 3v2c-1.312 1.625-1.312 1.625-3 3h-3v2a90 90 0 0 1-4.059 2.75c-2.183 1.406-4.272 2.918-6.378 4.438-8.808 6.153-17.776 11.819-27.75 15.875-10.223 4.178-18.751 10.78-27.536 17.37-2.277 1.567-2.277 1.567-5.277 2.567v2c-4.302 4.768-4.302 4.768-8 6v3a117 117 0 0 1-5 4l-1 2h-3l-.77 1.785c-3.362 6.053-10.547 10.465-16.23 14.215h-2v2l-3.062 1.688c-2.716 1.54-5.239 3.21-7.75 5.062-3.188 2.25-3.188 2.25-5.188 2.25v2l-5 1v2q-2.12 1.227-4.25 2.438l-2.39 1.37c-2.148 1.085-4.012 1.724-6.36 2.192v2c-1.42.974-2.847 1.94-4.302 2.863-2.17 1.453-4.089 3.157-6.035 4.894-19.912 17.712-19.912 17.712-30.288 18.056-5.437-.422-9.413-2.759-13.05-6.746q-1.337-1.74-2.637-3.504l-1.431-1.882a804 804 0 0 1-4.257-5.68q-1.214-1.604-2.43-3.204A616 616 0 0 1-42.26 969.73c-3.873-5.352-8.089-10.35-12.39-15.356-2.538-2.956-4.984-5.98-7.422-9.02-6.264-8.114-6.264-8.114-14.313-14.187v-2c-6.918.03-11.374 1.433-17.129 5.203-3.377 2.114-6.858 3.861-10.433 5.61a649 649 0 0 0-16.688 8.5l-2.085 1.103a648 648 0 0 0-12.009 6.565l-2.725 1.52q-2.628 1.47-5.244 2.958c-.8.446-1.598.893-2.421 1.354l-2.132 1.207c-2.362 1.085-4.576 1.564-7.134 1.98v2l-5 1v2q-1.934 1.007-3.875 2l-2.18 1.125c-1.945.875-1.945.875-3.945.875v2l-2.812 1.313c-2.791 1.477-4.048 2.536-6.188 4.687-4.918 3.396-9.608 4.486-15.508 4.824-6.984-2.31-11.581-12.055-15.554-17.824l-3.598-5.187-1.712-2.48a319 319 0 0 0-4.562-6.333c-2.066-3-2.066-3-2.066-5h-2l-1.625-3.093c-2.292-4.012-5.15-7.127-8.375-10.407-4.174-4.246-7.142-8.268-10-13.5a283 283 0 0 0-5-5c-5.633-6.898-5.633-6.898-7-11l-1.812-.875c-2.932-1.507-4.344-3.425-6.188-6.125v-3l-6-1-2 3a103 103 0 0 1-6.25 3.188c-5.915 2.835-11.6 5.937-17.218 9.323-2.758 1.628-4.264 2.49-7.532 2.49l-1 2c-2.18 1.288-2.18 1.288-4.875 2.624l-2.68 1.352c-2.445 1.023-2.445 1.023-5.445 1.023v2a418 418 0 0 1-3.812 2l-2.145 1.125c-2.043.875-2.043.875-5.043.875v2q-2.904 1.472-5.812 2.938l-3.27 1.652c-2.918 1.41-2.918 1.41-5.918 2.41l-1 2a155 155 0 0 1-4.762 2.707c-3.705 2.14-7.18 4.648-10.687 7.098-2.551 1.195-2.551 1.195-4.556.572-2.566-1.77-3.238-3.356-4.468-6.209l-1.287-2.92-1.302-3.06q-1.296-2.98-2.598-5.957l-1.145-2.675c-1.166-2.626-1.166-2.626-2.841-5.195-1.354-2.36-1.354-2.36-1.354-5.36h-2c-11.42-20.288-11.42-20.288-12-29h-2l-.805-2.852-1.07-3.774-1.055-3.726a174 174 0 0 0-2.203-6.985c-.867-2.664-.867-2.664-.867-4.664h-2l-.411-1.68c-.624-2.526-1.263-5.048-1.901-7.57l-.647-2.644-.654-2.559-.587-2.348c-.708-2.277-.708-2.277-2.295-4.189-1.677-2.24-2.268-4.016-2.97-6.713l-.736-2.723-.736-2.824c-1.564-5.994-3.234-11.437-6.15-16.913-1.4-2.819-2.173-5.74-2.975-8.774-1.066-3.922-2.143-7.794-3.5-11.625-1.209-3.502-2.032-7.005-2.813-10.625-1.329-5.977-3.237-11.585-5.363-17.32-1.62-4.485-2.985-9.03-4.356-13.594a103 103 0 0 0-2.531-7.149c-1.023-2.79-1.73-5.189-2.312-8.062-.711-3.465-1.735-6.635-3-9.938-3.151-8.433-4.901-16.946-5.938-25.875-.76-6.087-1.973-11.934-3.5-17.875l-.597-2.39c-1.36-5.09-3.324-9.098-6.028-13.61v-2h-2v-2l-1.75-.812c-2.25-1.188-2.25-1.188-4.062-2.625-2.288-1.634-4.604-2.558-7.192-3.621-6.219-2.933-11.228-7.051-15.996-11.942a213 213 0 0 0-6.426-4.668l-1.574-1.332v-2l-2.238-.808c-10.071-4.345-20.334-14.407-26.762-23.192v-2h-2c-1.31-1.51-1.31-1.51-2.793-3.62l-1.65-2.323-1.744-2.494a4481 4481 0 0 0-3.555-4.996l-1.718-2.418c-2.73-3.81-5.608-7.493-8.54-11.149l-1.879-2.367a1650 1650 0 0 0-6.121-7.633l-2.262-2.832c-3.946-4.897-7.908-9.548-12.523-13.828-1.215-1.34-1.215-1.34-1.215-3.34l-1.79-.722c-7.255-4.193-11.46-15.038-15.272-22.215l-1.487-2.764q-1.48-2.753-2.955-5.51c-2.96-5.519-5.972-11.011-8.985-16.502a1614 1614 0 0 1-9.198-17.037l-1.154-2.149c-3.508-6.6-6.388-12.543-7.159-20.1h-2l-3-14h-2c-4.866-12.27-4.866-12.27-6.562-18.313-1.57-5.464-3.851-10.369-7.063-15.063-2.598-4.96-3.414-10.5-3.312-16.062-.08-4.483-.723-12.223-4.063-15.563-.127-2.43-.185-4.819-.187-7.25l-.038-2.027c-.011-4.03.448-7.098 2.225-10.723h2v-2c1.793-1.437 1.793-1.437 4.188-3l2.355-1.562c9.723-5.689 20.878-5.722 31.844-6.008 3.975-.13 7.666-.328 11.508-1.398 29.789-8.29 76.526-6.618 106.84-.008 4.826.994 9.563 1.31 14.478 1.558 13.035.665 25.006 2.528 36.787 8.418l.078-1.95c.414-6.587 1.77-12.323 3.84-18.577 1.106-3.55 1.908-7.092 2.707-10.723 2.496-10.745 7.032-20.82 11.234-30.982 3.19-7.74 6.147-15.48 8.45-23.534.99-3.201 2.3-6.187 3.691-9.234h2l.812-2.75c1.188-3.25 1.188-3.25 2.579-5.086 2.542-3.418 4.175-7.264 6.011-11.094 1.598-3.07 1.598-3.07 3.578-6.023 2.125-3.205 3.748-6.45 5.395-9.922 2.351-4.849 4.906-9.19 8.285-13.394 2.116-2.733 3.663-5.712 5.34-8.73l2.187-3.25c1.93-2.67 1.93-2.67 2.813-5.75h2l.75-2.688c1.317-3.491 2.907-5.439 5.25-8.313a329 329 0 0 0 3.75-5.625c3.912-5.923 8.022-11.675 12.25-17.375l1.605-2.312 1.395-1.688h2l.812-1.75c1.217-2.305 2.491-4.27 4.188-6.25h2l.687-1.687c3.342-5.887 9.387-9.878 14.594-14.032 3.52-2.953 6.667-6.194 9.86-9.492 4.912-5.04 9.957-9.908 15.859-13.789h2l.719-1.797c1.56-2.684 3.18-3.781 5.781-5.453l2.406-1.578c2.094-1.172 2.094-1.172 4.094-1.172v-2l3.062-1.687c2.716-1.54 5.239-3.21 7.75-5.063 3.188-2.25 3.188-2.25 5.188-2.25v-2l1.687-.883c4.846-2.603 9.179-5.45 13.516-8.824 2.14-1.54 4.285-2.508 6.797-3.293v-2q2.186-.755 4.375-1.5l2.46-.844c2.165-.656 2.165-.656 4.165-.656v-2q2.339-1.228 4.687-2.437l2.637-1.372c2.586-1.15 4.89-1.754 7.676-2.19v-2l1.953-.593c2.364-1.28 2.364-1.28 2.653-4.274l.152-3.653.103-1.984c.106-2.102.186-4.205.264-6.31q.178-4.104.383-8.206l.1-2.034c1.053-19.123 1.053-19.123 6.392-24.947l3-1 1-6c15.313-1.88 30.78-2.372 46.18-3.125q3.774-.185 7.547-.375l2.44-.122a434 434 0 0 0 14.13-.968c4.186-.34 8.14-.43 12.328.028 9.588.872 18.209.507 27.723-.997 4.982-.602 9.876-.543 14.886-.414 2.726.176 2.726.176 4.766-1.027a164 164 0 0 1 6.437 0c5.21.037 10.263-.168 15.44-.702C-31.694-.045-15.872.003 0 0" style="display:inline" transform="translate(189.628 14.004)scale(.29057)"/><path fill="#f96a01" d="m0 0 .049 1.676C.878 34.702.878 34.702 4 67.563 7.028 90.03 8.018 112.5 8.523 135.145l.064 2.82c.42 19.02.555 38.04.66 57.062l.024 4.523q.12 20.938.206 41.875.043 10.47.106 20.94.035 5.471.05 10.942c.044 15.614.473 31.022 2.16 46.553.49 5.074.544 10.171.645 15.265.3 10.417 1.364 20.515 3.189 30.77L16 368l.527 2.727c.563 3.9.835 7.766.905 11.697l.005 2.425c.038 1.71.115 3.43.15 5.14.09 4.427.059 8.843.167 13.269l.063 2.607c.325 13.155 3.222 30.812 2.78 39.166C21 448 21 448 21 452h2v2l11.839-.966L35 455l-7 1c-.26 10.79.18 21.425 1 32.188 1.622 22.323.84 42.714-3 64.812l-3 1 .105 2.668.082 3.52.106 3.48c-.325 3.693-1.294 5.274-3.293 8.332a147 147 0 0 0-1.812 6c-1.443 4.497-2.522 6.894-6.555 9.61-2.974 2.532-4.681 6.034-6.63 9.378-4.747 7.136-10.429 12.48-17.315 17.512a2554 2554 0 0 0-4.547 3.371l-2.182 1.62c-2.461 1.896-4.725 3.982-7.021 6.072-10.51 8.216-23.719 7.804-36.438 7.875l-3.94.03c-6.987-.064-12.192-.635-18.56-3.468-2.726-.809-5.484-1.468-8.25-2.125l-2.102-.512q-2.823-.685-5.648-1.363l-1.887-.643c-2.844-.48-4.78.227-7.531 1.061-6.712 1.788-12.98 1.995-19.894 1.894l-3.417.01c-8.362-.054-8.362-.054-12.592-1.301-4.232-1.174-8.132-1.466-12.5-1.654l-2.49-.126c-2.604-.13-5.209-.248-7.814-.366l-5.27-.261c-9.297-.495-9.297-.495-18.605-.614l-.664-2.5c-1.796-6.54-4.337-13.077-6.818-19.39-4.98-10.888-5.212-12.788-7.32-21.363-.499-1.927-.945-5.803-1.535-7.704-.886-3.416-1.056-7.98-.977-11.497l.012-3.159L-210 556h-3.002c-8.937-2.252-15.332-10.823-21.52-17.203-3.2-2.491-6.513-5.177-9.818-7.664-6.72-5.162-11.717-10.718-16.172-17.945-1.397-2.054-3.207-3.83-4.949-5.605-2.098-2.137-4.174-4.233-6.324-6.298-5.609-5.838-8.714-12.91-12.165-20.122-5.098-10.5-11.178-20.524-17.068-30.595-7.566-12.98-15.085-26.162-22.089-39.452-1.783-3.354-3.228-6.881-4.955-10.053-3.395-5.521-6.079-11.43-8.61-17.38-1.306-2.638-2.314-4.724-3.43-7.343C-347.67 361.462-353.135 344.2-357 328l3.988-.148 5.324-.227 2.612-.094c4.41-.196 8.581-.59 12.896-1.535 6.73-1.253 13.638-1.337 20.46-1.361 2.32-.008 4.442-.085 6.761-.108 3.24-.032 6.472-.052 9.71-.05.845.002 1.706-.047 2.553-.04.841.007 1.693.005 2.534-.001 3.387-.021 6.773-.083 10.154-.092 1.333-.004 2.661-.088 3.994-.08.983.008 1.946.014 2.932.004 2.258-.02 4.556-.103 6.814-.111 9.154-.067 17.897-1.095 26.792-2.984 1.294-.274 2.726-.282 4.087-.463.427-.056.853-.101 1.257-.214 3.97-.923 7.91-1.636 11.953-2.135 3.196-.923 2.769-1.578 5.485-2.207 8.2-4.643 24.859-1.015 33.694.846 3.153 1.098 6.086 2.373 9 4-5.886-9.725-14.194-17.348-22.867-24.55-1.695-1.512-1.695-1.512-4.133-4.45.35-4.193 1.544-8.064 2.813-12.062l1.082-3.458q1.05-3.31 2.117-6.617c1.641-5.17 3.122-10.307 4.284-15.61 1.947-8.866 4.637-17.361 7.564-25.952a680 680 0 0 0 6.828-21.176l.9-2.907c1.29-4.227 2.5-8.41 3.361-12.745 2.687-12.877 9.627-22.685 16.938-33.36 3.238-4.737 6.155-9.492 8.738-14.613a100.4 100.4 0 0 1 8.54-13.93c2.156-3.02 4.156-6.128 6.148-9.257C-121.781 104.827-111.47 90.586-99 77l3.293-3.68c6-6.643 11.809-12.594 19.27-17.636 2.283-1.578 4.27-3.246 6.312-5.121 4.773-4.289 10.095-7.779 15.39-11.38C-42.033 30.526-30.2 20.988-18.5 11.023-5.522 0-5.522 0 0 0" style="display:inline" transform="translate(129.078 41.947)scale(.29057)"/><path d="M0 0c-.116 7.804.099 15.505.713 23.285C2.536 46.047 3.963 69.65-2 92L-4 93l-.343 2.87c-.148 3.395-.27 6.753-.657 10.13-2.264 2.263-2.265 2.263-4.5 9.563a136 136 0 0 1-2.5 7.438c-3.478 1.739-3.477 1.738-9.183 10.261-5.12 7.85-10.54 13.504-18.118 19-1.91 1.379-3.744 2.776-5.532 4.31-13.63 12.142-24.798 14.665-42.857 14.795l-2.06.007c-5.33.02-11.43.886-16.36-1.317C-108 169-108 169-110.227 168.33l-2.397-.584-2.641-.65-2.736-.659-5.374-1.316-4.626-1.122c-2.597-.877-3.822-1.038-6.546-.452-6.575 1.993-12.545 2.818-19.408 2.814l-3.358-.048c-5.597.016-11.215.327-16.625-1.297-5.207-1.727-6.206-.728-46.06-2.017.622 5.312 2.742 9.419 4.023 14.61l.788 3.141c2.279 9.378 5.134 18.333 8.82 27.253 2.28 5.435 4.496 10.652 5.492 16.497.384 2.393.75 4.25 1.84 6.419 1.76 2.837 3.002 4.856 3.496 8.198.524 3.772 1.374 7.241 2.404 10.897l.697 2.424a2345 2345 0 0 0 2.439 8.561H-188c.772 3.923 1.556 7.727 2.874 11.505 2.518 6.628 4.634 13.319 6.626 20.122 1.846 6.356 3.813 12.459 6.598 18.47 2.271 4.799 4.528 9.506 5.352 14.783 1.01 8.343 3.917 14.134 8.55 21.121 3-1 3-1 4.848-2.645 13.315-13.033 31.7-25.068 49.09-31.855a83 83 0 0 0 4.061-1.5c3.068-3.067 5.943-5.36 10-7 5.84-.783 11.718-1.616 16.697 1.905C-71 308-71 308-69.113 309.098-49.97 325.354-49.97 325.354-36 347c3.223 4.754 6.239 9.424 10.376 13.438 6.647 6.982 6.645 6.982 12.623 14.562l2.177 2.895 2.074 2.73c2.078 2.816 3.042 4.147 6.395 5.227C0 386 0 385.999 1.438 384.749c1.531-1.93 1.53-1.93 4.125-3.034 3.357-1.675 6.507-3.523 9.701-5.483.781-.484 1.54-.95 2.3-1.419 3.15-1.93 6.298-3.864 9.436-5.814 14.07-8.988 28.864-16.482 44.237-22.995q4.098-1.72 8.183-3.47 3.865-1.658 7.74-3.297 1.983-.835 3.966-1.675l3.848-1.65c1.244-.523 2.452-1.029 3.659-1.534 4.36-1.847 7.619-2.747 12.367-2.377 13.257 4.418 23.896 16.638 32.375 27.311 1.742 2.265 3.468 4.506 5.348 6.66 2.576 2.857 5.04 5.708 7.329 8.806 3.892 5.37 7.833 10.344 12.573 14.972 3.312 3.196 6.428 6.4 9.374 9.937 1.563 1.95 1.564 1.95 3 3.313 4.47 0 4.471 0 12.501-7 2-1.803 3.977-3.32 6.22-4.825a230 230 0 0 0 9.201-6.45l2.08-1.539c4.152-3 7.937-5.925 11.257-9.854 1.548-1.897 3.022-3.602 4.796-5.302l1.822-1.53 2.077-1.77a354 354 0 0 0 5.671-4.918A80 80 0 0 1 241 356c4.062-2.123 7.685-4.175 11.004-7.365 5.146-6.415 5.145-6.415 3.68-33.605a503 503 0 0 1-.485-11.576c-.249-7.93-.593-15.85-1.003-23.771L254 276c-.31-6.002-.63-12.004-1-18.002-3.362 2.241-3.362 2.242-7.437 8.563-1.814 2.86-3.276 5.864-6.468 7.29L237 274l-2.786.395c-5.183.66-10.29 1.348-15.374 2.554-39.314 5.796-39.314 5.797-79.186 5.088l-2.653-.038c-17.4-.233-34.856-.33-52.215-1.638L82 280.125c-5.4-.456-10.706-1.23-16.048-2.148-6.542-1.128-13.075-2.163-19.668-2.953l-2.623-.306a2960 2960 0 0 0-10.598-1.218c-9.768-1.092-19.493-1.912-28.923-4.828a69 69 0 0 0-4.453-1.233A163 163 0 0 1-6.001 266l-2.998-2c-5.55-3.35-10.96-6.81-16.06-10.82l-1.629-1.306c-3.062-2.307-3.061-2.307-5.312-4.875-.528-2.665-.528-2.664 0-4.999 1.023-1.237 1.022-1.238 3.176-1.19l2.848-.09 3.092-.116 6.493-.21 3.1-.114c1.766-.057 3.531-.144 5.291-.28 2.937-1.12 2.937-1.119 5.917-1.189l3.56-.094 3.949-.108q5.292-.136 10.582-.299l2.105-.064c5.22-.157 10.437-.316 15.652-.574l2.047-.11c3.162-.163 6.219-.353 9.318-1.023 7.038-1.602 13.892-1.916 21.1-2.062 7.246-.14 14.493-.329 21.734-.656l3.77-.224c5.384-.318 8.52-.994 12.517-4.66 2.037-3.418 2.633-5.65 2.456-9.601-1.262-4.17-1.263-4.17-11.735-11.816-6.445-4.705-12.176-10.093-17.377-16.16-5.333-6.255-11.127-12.01-16.957-17.796q-1.77-1.758-3.538-3.518a9168 9168 0 0 0-6.749-6.72c-7.06-7.016-15.784-13.623-17.726-23.827q-.297-2.25-.626-4.5L31 134c-.913-6.663-2.783-12.503-5.157-18.759-.802-2.109-1.593-4.22-2.383-6.335Q22.731 106.952 22 105c-1.452-3.767-2.84-7.31-3.222-11.352-.3-5.075-.966-9.63-2.426-14.523-3.582-11.826-5.36-23.8-7.062-36.024L9 41H7c-.431-5.428-1.1-10.727-2.094-16.077C3.501 17.417 2.55 10.098 2.112 2.464L2 0Zm203 144.998c-2.537 5.203-5.308 10.168-9.249 14.438l-2.75 2.563c-4.085 4.35-7.877 8.651-13.187 11.499-16.643 8.623-29.5 20.263-41.062 35-2.085 2.86-2.907 4.266-6.34 5.214-2.41.285-2.41.285-4.722 1.348-1.961 2.25-1.961 2.25-2.063 6 .375 3.938.374 3.937 2.374 5.937 6.921 6.458 13.714 6.791 22.784 6.511q2.3-.073 4.6-.114a974 974 0 0 0 12.341-.256q5.417-.148 10.835-.249 6.938-.124 13.877-.27l2.687-.059c2.603-.057 5.206-.115 7.808-.183l2.388-.064c2.57-.056 5.112-.157 7.68-.315 3.061-1.167 3.062-1.166 6.375-1.374 3.825-.243 5.799-1.003 8.626-3.627 2.528-7.19 2.528-7.189 1.903-25.43q-.076-2.137-.141-4.275a1687 1687 0 0 0-.277-8.992c-.133-3.87-.261-7.74-.37-11.611q-.128-4.568-.272-9.136l-.14-4.345q-.06-2.113-.122-4.227l-.14-3.888c-.125-3.81.276-5.378-2.442-8.096-6.905-1.942-13.872-2.277-21-1.999" style="display:inline;fill:#fff;fill-opacity:1" transform="translate(136.923 175.9)scale(.29057)"/><path fill="#ef9900" d="m0 0 .049 1.676C.878 34.702.878 34.702 4 67.563 7.028 90.03 8.018 112.5 8.523 135.145l.064 2.82c.42 19.02.555 38.04.66 57.062l.024 4.523q.12 20.938.206 41.875.043 10.47.106 20.94.035 5.471.05 10.942c.044 15.614.473 31.022 2.16 46.553.49 5.074.544 10.171.645 15.265.215 7.76.768 15.233 2.125 22.875 2.116 11.928 1.715 23.93 1.437 36l-2.051-.838-2.707-1.096-2.676-1.087C5.78 389.917 3.046 389.14.14 388.5-2 388-2 388-4.391 387.25c-7.94-2.36-15.635-2.673-23.867-2.696-5.848-.106-9.013-.808-13.742-4.554-2.317-.722-4.648-1.4-7-2l-1-1c-1.38-.178-2.768-.3-4.156-.395l-2.602-.209a514 514 0 0 0-5.39-.382C-68.48 375.483-73.351 373.85-79 371l-3.5-1.5c-11.772-5.045-22.735-10.525-33.5-17.5-7.744-4.9-15.775-8.98-24-13l-2.04-1.187c-2.685-1.114-5.06-1.02-7.96-1.063-7.457-.482-12.585-3.118-19-6.75-7.653-4.109-14.872-7.539-23.422-9.379-3.214-.774-5.735-1.962-8.578-3.621l-.058-2.942c10.197-.188 17.835 2.352 27.058 6.942-7.834-9.901-15.002-17-22.867-24.55-1.696-1.512-1.696-1.512-4.133-4.45-1.079-5.34 1.544-8.064 2.813-12.062l1.082-3.458q1.05-3.31 2.117-6.617c1.641-5.17 3.122-10.307 4.284-15.609 1.947-8.867 4.637-17.362 7.564-25.953a680 680 0 0 0 6.827-21.176l.9-2.907c1.106-3.884 1.306-8.807 3.362-12.745.822-3.941.905-7.937 2.413-11.416 3.419-7.888 9.452-14.536 14.525-21.944 1.872-5.192 4.562-9.947 8.738-14.613a100.4 100.4 0 0 1 8.54-13.93c2.156-3.02 4.156-6.128 6.148-9.257 9.906-15.486 18.461-30.662 32.622-43.523l2.846-3.755c6-6.643 12.321-12.309 19.782-17.351 2.082-2.162 3.767-3.568 6.312-5.121 4.773-4.289 10.095-7.779 15.39-11.38C-42.033 30.526-30.2 20.988-18.5 11.023-5.522 0-5.522 0 0 0" style="display:inline" transform="translate(129.078 41.947)scale(.29057)"/><path fill="#010100" d="M0 0q3.165 0 6.328-.005 11.11-.015 22.22-.013 10.24-.001 20.48-.026 8.887-.02 17.776-.018 5.265.002 10.531-.013c19.954-.057 39.97.121 59.643 3.818 6.196.997 12.544 1.115 18.808 1.372 6.65.41 10.241 1.09 14.828 6.052a296 296 0 0 1-2 5l-.813 2.02c-2.1 4.996-4.647 9.263-7.734 13.707-1.901 2.974-3.261 6.067-4.594 9.328-.86 1.945-.86 1.945-2.86 4.945h-2c-.09.542-.182 1.083-.276 1.64-.944 3.082-2.523 5.418-4.286 8.11l-1.941 2.985-1.496 2.265 2.562-1.312c7.543-3.703 14.954-6.063 23.063-8.25q3.333-.904 6.664-1.817l2.96-.799c2.722-.765 2.722-.765 5.154-1.799 3.224-1.27 6.514-2.146 9.863-3.011l2.128-.556q3.427-.89 6.856-1.768l2.365-.61a587 587 0 0 1 38.51-8.516c3.219-.629 6.418-1.332 9.621-2.038 7.462-1.61 14.957-2.884 22.504-4.024l2.128-.322c16.48-2.47 32.996-4.09 49.622-5.178l2.025-.135a333.6 333.6 0 0 1 49.35.385l2.317.183c8.376.685 16.382 1.592 24.308 4.567l2.021.755c1.858.721 3.7 1.483 5.541 2.245 3.896 1.61 7.714 3.098 11.743 4.332 5.453 1.784 10.285 4.529 15.257 7.356l2.768 1.549q3.34 1.871 6.67 3.763c.22 6.814-.066 12.877-1.938 19.438l-.552 2.06q-.745 2.754-1.51 5.502a385 385 0 0 0-1 4h-2l-.813 3.313c-1.17 3.636-1.642 4.232-4.187 6.687a65 65 0 0 0-2.27 3.88l-1.245 2.277-1.298 2.406q-1.344 2.454-2.691 4.906l-1.305 2.379a206 206 0 0 1-10.254 16.652c-2.524 3.744-4.56 7.576-6.53 11.633-4.314 8.794-8.778 17.353-14.56 25.281-2.22 3.109-4.29 6.305-6.347 9.524l-1.155 1.803a938 938 0 0 0-5.298 8.388c-3.073 4.91-6.057 9.653-10.047 13.871h-2l-.742 1.711c-1.485 2.702-3.278 4.662-5.383 6.914-7.916 8.57-7.916 8.57-14.477 18.168l-1.398 2.207h-2l-.781 1.735c-1.333 2.477-2.87 4.4-4.719 6.515l-1.844 2.14c-1.656 1.61-1.656 1.61-3.656 1.61l-.766 1.64c-3.425 6.548-7.89 12.673-12.359 18.548-8.962 11.592-8.962 11.592-10.875 25.812 1.364 2.038 1.364 2.038 3.312 4 11.328 13.456 18.264 31.52 24.563 47.813a98 98 0 0 0 4.016 8.965c5.026 10.001 9.022 20.174 12.546 30.785l.652 1.945c3.232 9.701 6.36 19.18 5.911 29.492l2 1c.281 1.913.55 3.83.747 5.753.394 3.497 1.15 6.902 1.882 10.341l.947 4.625c.489 2.38.981 4.757 1.488 7.133 2.056 9.676 3.172 18.611 2.936 28.504 0 5.263.887 10.193 1.937 15.332q.56 2.985 1.106 5.972l.517 2.817c3.448 19.772 1.92 41.236-1.091 60.937-.497 3.802-.755 7.571-.969 11.399-.228 4.035-.515 7.783-1.563 11.687-1.643 6.318-1.09 13.027-.937 19.5h-2l.042 1.963c.422 35.773-7.984 77.284-25.042 109.037q-1.414 2.81-2.812 5.625l-1.547 3.063a266 266 0 0 0-3.344 7c-4.838 10.347-10.998 19.266-17.85 28.383-9.665 12.667-9.665 12.667-16.447 26.93h-2l-.75 2.187c-2.365 5.32-6.126 8.733-10.625 12.312l-2.937 2.36-2.688 2.14c-2.88 2.328-5.67 4.671-8.293 7.293-2.823 2.823-5.713 5.562-8.644 8.27l-1.697 1.568c-4.66 4.277-9.44 8.403-14.26 12.497-4.635 3.943-9.145 8-13.63 12.114-2.899 2.644-5.849 5.224-8.82 7.786-1.692 1.46-1.692 1.46-3.25 3.164-1.406 1.308-1.406 1.308-3.406 1.308v2a393 393 0 0 1-5 3l-2.187 2.188-1.813 1.812h-2v2c-1.68 1.373-1.68 1.373-4.016 2.934l-2.543 1.717-2.691 1.787q-2.603 1.747-5.203 3.496l-2.349 1.564a83 83 0 0 0-4.357 3.194c-1.841 1.308-1.841 1.308-3.841 1.308v2c-4.385 3-4.385 3-7 3v2c-1.312 1.625-1.312 1.625-3 3h-3v2a90 90 0 0 1-4.059 2.75c-2.183 1.406-4.272 2.918-6.378 4.438-8.808 6.153-17.776 11.819-27.75 15.875-10.223 4.178-18.751 10.78-27.536 17.37-2.277 1.567-2.277 1.567-5.277 2.567v2c-4.302 4.768-4.302 4.768-8 6v3a117 117 0 0 1-5 4l-1 2h-3l-.77 1.785c-3.362 6.053-10.547 10.465-16.23 14.215h-2v2l-3.062 1.688c-2.716 1.54-5.239 3.21-7.75 5.062-3.188 2.25-3.188 2.25-5.188 2.25v2l-5 1v2q-2.12 1.227-4.25 2.438l-2.39 1.37c-2.148 1.085-4.012 1.724-6.36 2.192v2c-1.42.974-2.847 1.94-4.302 2.863-2.17 1.453-4.089 3.157-6.035 4.894-19.912 17.712-19.912 17.712-30.288 18.056-5.437-.422-9.413-2.759-13.05-6.746q-1.337-1.74-2.637-3.504l-1.431-1.882a804 804 0 0 1-4.257-5.68q-1.215-1.604-2.43-3.204-5.324-7.043-10.444-14.234c-3.873-5.352-8.089-10.35-12.39-15.356-2.538-2.956-4.984-5.98-7.422-9.02-6.264-8.114-6.264-8.114-14.313-14.187v-2c-6.918.03-11.374 1.433-17.129 5.203-3.377 2.114-6.858 3.861-10.433 5.61a649 649 0 0 0-16.688 8.5l-2.085 1.103a648 648 0 0 0-12.009 6.565l-2.725 1.52q-2.628 1.47-5.244 2.958c-.8.446-1.598.893-2.421 1.354l-2.132 1.207c-2.362 1.085-4.576 1.564-7.134 1.98v2l-5 1v2q-1.934 1.007-3.875 2l-2.18 1.125c-1.945.875-1.945.875-3.945.875v2l-2.812 1.313c-2.791 1.477-4.048 2.536-6.188 4.687-4.918 3.396-9.608 4.486-15.508 4.824-6.984-2.31-11.581-12.055-15.554-17.824l-3.598-5.187-1.712-2.48a319 319 0 0 0-4.562-6.333c-2.066-3-2.066-3-2.066-5h-2l-1.625-3.093c-2.292-4.012-5.15-7.127-8.375-10.407-4.174-4.246-7.142-8.268-10-13.5a283 283 0 0 0-5-5c-5.633-6.898-5.633-6.898-7-11l-1.812-.875c-2.932-1.507-4.344-3.425-6.188-6.125v-3l-6-1-2 3a103 103 0 0 1-6.25 3.188c-5.915 2.835-11.6 5.937-17.218 9.323-2.758 1.628-4.264 2.49-7.532 2.49l-1 2c-2.18 1.288-2.18 1.288-4.875 2.624l-2.68 1.352c-2.445 1.023-2.445 1.023-5.445 1.023v2a418 418 0 0 1-3.812 2l-2.145 1.125c-2.043.875-2.043.875-5.043.875v2q-2.904 1.471-5.812 2.938l-3.27 1.652c-2.918 1.41-2.918 1.41-5.918 2.41l-1 2a155 155 0 0 1-4.762 2.707c-3.705 2.14-7.18 4.648-10.687 7.098-2.551 1.195-2.551 1.195-4.556.572-2.566-1.77-3.238-3.356-4.468-6.209l-1.287-2.92-1.302-3.06q-1.296-2.98-2.598-5.957l-1.145-2.675c-1.166-2.626-1.166-2.626-2.841-5.195-1.354-2.36-1.354-2.36-1.354-5.36h-2c-11.42-20.288-11.42-20.288-12-29h-2l-.805-2.852-1.07-3.774-1.055-3.726a174 174 0 0 0-2.203-6.985c-.867-2.664-.867-2.664-.867-4.664h-2l-.411-1.68c-.624-2.526-1.263-5.048-1.901-7.57l-.647-2.644-.654-2.559-.587-2.348c-.708-2.277-.708-2.277-2.295-4.189-1.677-2.24-2.268-4.016-2.97-6.713l-.736-2.723-.736-2.824c-1.564-5.994-3.234-11.437-6.15-16.913-1.4-2.819-2.173-5.74-2.975-8.774-1.066-3.922-2.143-7.794-3.5-11.625-1.209-3.502-2.032-7.005-2.813-10.625-1.329-5.977-3.237-11.585-5.363-17.32-1.62-4.485-2.985-9.03-4.356-13.594q-1.134-3.621-2.531-7.149c-1.023-2.79-1.73-5.189-2.312-8.062-.711-3.465-1.735-6.635-3-9.938-3.151-8.433-4.901-16.946-5.938-25.875-.76-6.087-1.973-11.934-3.5-17.875l-.597-2.39c-1.36-5.09-3.324-9.098-6.028-13.61v-2h-2v-2l-1.75-.812c-2.25-1.188-2.25-1.188-4.062-2.625-2.288-1.634-4.604-2.558-7.192-3.621-6.219-2.933-11.228-7.051-15.996-11.942a213 213 0 0 0-6.426-4.668l-1.574-1.332v-2l-2.238-.808c-10.071-4.345-20.334-14.407-26.762-23.192v-2h-2c-1.31-1.51-1.31-1.51-2.793-3.62l-1.65-2.323-1.744-2.494-3.555-4.996-1.718-2.418c-2.73-3.81-5.608-7.493-8.54-11.149l-1.879-2.367q-3.05-3.826-6.121-7.633l-2.262-2.832c-3.946-4.897-7.908-9.548-12.523-13.828-1.215-1.34-1.215-1.34-1.215-3.34l-1.79-.722c-7.255-4.193-11.46-15.038-15.272-22.215l-1.487-2.764q-1.48-2.753-2.955-5.51c-2.96-5.519-5.972-11.011-8.985-16.502q-4.65-8.49-9.198-17.037l-1.154-2.149c-3.508-6.6-6.388-12.543-7.159-20.1h-2l-3-14h-2c-4.866-12.27-4.866-12.27-6.562-18.313-1.57-5.464-3.851-10.369-7.063-15.063-2.598-4.96-3.414-10.5-3.312-16.062-.08-4.483-.723-12.223-4.063-15.563-.127-2.43-.185-4.819-.187-7.25l-.038-2.027c-.011-4.03.448-7.098 2.225-10.723h2v-2c1.793-1.437 1.793-1.437 4.188-3l2.355-1.562c9.723-5.689 20.878-5.722 31.844-6.008 3.975-.13 7.666-.328 11.508-1.398 29.789-8.29 76.526-6.618 106.84-.008 4.826.994 9.563 1.31 14.478 1.558 13.035.665 25.006 2.528 36.787 8.418l.078-1.95c.414-6.587 1.77-12.323 3.84-18.577 1.106-3.55 1.908-7.092 2.707-10.723 2.496-10.745 7.032-20.82 11.234-30.982 3.19-7.74 6.147-15.48 8.45-23.534.99-3.201 2.3-6.187 3.691-9.234h2l.812-2.75c1.188-3.25 1.188-3.25 2.579-5.086 2.542-3.418 4.175-7.264 6.011-11.094 1.598-3.07 1.598-3.07 3.578-6.023 2.125-3.205 3.748-6.45 5.395-9.922 2.351-4.849 4.906-9.19 8.285-13.394 2.116-2.733 3.663-5.712 5.34-8.73l2.187-3.25c1.93-2.67 1.93-2.67 2.813-5.75h2l.75-2.688c1.317-3.491 2.907-5.439 5.25-8.313a329 329 0 0 0 3.75-5.625c3.912-5.923 8.022-11.675 12.25-17.375l1.605-2.312 1.395-1.688h2l.812-1.75c1.217-2.305 2.491-4.27 4.188-6.25h2l.687-1.687c3.342-5.887 9.387-9.878 14.594-14.032 3.52-2.953 6.667-6.194 9.86-9.492 4.912-5.04 9.957-9.908 15.859-13.789h2l.719-1.797c1.56-2.684 3.18-3.781 5.781-5.453l2.406-1.578c2.094-1.172 2.094-1.172 4.094-1.172v-2l3.062-1.687c2.716-1.54 5.239-3.21 7.75-5.063 3.188-2.25 3.188-2.25 5.188-2.25v-2l1.687-.883c4.846-2.603 9.179-5.45 13.516-8.824 2.14-1.54 4.285-2.508 6.797-3.293v-2q2.186-.754 4.375-1.5l2.46-.844c2.165-.656 2.165-.656 4.165-.656v-2q2.34-1.228 4.687-2.437l2.637-1.372c2.586-1.15 4.89-1.754 7.676-2.19v-2l1.953-.593c2.364-1.28 2.364-1.28 2.653-4.274l.152-3.653.103-1.984c.106-2.102.186-4.205.264-6.31q.178-4.104.383-8.206l.1-2.034c1.053-19.123 1.053-19.123 6.392-24.947l3-1 1-6c15.313-1.88 30.78-2.372 46.18-3.125q3.774-.184 7.547-.375l2.44-.122a434 434 0 0 0 14.13-.968c4.186-.34 8.14-.43 12.328.028 9.588.872 18.209.507 27.723-.997 4.982-.602 9.876-.543 14.886-.414 2.726.176 2.726.176 4.766-1.027a164 164 0 0 1 6.437 0c5.21.037 10.263-.168 15.44-.702C-31.694-.045-15.872.003 0 0m119.13 29.57-2.47.127-5.164.27q-3.914.205-7.827.401l-5.04.264-2.33.117c-3.643.196-7.242.472-10.861.932-4.827.544-9.58.607-14.433.568l-2.773-.01q-2.961-.01-5.922-.027-4.716-.026-9.433-.036-13.402-.038-26.806-.105a5411 5411 0 0 0-16.448-.055q-3.103-.009-6.206-.03c-11.923-.08-23.588.33-35.437 1.712-6.666.766-13.349.888-20.054 1.032-7.827.19-15.632.434-23.445.945-6.41.412-12.8.595-19.223.668l-2.683.036c-3.631.049-7.263.096-10.894.114-10.103.059-18.732.576-28.401 3.759-7.83 1.955-16.012 1.602-24.041 1.665q-2.722.042-5.445.09c-4.393.076-8.786.12-13.18.16l.416 3.017c1.49 11.328 1.984 22.533 2.182 33.948l.118 5.563c.104 4.82.198 9.641.29 14.462q.224 11.65.473 23.3.082 4.056.154 8.113l.102 4.929.036 2.277c.024 3.823.024 3.823 1.229 7.391.145 1.873.227 3.751.281 5.63l.111 3.732.108 4.2q.06 2.245.123 4.488c.712 26.864 1.064 53.739 1.502 80.608q.153 9.357.315 18.714.06 3.51.114 7.022c.177 11.216.413 22.404 1.099 33.6.375 6.15.513 12.28.558 18.44l.08 6.829.04 3.544c.273 22.753 1.09 45.404 2.653 68.105 1.24 18.265 1.129 36.26.374 54.546-.509 13.056-.432 26.104-.358 39.167.08 14.178.113 28.35-.313 42.524l-.068 3.23-.107 2.955-.08 2.595c-.432 2.071-.432 2.071-3.432 4.071-2.387.295-4.786.493-7.188.625l-3.855.227-2.957.148v-2h-2l-.184-2.886-.254-3.801c-.08-1.242-.162-2.483-.246-3.762-.234-3.386-.234-3.386-.82-6.016-.676-3.454-.832-6.902-.996-10.41l-.125-2.495c-.295-6.422-.456-12.844-.59-19.27l-.056-2.594q-.144-6.516-.249-13.03c-.154-8.144-.517-15.793-2.48-23.736-1.764-10.515-2.32-20.983-2.57-31.633-.138-4.96-.351-9.867-.888-14.8-1.67-15.457-1.872-30.853-1.914-46.384-.012-3.695-.036-7.391-.059-11.087q-.06-10.523-.102-21.044c-.057-13.922-.13-27.844-.208-41.766l-.025-4.516c-.106-19.211-.275-38.418-.71-57.625l-.06-2.676c-.531-23.103-1.9-45.91-4.994-68.829-2.699-21.065-2.85-42.433-3.47-63.64-9.656 1.689-17.162 9.933-24.38 16.215a292 292 0 0 1-31.71 23.82c-7.458 5.036-14.556 10.661-21.305 16.61-1.807 1.526-3.691 2.904-5.605 4.293-6.133 4.549-11.107 10.077-16.063 15.851a182 182 0 0 1-4.25 4.672c-8.83 9.41-16.023 19.71-22.851 30.64-2.18 3.443-4.441 6.827-6.711 10.212-9.29 13.753-9.29 13.753-17.563 28.125-3.299 6.29-7.131 12.101-11.132 17.957l-1.206 1.8a121 121 0 0 1-2.518 3.574c-4.13 5.958-5.567 12.304-7.206 19.294q-.897 3.636-1.805 7.27l-.874 3.502c-1.602 6.174-3.686 12.156-5.821 18.165-2.714 7.938-5.316 15.891-7.688 23.938l-.613 2.077a290 290 0 0 0-3.148 11.782c-1.126 4.5-2.342 8.975-3.551 13.453-.26.98-.52 1.96-.79 2.969-.254.944-.51 1.887-.773 2.86l-.691 2.575c-.746 2.346-.746 2.346-1.839 4.503-1.091 1.86-1.091 1.86-.86 4.25 1.285 3.496 3.537 5.608 6.203 8.093l1.45 1.395q2.145 2.059 4.3 4.105 2.505 2.495 5 5l2.168 2.098 2.02 1.965 2.042 1.972c1.721 1.911 2.75 3.619 3.77 5.965l-1.442-.804c-11.363-5.734-25.974-6.374-38.558-5.196-2.142.798-3.83 1.767-5.754 2.985-4.453 2.013-9.572 2.078-14.395 2.582a78 78 0 0 0-10.761 1.968c-5.43 1.208-10.77 1.596-16.32 1.639l-2.077.02q-2.216.021-4.431.036-3.522.026-7.043.065-10.005.105-20.012.182a3441 3441 0 0 0-12.279.12q-2.322.024-4.645.037c-7.776.044-15.292.225-22.928 1.902-4.304.849-8.667.932-13.043 1.09l-2.74.116q-3.284.138-6.572.258l.564 1.646c1.328 3.923 2.603 7.847 3.725 11.835 5.072 17.974 12.072 34.97 20.71 51.52a1849 1849 0 0 1 3.126 6.312c4.688 9.5 10.108 18.62 15.414 27.783 2.426 4.221 4.763 8.448 6.902 12.822 3.385 6.88 7.379 13.401 11.3 19.985 4.069 6.893 7.758 13.9 11.259 21.097 5.138 10.482 10.445 18.673 18.914 26.848 3.094 2.992 5.578 5.785 7.836 9.465 5.25 8.218 13.312 14.045 21.012 19.843 2.571 2.119 4.81 4.437 7.113 6.844 4.798 4.911 9.972 8.908 16.125 12h3l-.176 1.922c-.781 16.164 5.26 35.012 12.238 49.516 2.074 4.453 3.164 9.084 4.295 13.84 1.418 5.932 3.026 11.797 4.705 17.66l.744 2.616q2.086 7.248 4.509 14.39c.943 2.832 1.78 5.693 2.622 8.556 1.163 3.83 2.407 7.45 4.125 11.063 2.083 4.401 3.118 8.89 4.13 13.64.863 2.987 2.204 5.15 3.808 7.797.66 2.36.66 2.36 1.062 4.75l.473 2.625.465 2.625c1.043 5.124 2.23 10.069 4 15h2l.754 3.754c1.306 5.873 3.234 11.499 5.183 17.184 2.247 6.596 4.451 13.182 6.366 19.884.713 2.23 1.59 4.305 2.572 6.428 7.181 15.611 7.181 15.611 7.5 22.875.977 6.058 4.358 10.758 7.625 15.875 3.296-1.435 5.35-3.215 7.875-5.75 13.655-12.54 32.2-23.227 49.297-30.383 2.604-1.235 4.65-3 6.828-4.867 5.373-3.382 11.928-2.888 18-2 2.721 1.433 4.708 2.974 6.937 5.078 2.095 2.062 2.095 2.062 4.989 3.828 9.566 6.515 16.104 16.711 22.441 26.188 6.239 9.328 13.164 18 20.785 26.23a161 161 0 0 1 13.219 16.426c1.578 2.305 1.578 2.305 3.629 4.25 3.242-.175 4.78-.821 7.312-2.879 3.496-2.759 7.236-4.408 11.262-6.265 2.927-1.585 5.478-3.26 8.176-5.192 4.998-3.559 10.16-6.576 15.562-9.476l2.884-1.556c17.46-9.335 35.464-17.2 53.804-24.632l2.823-1.157 2.696-1.097 2.398-.978c4.803-1.77 8.08-.974 12.645.982 6.592 3.49 11.711 8.647 16.988 13.831a211 211 0 0 0 3.704 3.52c4.546 4.318 8.336 9.117 12.1 14.113a162 162 0 0 0 9.029 10.919c1.671 1.93 3.166 3.937 4.68 5.992 3.945 5.179 8.574 9.644 13.226 14.178l1.797 1.756 1.626 1.572c1.288 1.37 1.288 1.37 2.288 3.37 7.674-1.345 14.218-8.163 20-13a582 582 0 0 1 5.375-3.938l2.883-2.09a442 442 0 0 1 4.984-3.54c4.297-3.067 7.592-6.383 10.98-10.425 2.962-3.345 6.37-6.133 9.778-9.008a529 529 0 0 0 5.605-4.993c2.395-2.007 2.395-2.007 5.4-4.02 6.452-4.519 6.452-4.519 10.019-11.382.282-3.98.2-7.85-.036-11.824q-.064-2.2-.111-4.401c-.099-3.85-.27-7.693-.458-11.54-.175-3.856-.28-7.715-.39-11.574a1314 1314 0 0 0-2.03-43.266c-3.309 3.235-5.904 6.238-8.312 10.188-2.4 3.463-3.276 4.639-7.25 6.312a89 89 0 0 1-4.437.5q-3.282.46-6.563.938l-3.714.496c-3.507.533-6.894 1.27-10.348 2.066-23.75 4.784-48.63 3.841-72.744 3.533q-3.998-.048-7.994-.091c-28.003-.328-55.38-1.942-83.066-6.46-7.774-1.26-15.551-2.165-23.384-2.982-8.882-.948-16.792-2.379-25.187-5.5l-3.688-.875c-10.228-3.474-20.679-11.491-28.312-19.125-.125-2.5-.125-2.5 0-5 1.668-1.668 3.731-1.207 6.023-1.281l3.094-.113 3.258-.106q3.168-.104 6.336-.219l2.853-.091c2.575-.102 2.575-.102 5.436-1.19q3.236-.204 6.476-.281l3.949-.111 2.08-.053c3.537-.091 7.072-.2 10.608-.309l2.095-.063c5.205-.159 10.405-.343 15.604-.62l3.582-.184c2.828-.297 5.348-.752 8.102-1.379 6.858-1.433 13.773-1.426 20.754-1.562 19.079 1.139 19.079 1.139 35.75-5.438 2.287-3.43 2.902-5.327 2.836-9.394-2.266-7.062-10.935-12.3-16.774-16.48-3.902-2.81-7.233-6.11-10.625-9.5l-1.607-1.606a170 170 0 0 1-8.068-8.766c-4.537-5.235-9.469-10.068-14.387-14.941l-2.813-2.8-5.178-5.144c-13.742-13.65-13.742-13.65-13.947-20.681.067-2.814.172-4.185 1.91-6.418 2.858-2.196 5.565-2.408 9.04-2.516l2.595-.1q2.676-.09 5.352-.171l2.615-.104 2.354-.076c2.963-.333 5.735-1.086 8.615-1.837 3.257-.728 6.48-.854 9.808-.993l4.38-.213q3.375-.15 6.75-.289c8.923-.378 17.22-1.247 25.95-3.296 4.77-1.008 9.455-1.244 14.319-1.362l3.043-.1c12.609-.364 25.22-.38 37.832-.213l2.696.022c10.492.124 21.496.975 29.554 8.54 2.878 5.654 2.94 11.695 1.016 17.747-.96 2.017-2.033 3.83-3.266 5.691l-1.098 1.797c-3.215 4.927-7.385 8.495-11.902 12.203L.837 727.62c-3.346 2.79-6.996 4.677-10.848 6.672-7.953 4.306-14.029 9.494-20.375 15.875q-1.466 1.418-2.938 2.828c-4.316 4.18-8.327 8.373-11.875 13.235-2.692 3.629-4.646 5.008-9.187 5.937l-3 2c-.68 5.479-.68 5.479 1.562 10.25l2.438 1.75 2.656 2.09c6.081 3.406 13.524 2.36 20.281 2.223l4.72-.05c4.221-.047 8.441-.123 12.661-.209q4.125-.082 8.25-.153 8.28-.152 16.557-.338l2.682-.059q3.757-.086 7.513-.187l2.274-.051c3.83-.052 3.83-.052 7.406-1.266 2.235-.233 4.468-.38 6.71-.523 2.857-.595 4.155-1.489 6.29-3.477 2.832-8.232 2.158-17.461 1.828-26.027l-.129-4.064q-.173-5.353-.372-10.705c-.1-2.773-.189-5.546-.277-8.32-.413-12.929-.871-25.853-1.573-38.77-1.727-32.438-1.683-64.833-1.556-97.304.042-10.935.07-21.87.092-32.806q.01-5.11.031-10.22.024-5.648.038-11.294l.02-3.31c.01-6.233-.3-12.359-.871-18.566-.258-2.912-.374-5.803-.405-8.727l-.04-3.146-.032-3.268-.1-7.088q-.072-5.496-.13-10.992-.063-5.366-.145-10.733l-.026-3.261c-.241-16.86-.241-16.86-9.002-30.504-3.125-2.518-5.365-3.354-9.351-3.895l-2.68-.504c-5.09-.945-10.023-1.545-15.195-1.746-9.748-.705-18.148-5.393-26.125-10.75l-3.043-1.492c-8.042-4.1-14.612-10.971-20.84-17.398-1.976-1.97-4.021-3.72-6.18-5.485-9.129-7.933-17.375-20.674-19.488-32.78q-.195-2.744-.281-5.493c-.248-3.47-1.718-6.22-3.168-9.352-1.724-5.92-2.359-11.666-2.313-17.812l.017-2.452c.28-14.359 1.962-27.205 9.296-39.736q1.32-2.87 2.625-5.75c5.189-10.364 12.643-20.955 21.95-27.988 1.72-1.31 1.72-1.31 2.425-4.262l2.062-.812c2.788-1.127 4.478-2.284 6.813-4.125 3.541-2.735 6.946-4.406 11.125-6.063q2.415-1.2 4.812-2.437c7.964-3.982 14.735-6.948 23.743-7.29 2.433-.117 2.433-.117 4.303-1.273 2.464-1.15 4.144-1.258 6.853-1.265l2.753-.013 2.91.028 2.992.02c17.243.243 30.462 3.333 44.275 13.793a62 62 0 0 0 7.039 4.566c14.014 7.898 22.46 23.894 29.32 37.934a95.4 95.4 0 0 0 7.605 12.902c8.194 11.958 9.032 27.862 8.395 42.035q-.495 2.002-1 4c-.116 2.04-.175 4.083-.188 6.125-.02 1.582-.02 1.582-.043 3.196-.046 2.832-.046 2.832 2.23 4.68 2.586.311 2.586.311 5.61.265l3.459.012 3.682-.028 3.715-.014c8.823-.088 17.754-.243 26.29-2.752 2.91-.627 5.686-.687 8.663-.765l2.004-.054c2.255-.06 4.51-.112 6.765-.165l4.869-.127c10.793-.27 21.587-.423 32.383-.53q3.288-.035 6.574-.072l2.203-.025 4.417-.05q6.579-.075 13.158-.112c2.788-.02 5.576-.052 8.363-.086 1.925-.02 3.85-.026 5.774-.031 7.21-.102 13.3-.995 20.072-3.467 5.61-1.739 11.143-2.761 16.937-3.625l2.65-.406q3.206-.489 6.413-.969c.226-5.92-.443-10.775-2.125-16.437-.225-.773-.45-1.546-.68-2.342a560 560 0 0 0-2.195-7.22l-.713-2.325c-2.575-8.255-5.222-15.436-10.564-22.352-1.872-2.525-3.318-5.108-4.786-7.886a121 121 0 0 0-7.375-12.114 125 125 0 0 1-3.25-5.117c-3.616-6.118-3.616-6.118-8.75-10.894-5.479-4.211-7.802-11.314-10.653-17.413-1.787-3.734-3.854-7.309-5.91-10.9l7.688 3.813 2.186 1.08c3.071 1.528 6.043 3.055 8.959 4.869 2.186 1.486 2.186 1.486 5.168 1.238l3-5 .812-2.238c2.604-6.741 5.7-12.125 10.075-17.852 6.477-8.92 11.291-19.036 16.113-28.91q1.061-2.063 2.125-4.125c1.397-2.782 2.57-5.594 3.687-8.5 2.607-6.677 5.928-13 9.188-19.375 2.176-4.278 4.237-8.533 6-13l3-6c7.299-15.042 9-21 9-21l.988-2.816c4.004-11.327 4.004-11.327 5.824-15.309 1.442-2.973 1.442-2.973 1.188-6.875-12.92-4.586-26.05-7.115-39.527-9.507-2.473-.493-2.473-.493-5.473-1.493a120 120 0 0 0-5.316-.341l-3.303-.153-3.588-.154-7.6-.36a5176 5176 0 0 0-11.918-.539c-25.258-1.121-25.258-1.121-37.494-3.015-12.457-1.916-24.888-1.965-37.469-2.063q-5.19-.054-10.377-.122-3.192-.041-6.384-.064l-2.878-.031-2.524-.02-5.15-1.138s-6.123.096-9.187.25l-2.502.082c-5.651.276-10.132 1.455-15.31 3.668q-3.59 1.323-7.188 2.625l-3.543 1.29c-4.33 1.437-8.335 2.241-12.894 2.335l-2.29.078c-2.591-.407-3.443-1.34-5.085-3.328l.86-2.136a398 398 0 0 0 2.218-5.696c2.232-5.678 4.547-10.38 8.387-15.113 2.405-3.22 4.153-6.762 6.011-10.316 1.476-2.652 3.118-5.035 4.899-7.489 2.63-3.851 3.478-6.51 2.625-11.25-1.044-2.044-1.044-2.044-3-3-4.492-.197-8.998.168-13.485.403" style="display:inline" transform="translate(189.628 14.004)scale(.29057)"/><path fill="#37bdf0" d="M0 0c2.123 4.641 3.571 8.901 4.563 13.938.721 3.615 1.466 7.17 2.43 10.73 1.39 5.493 1.954 11.083 2.57 16.707l.396 3.555c.99 9.402 1.486 18.777 1.662 28.228.113 4.876.414 9.487 1.371 14.276 1.236 6.197 1.418 12.324 1.57 18.629q.09 3.33.192 6.66l.072 2.93c.026 2.368.026 2.368 1.174 4.347 1.274 23.399-1.21 47.47-3.255 70.781q-.18 2.073-.35 4.148c-.16 1.918-.337 3.834-.516 5.75l-.295 3.274c-.656 3.42-1.958 5.982-3.584 9.047-.675 3.105-.675 3.105-1 6.375C4.783 236.64.766 252.863-5.535 269.113a154 154 0 0 0-2.813 8.008c-2.076 6.31-4.577 12.457-7.027 18.629l-2.836 7.172-1.411 3.562a831 831 0 0 0-3.944 10.325c-2.05 5.336-4.325 10.451-6.997 15.504l-1.287 2.438c-4.161 7.647-9.233 14.378-14.591 21.21-3.278 4.287-6.315 8.75-9.375 13.194-4.037 5.803-8.273 11.498-13.746 16.033-3.791 3.227-7.469 6.56-11.126 9.937l-1.656 1.524c-3.295 3.046-6.485 6.175-9.656 9.351-6.053 5.732-12.15 11.247-18.809 16.273-2.4 1.891-4.63 3.908-6.878 5.977-12.013 10.947-25.097 20.291-39.063 28.563-10.205 6.048-19.954 12.397-28.875 20.25-5.418 4.493-11.746 6.975-18.245 9.529-5.247 2.158-8.435 4.313-11.9 8.822-1.467 1.892-3.07 3.178-5.042 4.524-2.992 2.137-5.725 4.392-8.438 6.875C-243.84 520-243.84 520-247 520a344 344 0 0 1-1.281-25.309l-.056-3.418q-.086-5.355-.163-10.71-.104-7.03-.219-14.06l-.055-3.455a570 570 0 0 0-.984-24.925c-.29-5.217.011-9.952.758-15.123q.17-2.841.246-5.687l.1-3.122q.09-3.144.172-6.289c.192-5.847.673-11.523 1.505-17.316 1.416-10.294 1.236-20.59 1.165-30.961l-.024-6.33a2639 2639 0 0 0-.539-42.045l-.046-2.532-.047-2.462-.039-2.123c-.187-6.334-.493-12.593-1.233-18.889-1.415-12.197-1.502-24.273-1.42-36.537l.016-6.508q.021-8.47.065-16.94.063-13.609.096-27.218.016-4.72.045-9.44l.02-5.809.02-2.612a113 113 0 0 0-.87-14.095c-.333-2.987-.396-5.954-.437-8.958l-.06-3.899-.052-4.162-.064-4.397c-.115-7.926-.202-15.852-.286-23.779-.01-.798-.017-1.596-.026-2.418l-.026-2.414-.025-2.407-.05-4.804c-.09-8.828-.229-17.648-.545-26.472-.138-3.898-.238-7.797-.332-11.697a224 224 0 0 0-.216-5.177c-.674-12.726-.674-12.726 3.204-17.136 2.804-2.036 5.647-3.703 8.683-5.365 1.932-1.62 3.523-3.337 5.25-5.187 4.385-4.532 8.632-8.176 14.25-11.126 7.238-4.885 11.768-12.509 15.11-20.402L-204 3q3.938-.04 7.875-.062l2.262-.026c5.636-.025 5.636-.025 7.863 1.088 2.235.223 4.477.39 6.719.527l2.035.126c41.87 2.494 85.52 4.222 127.02-2.61C-33.682-.59-16.704-.155 0 0" style="display:inline" transform="translate(282.789 124.469)scale(.29057)"/><path fill="#179ade" d="M0 0h1a78.4 78.4 0 0 1 1.281 11.984l.114 3.332.21 6.914.114 3.317.092 3.026C2.848 31.01 2.848 31.01 4 33 5.274 56.399 2.79 80.47.745 103.781q-.18 2.073-.35 4.148c-.16 1.918-.337 3.834-.516 5.75l-.295 3.274c-.656 3.42-1.958 5.982-3.584 9.047-.675 3.105-.675 3.105-1 6.375-2.217 17.265-6.234 33.488-12.535 49.738a154 154 0 0 0-2.813 8.008c-2.076 6.31-4.577 12.457-7.027 18.629l-2.836 7.172-1.411 3.562a831 831 0 0 0-3.944 10.325c-2.05 5.336-4.325 10.451-6.996 15.504l-1.288 2.438c-4.161 7.647-9.233 14.378-14.591 21.21-3.278 4.287-6.315 8.75-9.375 13.194-4.037 5.803-8.273 11.498-13.746 16.033-3.791 3.227-7.469 6.56-11.126 9.937l-1.656 1.524c-3.295 3.046-6.485 6.175-9.656 9.351-6.053 5.732-12.15 11.247-18.809 16.273-2.4 1.891-4.63 3.908-6.878 5.977-12.013 10.947-25.097 20.291-39.063 28.563-10.205 6.048-19.954 12.397-28.875 20.25-5.418 4.493-11.746 6.975-18.245 9.529-5.247 2.158-8.435 4.313-11.9 8.822-1.467 1.892-3.07 3.178-5.042 4.524-2.992 2.137-5.725 4.392-8.438 6.875C-255.84 433-255.84 433-259 433a344 344 0 0 1-1.281-25.309l-.056-3.418q-.086-5.355-.163-10.71-.104-7.03-.219-14.06l-.055-3.455a570 570 0 0 0-.984-24.925c-.29-5.217.011-9.952.758-15.123q.17-2.841.246-5.687l.1-3.122q.09-3.144.172-6.289c.19-5.788.661-11.413 1.493-17.146 1.227-9.208 1.244-18.325 1.184-27.6q-.006-2.622-.009-5.245a4331 4331 0 0 0-.05-13.631c-.02-4.66-.029-9.32-.039-13.98q-.033-13.65-.097-27.3l1.858-.184 2.446-.253 2.422-.247c2.904-.404 5.509-1.354 8.274-2.316l3.175-.219c4.941-1.01 7.92-3.284 11.887-6.281 8.174-6.14 8.174-6.14 13.938-6.5v-2l2.167-1.031c5.63-2.738 11.032-5.636 16.333-8.969 3.887-2.438 7.742-4.693 11.875-6.687 12.368-6.003 24.254-13.096 36.062-20.125 4.324-2.55 8.745-4.795 13.25-7 17.102-8.336 17.102-8.336 31.965-20.008C-101 133-101 133-99 133v-2a139 139 0 0 1 6.313-4.5c10.489-7.35 18.634-14.925 25.714-25.618C-63.118 95.07-58.837 90.03-54 85q3.975-4.181 7.938-8.375l2.1-2.222c11.824-12.565 22.887-25.775 29.032-42.102 1.077-2.665 2.446-5.004 3.934-7.453 1.206-2.237 2.05-4.53 2.933-6.91 1.229-3.227 2.399-5.598 4.75-8.126C-.578 6.487-.254 4.237 0 0" style="display:inline" transform="translate(286.276 149.748)scale(.29057)"/><path fill="#040302" d="m0 0 2.707-.049c5.57-.004 9.503.757 14.543 3.362l3.07 1.507c21.978 11.635 21.978 11.635 23.93 17.493l3 1a259 259 0 0 1 3 5 160 160 0 0 0 2.938 3.312c3.703 4.22 7.062 8.936 7.062 14.688l1.906.746c2.596 1.554 2.824 2.444 3.594 5.316.873 3.175 1.99 6.08 3.36 9.066 9.572 21.31 10.208 42.002 9.14 64.872l-.152 3.76-.192 3.474-.162 3.022c-.566 3.144-1.758 5.088-3.494 7.744a147 147 0 0 0-1.812 6c-1.443 4.496-2.522 6.893-6.555 9.609-2.974 2.533-4.681 6.035-6.63 9.379-4.747 7.136-10.429 12.479-17.315 17.512a2554 2554 0 0 0-4.547 3.37l-2.182 1.621c-2.461 1.895-4.725 3.981-7.022 6.071-10.508 8.216-23.718 7.804-36.437 7.875l-3.94.031c-6.99-.065-12.186-.647-18.56-3.469-3.416-.959-6.886-1.7-10.352-2.46-3.928-.919-6.552-1.987-9.648-4.54a79 79 0 0 0-4.562-1.75c-19.561-7.576-30.597-23.21-41.438-40.25l-1.123-1.721c-15.485-24.125-15.45-54.596-10.266-82.187 1.505-6.836 3.02-12.526 7.389-18.092l2-1a463 463 0 0 0 2.817-5.007c2.037-3.432 4.533-6.472 7.058-9.555l1.697-2.077A224 224 0 0 1-74.25 19.437l1.742-1.783c3.088-3.054 5.554-4.972 9.758-6.342l2.562-1.875c9.297-6.174 19.068-6.62 29.9-6.797 4.817-.091 9.35-.393 14.081-1.331C-10.766.23-5.537-.021 0 0" style="display:inline" transform="translate(113.315 166.22)scale(.29057)"/><path fill="#fbfbfb" d="M0 0c16.387-.368 33.53 10.204 45.112 21.122 10.23 10.93 19.331 27.941 19.824 42.949l.164 3.308c.164 6.568-.276 13.043-.976 19.567l-.212 2.089c-1.759 14.552-9.732 27.901-19.976 38.036l-1.953 1.992a399 399 0 0 1-5.047 5.008q-1.44 1.435-2.875 2.875c-3.83 3.83-6.68 3.302-11.988 3.328l-2.734.017q-2.881.014-5.763.02c-2.902.01-5.803.04-8.704.072-24.171.141-24.171.141-29.552-4.795l-1.384-1.517a276 276 0 0 0-6.5-4.125c-9.886-6.259-18.7-12.483-24.5-22.875l-1.55-2.73c-2.966-5.336-5.879-10.73-8.45-16.27l-1.09-2.324c-3-8.824-.854-19.942.215-29.051l.28-2.771c.788-6.005 2.538-9.93 6.107-14.809 1.99-2.733 3.463-5.658 4.988-8.67C-49.02 16.296-36.74 6.769-21.52 1.887-14.42.211-7.266.25 0 0" style="display:inline" transform="translate(109.628 176.17)scale(.29057)"/><path fill="#020202" d="M115.117 184.693c2.02 1.04 3.586 2.092 4.372 4.282l.421.532c1.38 1.928 1.403 4.515 1.413 6.805l.005.655c-.044 3.476-1.412 6.367-3.746 8.952-3.189 2.88-6.3 3.493-10.474 3.284-1.97-.176-3.467-.732-5.053-1.922l-.737-.541c-2.379-1.931-3.553-4.346-4.203-7.304-.123-1.208-.135-2.401-.127-3.614l-.017-.93c.001-2.744.558-5.465 2.528-7.498 2.171-1.884 4.301-2.487 7.077-2.91 6.03-.952 6.03-.952 8.54.209"/><path fill="#fafafa" d="M0 0c4.05 2.854 7.625 6.107 11.194 9.534l2.168 2.002C27.71 25.135 32.982 40.98 33.608 60.335c.2 8.9.086 16.972-3.164 25.387l-1.207 3.152c-3.646 9.086-7.283 14.647-14.793 20.848l-2.254 1.98C-1.383 123.262-13.937 126-31.358 125.754a518 518 0 0 0-6.76-.022c-28.554.07-28.554.07-38.438-8.01l-2.063-1.516c-3.828-3.003-6.854-6.642-9.98-10.348-2.213-2.416-4.6-4.5-7.082-6.636-9.364-8.412-11.945-17.138-12.875-29.5-.752-21.816 2.21-42.123 17.195-58.57C-68.555-12.844-28.507-17.999 0 0" style="display:inline" transform="translate(207.112 96.655)scale(.29057)"/><path fill="#020202" d="M0 0c5.838 5.31 8.97 11.204 12.074 18.387l1.258 2.617c4.955 11.4 3.855 24.02-.09 35.55C8.763 67.417 3.827 71.89-6.926 76.388c-7.36 2.802-14.577 3.286-22.375 3.375l-2.595.042c-5.154-.04-8.501-.742-13.03-3.417l-2.61-1.016c-7.338-3.022-12.092-8.422-16.327-14.922l-1.144-1.735c-7.224-11.662-5.575-25.44-2.919-38.327 2.418-9.684 7.492-14.728 15-21l2.239-1.969 2.261-1.906 2.031-1.742C-33.375-13.523-10.665-8.935 0 0" style="display:inline" transform="translate(205.185 103.726)scale(.29057)"/></svg>