<?xml version="1.0" encoding="UTF-8" ?>
<!DOCTYPE svg PUBLIC "-//W3C//DTD SVG 1.1//EN" "http://www.w3.org/Graphics/SVG/1.1/DTD/svg11.dtd">
<svg width="128pt" height="128pt" viewBox="0 0 128 128" version="1.1" xmlns="http://www.w3.org/2000/svg">
<path fill="#ffffff" d=" M 0.00 0.00 L 128.00 0.00 L 128.00 61.38 C 127.30 51.52 124.92 41.62 119.90 33.02 C 111.58 18.84 98.08 7.37 82.04 3.10 C 68.85 -0.36 54.54 0.09 41.73 4.88 C 27.51 10.31 15.82 21.33 8.52 34.56 C 1.30 48.10 -0.30 64.30 3.12 79.17 C 5.72 90.51 11.94 100.86 20.19 108.99 C 20.79 108.62 21.39 108.24 21.98 107.85 C 34.70 98.68 45.32 86.80 53.78 73.65 C 56.38 69.46 58.72 65.10 60.79 60.63 C 61.50 59.09 62.14 57.53 62.77 55.97 C 66.10 48.11 67.30 39.52 71.03 31.81 C 73.59 26.50 76.76 20.93 82.28 18.24 C 87.35 15.69 94.45 13.79 99.02 18.28 C 102.39 23.04 97.32 27.93 94.12 31.16 C 98.87 32.43 102.94 36.21 104.17 41.01 C 106.09 47.26 106.66 53.98 105.57 60.44 C 105.42 61.71 105.23 62.99 104.98 64.25 C 104.83 64.83 104.55 66.00 104.41 66.58 C 100.01 81.78 85.65 91.24 71.34 95.91 C 61.32 99.37 50.85 101.27 40.35 102.49 C 35.81 105.63 31.52 109.16 27.00 112.35 C 26.58 112.65 25.73 113.27 25.31 113.57 C 36.61 122.93 51.37 127.88 66.02 127.19 C 86.24 127.55 105.41 116.19 116.83 99.84 C 123.71 90.41 127.05 78.90 128.00 67.37 L 128.00 128.00 L 0.00 128.00 L 0.00 0.00 Z" />
<path fill="#06067d" d=" M 41.73 4.88 C 54.54 0.09 68.85 -0.36 82.04 3.10 C 98.08 7.37 111.58 18.84 119.90 33.02 C 124.92 41.62 127.30 51.52 128.00 61.38 L 128.00 67.37 C 127.05 78.90 123.71 90.41 116.83 99.84 C 105.41 116.19 86.24 127.55 66.02 127.19 C 51.37 127.88 36.61 122.93 25.31 113.57 C 25.73 113.27 26.58 112.65 27.00 112.35 C 29.23 113.98 31.45 115.63 33.82 117.05 C 41.60 121.71 50.48 124.65 59.56 125.15 C 66.02 125.30 72.58 125.41 78.90 123.80 C 95.20 120.10 109.16 108.80 117.69 94.63 C 121.82 87.83 124.37 80.11 125.29 72.23 C 125.60 69.51 125.82 66.77 125.88 64.03 C 125.68 60.84 125.43 57.64 125.12 54.46 C 118.32 55.36 111.78 57.57 105.57 60.44 C 106.66 53.98 106.09 47.26 104.17 41.01 C 102.94 36.21 98.87 32.43 94.12 31.16 C 97.32 27.93 102.39 23.04 99.02 18.28 C 100.05 17.56 101.09 16.83 102.12 16.11 C 96.89 11.72 90.87 8.15 84.32 6.15 C 68.32 1.09 50.09 1.99 35.28 10.20 C 24.78 15.87 16.48 25.03 10.56 35.28 C 6.78 41.82 5.16 49.29 4.11 56.69 C 3.73 59.01 3.59 61.35 3.57 63.70 C 3.60 66.12 3.72 68.54 3.94 70.95 C 5.11 84.95 11.90 98.16 21.98 107.85 C 21.39 108.24 20.79 108.62 20.19 108.99 C 11.94 100.86 5.72 90.51 3.12 79.17 C -0.30 64.30 1.30 48.10 8.52 34.56 C 15.82 21.33 27.51 10.31 41.73 4.88 Z" />
<path fill="#272793" d=" M 35.28 10.20 C 50.09 1.99 68.32 1.09 84.32 6.15 C 73.34 11.57 61.73 15.46 50.63 20.58 C 45.21 22.91 39.46 24.43 34.21 27.16 C 29.67 29.53 24.72 30.94 20.08 33.08 C 17.27 34.28 14.52 35.76 11.52 36.42 C 11.28 36.14 10.80 35.57 10.56 35.28 C 16.48 25.03 24.78 15.87 35.28 10.20 Z" />
<path fill="#1b1b8b" d=" M 84.32 6.15 C 90.87 8.15 96.89 11.72 102.12 16.11 C 101.09 16.83 100.05 17.56 99.02 18.28 C 94.45 13.79 87.35 15.69 82.28 18.24 C 76.76 20.93 73.59 26.50 71.03 31.81 C 69.56 31.89 68.04 31.92 66.69 32.59 C 54.14 38.26 41.21 43.07 28.54 48.44 C 24.84 50.20 20.90 51.34 17.02 52.60 C 18.08 52.99 19.16 53.36 20.24 53.71 C 18.11 54.01 15.99 54.41 13.86 54.79 C 10.57 55.21 7.32 55.86 4.11 56.69 C 5.16 49.29 6.78 41.82 10.56 35.28 C 10.80 35.57 11.28 36.14 11.52 36.42 C 14.52 35.76 17.27 34.28 20.08 33.08 C 24.72 30.94 29.67 29.53 34.21 27.16 C 39.46 24.43 45.21 22.91 50.63 20.58 C 61.73 15.46 73.34 11.57 84.32 6.15 Z" />
<path fill="#2388ff" d=" M 76.64 25.58 C 80.35 20.47 86.64 17.27 92.98 17.60 C 94.92 17.60 96.92 18.46 98.05 20.09 C 99.13 24.27 95.22 27.44 92.75 30.26 C 92.93 30.92 93.30 32.24 93.49 32.90 C 92.34 32.86 91.20 32.70 90.07 32.50 C 89.72 29.61 91.82 27.71 93.49 25.69 C 94.78 24.20 95.75 22.47 96.13 20.52 L 96.01 20.45 C 93.15 18.26 89.19 19.42 86.09 20.46 C 80.03 22.54 76.46 28.42 74.03 34.00 C 70.61 41.79 69.42 50.28 66.34 58.18 C 64.42 60.58 63.58 63.59 62.21 66.30 C 58.75 73.49 54.80 80.53 49.69 86.70 C 47.27 89.88 44.34 92.65 42.04 95.93 C 46.28 94.09 50.03 91.34 54.02 89.04 C 61.66 84.56 69.05 79.43 74.80 72.61 L 75.14 73.58 C 74.08 75.71 72.60 77.69 72.25 80.10 C 73.49 80.72 74.72 81.33 75.97 81.94 C 74.78 82.83 73.58 83.71 72.38 84.58 C 72.61 82.23 72.32 79.91 71.19 77.82 C 67.63 81.88 62.88 84.52 58.38 87.38 C 56.99 88.26 56.89 90.15 56.21 91.50 C 55.01 91.59 53.82 91.47 52.63 91.40 C 51.62 92.43 50.60 93.45 49.55 94.44 C 46.16 94.37 43.95 97.36 41.13 98.78 C 40.32 99.40 39.65 100.18 38.97 100.94 C 27.98 109.74 16.20 119.52 1.73 121.22 L 2.58 120.43 C 23.95 112.10 41.24 95.64 53.82 76.78 C 59.90 67.62 64.74 57.58 67.61 46.95 C 69.65 39.49 72.09 31.93 76.64 25.58 Z" />
<path fill="#ffffff" d=" M 86.09 20.46 C 89.19 19.42 93.15 18.26 96.01 20.45 C 92.42 20.97 88.62 20.63 85.30 22.34 C 80.57 24.62 77.50 29.28 75.56 34.01 C 73.60 38.90 70.99 43.68 70.27 48.97 C 69.12 52.73 67.28 56.25 66.40 60.09 C 66.38 59.62 66.36 58.66 66.34 58.18 C 69.42 50.28 70.61 41.79 74.03 34.00 C 76.46 28.42 80.03 22.54 86.09 20.46 Z" />
<path fill="#acd5ff" d=" M 96.01 20.45 L 96.13 20.52 C 95.75 22.47 94.78 24.20 93.49 25.69 C 86.84 26.84 82.15 32.58 75.56 34.01 C 77.50 29.28 80.57 24.62 85.30 22.34 C 88.62 20.63 92.42 20.97 96.01 20.45 Z" />
<path fill="#80beff" d=" M 75.56 34.01 C 82.15 32.58 86.84 26.84 93.49 25.69 C 91.82 27.71 89.72 29.61 90.07 32.50 C 88.42 32.30 86.77 32.38 85.12 32.46 C 84.85 35.82 85.01 39.22 84.44 42.55 C 79.89 45.02 75.64 48.63 70.27 48.97 C 70.99 43.68 73.60 38.90 75.56 34.01 Z" />
<path fill="#0e0e82" d=" M 66.69 32.59 C 68.04 31.92 69.56 31.89 71.03 31.81 C 67.30 39.52 66.10 48.11 62.77 55.97 C 59.88 56.44 57.15 57.51 54.41 58.51 C 43.48 54.59 31.84 52.86 20.24 53.71 C 19.16 53.36 18.08 52.99 17.02 52.60 C 20.90 51.34 24.84 50.20 28.54 48.44 C 41.21 43.07 54.14 38.26 66.69 32.59 Z" />
<path fill="#4da1ff" d=" M 85.12 32.46 C 86.77 32.38 88.42 32.30 90.07 32.50 C 91.20 32.70 92.34 32.86 93.49 32.90 C 98.57 33.44 102.02 38.32 103.00 43.01 C 105.90 54.72 104.54 68.20 96.72 77.79 C 88.82 87.55 76.83 92.77 65.02 96.09 C 56.48 98.37 47.78 100.10 38.97 100.94 C 39.65 100.18 40.32 99.40 41.13 98.78 C 41.50 98.98 42.25 99.36 42.62 99.55 C 51.04 98.40 59.34 96.49 67.54 94.26 C 67.93 94.14 68.70 93.90 69.09 93.78 C 70.61 93.29 72.12 92.76 73.61 92.19 C 74.59 91.78 75.58 91.36 76.54 90.91 C 77.85 90.30 79.14 89.68 80.43 89.04 C 81.35 88.57 82.26 88.07 83.17 87.57 C 85.00 86.55 86.83 85.50 88.47 84.18 C 89.16 83.62 89.85 83.04 90.53 82.45 C 92.92 80.27 95.41 78.09 97.10 75.29 L 97.38 74.85 C 99.52 71.46 101.56 67.87 102.22 63.86 C 102.25 63.64 102.32 63.19 102.35 62.97 C 103.41 56.57 103.77 49.84 101.99 43.53 C 101.93 43.31 101.82 42.88 101.76 42.66 C 101.16 39.05 98.24 36.48 95.36 34.56 C 92.20 34.24 88.96 34.57 85.78 34.67 C 88.50 35.76 91.43 34.95 94.23 35.42 C 94.31 35.86 94.47 36.74 94.54 37.18 C 92.13 36.92 89.67 36.27 87.26 36.85 C 87.12 37.42 86.84 38.57 86.70 39.15 C 85.99 43.74 86.34 48.46 85.12 52.98 C 84.36 56.31 82.77 59.47 82.62 62.93 C 82.56 65.86 83.35 68.70 83.88 71.56 C 85.31 71.53 86.73 71.48 88.16 71.42 C 86.86 73.02 85.63 74.67 84.22 76.17 C 82.95 73.55 81.96 70.33 79.12 68.99 C 78.61 71.25 78.50 73.57 78.69 75.88 C 79.81 76.61 80.92 77.34 82.05 78.06 C 80.72 79.18 79.40 80.31 78.00 81.35 C 77.32 78.67 76.40 76.05 75.14 73.58 L 74.80 72.61 C 77.14 69.37 79.26 65.97 80.93 62.34 C 74.11 66.66 67.26 71.05 59.96 74.50 C 61.59 69.46 65.21 65.30 66.40 60.09 C 67.28 56.25 69.12 52.73 70.27 48.97 C 75.64 48.63 79.89 45.02 84.44 42.55 C 85.01 39.22 84.85 35.82 85.12 32.46 Z" />
<path fill="#c8e0f9" d=" M 85.78 34.67 C 88.96 34.57 92.20 34.24 95.36 34.56 C 98.24 36.48 101.16 39.05 101.76 42.66 C 99.72 42.61 97.11 43.16 95.73 41.22 C 95.07 39.96 94.83 38.55 94.54 37.18 C 94.47 36.74 94.31 35.86 94.23 35.42 C 91.43 34.95 88.50 35.76 85.78 34.67 Z" />
<path fill="#88bef9" d=" M 87.26 36.85 C 89.67 36.27 92.13 36.92 94.54 37.18 C 94.83 38.55 95.07 39.96 95.73 41.22 C 97.11 43.16 99.72 42.61 101.76 42.66 C 101.82 42.88 101.93 43.31 101.99 43.53 C 99.87 43.45 97.75 43.41 95.63 43.39 C 94.39 48.07 98.74 50.79 102.16 52.81 C 99.94 52.33 97.73 51.80 95.51 51.36 C 95.44 52.99 95.41 54.61 95.42 56.23 C 97.31 58.88 99.83 60.96 102.35 62.97 C 102.32 63.19 102.25 63.64 102.22 63.86 C 99.64 62.15 97.06 59.85 93.83 59.70 C 92.11 65.09 96.18 69.82 97.38 74.85 L 97.10 75.29 C 95.09 72.92 93.01 70.61 90.78 68.43 C 90.11 69.16 89.46 69.90 88.81 70.65 L 88.16 71.42 C 86.73 71.48 85.31 71.53 83.88 71.56 C 83.35 68.70 82.56 65.86 82.62 62.93 C 85.77 63.89 88.30 66.00 90.78 68.06 C 91.04 66.97 91.30 65.88 91.54 64.79 C 87.34 65.01 83.50 60.31 85.82 56.42 C 88.94 57.03 91.89 58.23 94.95 59.08 C 94.23 56.04 90.62 56.18 88.53 54.54 C 86.79 53.72 87.33 51.51 86.97 49.98 C 90.08 50.00 93.13 50.68 96.22 50.99 C 94.51 47.64 89.95 48.87 87.57 46.35 C 87.34 45.36 87.17 44.35 87.06 43.33 C 89.84 43.10 92.63 43.10 95.41 43.00 C 95.04 40.72 92.57 41.60 90.96 41.23 C 89.30 41.19 88.00 40.03 86.70 39.15 C 86.84 38.57 87.12 37.42 87.26 36.85 Z" />
<path fill="#50a0f8" d=" M 85.12 52.98 C 86.34 48.46 85.99 43.74 86.70 39.15 C 88.00 40.03 89.30 41.19 90.96 41.23 C 92.57 41.60 95.04 40.72 95.41 43.00 C 92.63 43.10 89.84 43.10 87.06 43.33 C 87.17 44.35 87.34 45.36 87.57 46.35 C 89.95 48.87 94.51 47.64 96.22 50.99 C 93.13 50.68 90.08 50.00 86.97 49.98 C 87.33 51.51 86.79 53.72 88.53 54.54 C 90.62 56.18 94.23 56.04 94.95 59.08 C 91.89 58.23 88.94 57.03 85.82 56.42 C 83.50 60.31 87.34 65.01 91.54 64.79 C 91.30 65.88 91.04 66.97 90.78 68.06 C 88.30 66.00 85.77 63.89 82.62 62.93 C 82.77 59.47 84.36 56.31 85.12 52.98 Z" />
<path fill="#c5def9" d=" M 102.16 52.81 C 98.74 50.79 94.39 48.07 95.63 43.39 C 97.75 43.41 99.87 43.45 101.99 43.53 C 103.77 49.84 103.41 56.57 102.35 62.97 C 99.83 60.96 97.31 58.88 95.42 56.23 C 95.41 54.61 95.44 52.99 95.51 51.36 C 97.73 51.80 99.94 52.33 102.16 52.81 Z" />
<path fill="#5454b7" d=" M 13.86 54.79 C 15.99 54.41 18.11 54.01 20.24 53.71 C 31.84 52.86 43.48 54.59 54.41 58.51 L 53.80 58.71 C 46.65 61.01 38.77 60.66 31.65 58.40 C 25.97 56.24 19.99 54.63 13.86 54.79 Z" />
<path fill="#8788fe" d=" M 4.11 56.69 C 7.32 55.86 10.57 55.21 13.86 54.79 C 19.99 54.63 25.97 56.24 31.65 58.40 C 38.77 60.66 46.65 61.01 53.80 58.71 C 56.19 59.10 58.49 59.89 60.79 60.63 C 58.72 65.10 56.38 69.46 53.78 73.65 C 46.65 72.42 39.66 70.56 32.87 68.05 C 23.62 64.33 13.48 63.16 3.57 63.70 C 3.59 61.35 3.73 59.01 4.11 56.69 Z" />
<path fill="#8b8cfe" d=" M 105.57 60.44 C 111.78 57.57 118.32 55.36 125.12 54.46 C 125.43 57.64 125.68 60.84 125.88 64.03 C 118.93 63.46 111.90 63.34 104.98 64.25 C 105.23 62.99 105.42 61.71 105.57 60.44 Z" />
<path fill="#3f3fab" d=" M 54.41 58.51 C 57.15 57.51 59.88 56.44 62.77 55.97 C 62.14 57.53 61.50 59.09 60.79 60.63 C 58.49 59.89 56.19 59.10 53.80 58.71 L 54.41 58.51 Z" />
<path fill="#6eb4ff" d=" M 62.21 66.30 C 63.58 63.59 64.42 60.58 66.34 58.18 C 66.36 58.66 66.38 59.62 66.40 60.09 C 65.21 65.30 61.59 69.46 59.96 74.50 C 67.26 71.05 74.11 66.66 80.93 62.34 C 79.26 65.97 77.14 69.37 74.80 72.61 C 69.05 79.43 61.66 84.56 54.02 89.04 C 50.03 91.34 46.28 94.09 42.04 95.93 C 44.34 92.65 47.27 89.88 49.69 86.70 C 54.80 80.53 58.75 73.49 62.21 66.30 Z" />
<path fill="#c2ddf9" d=" M 93.83 59.70 C 97.06 59.85 99.64 62.15 102.22 63.86 C 101.56 67.87 99.52 71.46 97.38 74.85 C 96.18 69.82 92.11 65.09 93.83 59.70 Z" />
<path fill="#595afd" d=" M 3.57 63.70 C 13.48 63.16 23.62 64.33 32.87 68.05 C 27.06 69.92 21.25 72.31 15.04 72.28 C 11.29 72.42 7.61 71.55 3.94 70.95 C 3.72 68.54 3.60 66.12 3.57 63.70 Z" />
<path fill="#5252fe" d=" M 104.98 64.25 C 111.90 63.34 118.93 63.46 125.88 64.03 C 125.82 66.77 125.60 69.51 125.29 72.23 C 118.07 71.31 111.53 67.90 104.41 66.58 C 104.55 66.00 104.83 64.83 104.98 64.25 Z" />
<path fill="#1d1de3" d=" M 71.34 95.91 C 85.65 91.24 100.01 81.78 104.41 66.58 C 111.53 67.90 118.07 71.31 125.29 72.23 C 124.37 80.11 121.82 87.83 117.69 94.63 C 112.85 94.34 109.27 98.12 105.28 100.24 C 96.77 104.97 88.42 109.99 79.99 114.87 C 73.27 118.47 66.88 122.81 59.56 125.15 C 50.48 124.65 41.60 121.71 33.82 117.05 C 44.83 112.67 54.18 105.15 64.80 100.02 C 67.18 98.97 70.20 98.62 71.34 95.91 Z" />
<path fill="#0202de" d=" M 32.87 68.05 C 39.66 70.56 46.65 72.42 53.78 73.65 C 45.32 86.80 34.70 98.68 21.98 107.85 C 11.90 98.16 5.11 84.95 3.94 70.95 C 7.61 71.55 11.29 72.42 15.04 72.28 C 21.25 72.31 27.06 69.92 32.87 68.05 Z" />
<path fill="#7cb9f9" d=" M 79.12 68.99 C 81.96 70.33 82.95 73.55 84.22 76.17 C 84.06 76.31 83.75 76.60 83.59 76.75 L 82.72 77.50 L 82.05 78.06 C 80.92 77.34 79.81 76.61 78.69 75.88 C 78.50 73.57 78.61 71.25 79.12 68.99 Z" />
<path fill="#bfdbf9" d=" M 88.81 70.65 C 89.46 69.90 90.11 69.16 90.78 68.43 C 93.01 70.61 95.09 72.92 97.10 75.29 C 95.41 78.09 92.92 80.27 90.53 82.45 C 90.40 78.46 89.68 74.53 88.81 70.65 Z" />
<path fill="#a4cbf6" d=" M 88.16 71.42 L 88.81 70.65 C 89.68 74.53 90.40 78.46 90.53 82.45 C 89.85 83.04 89.16 83.62 88.47 84.18 C 87.09 81.55 85.49 79.03 83.59 76.75 C 83.75 76.60 84.06 76.31 84.22 76.17 C 85.63 74.67 86.86 73.02 88.16 71.42 Z" />
<path fill="#9bc7f6" d=" M 75.14 73.58 C 76.40 76.05 77.32 78.67 78.00 81.35 C 79.40 80.31 80.72 79.18 82.05 78.06 L 82.72 77.50 C 82.52 80.86 82.71 84.24 83.17 87.57 C 82.26 88.07 81.35 88.57 80.43 89.04 C 79.58 86.49 78.75 83.87 77.15 81.67 C 76.18 84.66 76.06 87.83 76.54 90.91 C 75.58 91.36 74.59 91.78 73.61 92.19 C 73.32 89.82 72.91 87.46 71.90 85.28 C 69.89 87.66 69.27 90.75 69.09 93.78 C 68.70 93.90 67.93 94.14 67.54 94.26 C 67.33 92.20 67.06 90.16 66.70 88.13 C 63.34 89.64 59.86 90.88 56.21 91.50 C 56.89 90.15 56.99 88.26 58.38 87.38 C 62.88 84.52 67.63 81.88 71.19 77.82 C 72.32 79.91 72.61 82.23 72.38 84.58 C 73.58 83.71 74.78 82.83 75.97 81.94 C 74.72 81.33 73.49 80.72 72.25 80.10 C 72.60 77.69 74.08 75.71 75.14 73.58 Z" />
<path fill="#bddaf9" d=" M 83.59 76.75 C 85.49 79.03 87.09 81.55 88.47 84.18 C 86.83 85.50 85.00 86.55 83.17 87.57 C 82.71 84.24 82.52 80.86 82.72 77.50 L 83.59 76.75 Z" />
<path fill="#bfdbf9" d=" M 77.15 81.67 C 78.75 83.87 79.58 86.49 80.43 89.04 C 79.14 89.68 77.85 90.30 76.54 90.91 C 76.06 87.83 76.18 84.66 77.15 81.67 Z" />
<path fill="#5ca5f6" d=" M 66.65 83.31 C 68.68 82.81 70.12 83.33 70.97 84.88 C 69.38 85.98 67.71 87.92 65.53 87.12 C 65.89 85.84 66.26 84.57 66.65 83.31 Z" />
<path fill="#c1dcf8" d=" M 69.09 93.78 C 69.27 90.75 69.89 87.66 71.90 85.28 C 72.91 87.46 73.32 89.82 73.61 92.19 C 72.12 92.76 70.61 93.29 69.09 93.78 Z" />
<path fill="#56a2f6" d=" M 61.36 86.96 C 62.90 85.46 64.85 88.02 62.66 88.79 C 61.09 90.27 59.37 87.91 61.36 86.96 Z" />
<path fill="#c6dff8" d=" M 56.21 91.50 C 59.86 90.88 63.34 89.64 66.70 88.13 C 67.06 90.16 67.33 92.20 67.54 94.26 C 59.34 96.49 51.04 98.40 42.62 99.55 C 42.25 99.36 41.50 98.98 41.13 98.78 C 43.95 97.36 46.16 94.37 49.55 94.44 C 50.60 93.45 51.62 92.43 52.63 91.40 C 53.82 91.47 55.01 91.59 56.21 91.50 Z" />
<path fill="#2c2ce5" d=" M 105.28 100.24 C 109.27 98.12 112.85 94.34 117.69 94.63 C 109.16 108.80 95.20 120.10 78.90 123.80 C 72.58 125.41 66.02 125.30 59.56 125.15 C 66.88 122.81 73.27 118.47 79.99 114.87 C 88.42 109.99 96.77 104.97 105.28 100.24 Z" />
<path fill="#1111e2" d=" M 40.35 102.49 C 50.85 101.27 61.32 99.37 71.34 95.91 C 70.20 98.62 67.18 98.97 64.80 100.02 C 54.18 105.15 44.83 112.67 33.82 117.05 C 31.45 115.63 29.23 113.98 27.00 112.35 C 31.52 109.16 35.81 105.63 40.35 102.49 Z" />
</svg>
