<svg width="128pt" height="128pt" viewBox="0 0 128 128" xmlns="http://www.w3.org/2000/svg"><path fill="#fff" d="M0 0h128v61.38c-.7-9.86-3.08-19.76-8.1-28.36C111.58 18.84 98.08 7.37 82.04 3.1 68.85-.36 54.54.09 41.73 4.88 27.51 10.31 15.82 21.33 8.52 34.56 1.3 48.1-.3 64.3 3.12 79.17c2.6 11.34 8.82 21.69 17.07 29.82.6-.37 1.2-.75 1.79-1.14 12.72-9.17 23.34-21.05 31.8-34.2 2.6-4.19 4.94-8.55 7.01-13.02.71-1.54 1.35-3.1 1.98-4.66 3.33-7.86 4.53-16.45 8.26-24.16 2.56-5.31 5.73-10.88 11.25-13.57 5.07-2.55 12.17-4.45 16.74.04 3.37 4.76-1.7 9.65-4.9 12.88 4.75 1.27 8.82 5.05 10.05 9.85 1.92 6.25 2.49 12.97 1.4 19.43-.15 1.27-.34 2.55-.59 3.81-.15.58-.43 1.75-.57 2.33-4.4 15.2-18.76 24.66-33.07 29.33-10.02 3.46-20.49 5.36-30.99 6.58-4.54 3.14-8.83 6.67-13.35 9.86-.42.3-1.27.92-1.69 1.22 11.3 9.36 26.06 14.31 40.71 13.62 20.22.36 39.39-11 50.81-27.35 6.88-9.43 10.22-20.94 11.17-32.47V128H0V0z"/><path fill="#06067d" d="M41.73 4.88C54.54.09 68.85-.36 82.04 3.1c16.04 4.27 29.54 15.74 37.86 29.92 5.02 8.6 7.4 18.5 8.1 28.36v5.99c-.95 11.53-4.29 23.04-11.17 32.47-11.42 16.35-30.59 27.71-50.81 27.35-14.65.69-29.41-4.26-40.71-13.62.42-.3 1.27-.92 1.69-1.22 2.23 1.63 4.45 3.28 6.82 4.7 7.78 4.66 16.66 7.6 25.74 8.1 6.46.15 13.02.26 19.34-1.35 16.3-3.7 30.26-15 38.79-29.17 4.13-6.8 6.68-14.52 7.6-22.4.31-2.72.53-5.46.59-8.2-.2-3.19-.45-6.39-.76-9.57-6.8.9-13.34 3.11-19.55 5.98 1.09-6.46.52-13.18-1.4-19.43-1.23-4.8-5.3-8.58-10.05-9.85 3.2-3.23 8.27-8.12 4.9-12.88l3.1-2.17c-5.23-4.39-11.25-7.96-17.8-9.96-16-5.06-34.23-4.16-49.04 4.05-10.5 5.67-18.8 14.83-24.72 25.08-3.78 6.54-5.4 14.01-6.45 21.41-.38 2.32-.52 4.66-.54 7.01.03 2.42.15 4.84.37 7.25 1.17 14 7.96 27.21 18.04 36.9-.59.39-1.19.77-1.79 1.14-8.25-8.13-14.47-18.48-17.07-29.82C-.3 64.3 1.3 48.1 8.52 34.56c7.3-13.23 18.99-24.25 33.21-29.68z"/><path fill="#272793" d="M35.28 10.2c14.81-8.21 33.04-9.11 49.04-4.05-10.98 5.42-22.59 9.31-33.69 14.43-5.42 2.33-11.17 3.85-16.42 6.58-4.54 2.37-9.49 3.78-14.13 5.92-2.81 1.2-5.56 2.68-8.56 3.34-.24-.28-.72-.85-.96-1.14 5.92-10.25 14.22-19.41 24.72-25.08z"/><path fill="#1b1b8b" d="M84.32 6.15c6.55 2 12.57 5.57 17.8 9.96l-3.1 2.17c-4.57-4.49-11.67-2.59-16.74-.04-5.52 2.69-8.69 8.26-11.25 13.57-1.47.08-2.99.11-4.34.78-12.55 5.67-25.48 10.48-38.15 15.85-3.7 1.76-7.64 2.9-11.52 4.16 1.06.39 2.14.76 3.22 1.11-2.13.3-4.25.7-6.38 1.08-3.29.42-6.54 1.07-9.75 1.9 1.05-7.4 2.67-14.87 6.45-21.41.24.29.72.86.96 1.14 3-.66 5.75-2.14 8.56-3.34 4.64-2.14 9.59-3.55 14.13-5.92 5.25-2.73 11-4.25 16.42-6.58 11.1-5.12 22.71-9.01 33.69-14.43z"/><path fill="#2388ff" d="M76.64 25.58c3.71-5.11 10-8.31 16.34-7.98 1.94 0 3.94.86 5.07 2.49 1.08 4.18-2.83 7.35-5.3 10.17.18.66.55 1.98.74 2.64-1.15-.04-2.29-.2-3.42-.4-.35-2.89 1.75-4.79 3.42-6.81 1.29-1.49 2.26-3.22 2.64-5.17l-.12-.07c-2.86-2.19-6.82-1.03-9.92.01-6.06 2.08-9.63 7.96-12.06 13.54-3.42 7.79-4.61 16.28-7.69 24.18-1.92 2.4-2.76 5.41-4.13 8.12-3.46 7.19-7.41 14.23-12.52 20.4-2.42 3.18-5.35 5.95-7.65 9.23 4.24-1.84 7.99-4.59 11.98-6.89 7.64-4.48 15.03-9.61 20.78-16.43l.34.97c-1.06 2.13-2.54 4.11-2.89 6.52 1.24.62 2.47 1.23 3.72 1.84-1.19.89-2.39 1.77-3.59 2.64.23-2.35-.06-4.67-1.19-6.76-3.56 4.06-8.31 6.7-12.81 9.56-1.39.88-1.49 2.77-2.17 4.12-1.2.09-2.39-.03-3.58-.1-1.01 1.03-2.03 2.05-3.08 3.04-3.39-.07-5.6 2.92-8.42 4.34-.81.62-1.48 1.4-2.16 2.16-10.99 8.8-22.77 18.58-37.24 20.28l.85-.79c21.37-8.33 38.66-24.79 51.24-43.65 6.08-9.16 10.92-19.2 13.79-29.83 2.04-7.46 4.48-15.02 9.03-21.37z"/><path fill="#fff" d="M86.09 20.46c3.1-1.04 7.06-2.2 9.92-.01-3.59.52-7.39.18-10.71 1.89-4.73 2.28-7.8 6.94-9.74 11.67-1.96 4.89-4.57 9.67-5.29 14.96-1.15 3.76-2.99 7.28-3.87 11.12-.02-.47-.04-1.43-.06-1.91 3.08-7.9 4.27-16.39 7.69-24.18 2.43-5.58 6-11.46 12.06-13.54z"/><path fill="#acd5ff" d="M96.01 20.45l.12.07c-.38 1.95-1.35 3.68-2.64 5.17-6.65 1.15-11.34 6.89-17.93 8.32 1.94-4.73 5.01-9.39 9.74-11.67 3.32-1.71 7.12-1.37 10.71-1.89z"/><path fill="#80beff" d="M75.56 34.01c6.59-1.43 11.28-7.17 17.93-8.32-1.67 2.02-3.77 3.92-3.42 6.81-1.65-.2-3.3-.12-4.95-.04-.27 3.36-.11 6.76-.68 10.09-4.55 2.47-8.8 6.08-14.17 6.42.72-5.29 3.33-10.07 5.29-14.96z"/><path fill="#0e0e82" d="M66.69 32.59c1.35-.67 2.87-.7 4.34-.78-3.73 7.71-4.93 16.3-8.26 24.16-2.89.47-5.62 1.54-8.36 2.54-10.93-3.92-22.57-5.65-34.17-4.8-1.08-.35-2.16-.72-3.22-1.11 3.88-1.26 7.82-2.4 11.52-4.16 12.67-5.37 25.6-10.18 38.15-15.85z"/><path fill="#4da1ff" d="M85.12 32.46c1.65-.08 3.3-.16 4.95.04 1.13.2 2.27.36 3.42.4 5.08.54 8.53 5.42 9.51 10.11 2.9 11.71 1.54 25.19-6.28 34.78-7.9 9.76-19.89 14.98-31.7 18.3-8.54 2.28-17.24 4.01-26.05 4.85.68-.76 1.35-1.54 2.16-2.16.37.2 1.12.58 1.49.77 8.42-1.15 16.72-3.06 24.92-5.29l1.55-.48c1.52-.49 3.03-1.02 4.52-1.59.98-.41 1.97-.83 2.93-1.28 1.31-.61 2.6-1.23 3.89-1.87.92-.47 1.83-.97 2.74-1.47 1.83-1.02 3.66-2.07 5.3-3.39.69-.56 1.38-1.14 2.06-1.73 2.39-2.18 4.88-4.36 6.57-7.16l.28-.44c2.14-3.39 4.18-6.98 4.84-10.99.03-.22.1-.67.13-.89 1.06-6.4 1.42-13.13-.36-19.44-.06-.22-.17-.65-.23-.87-.6-3.61-3.52-6.18-6.4-8.1-3.16-.32-6.4.01-9.58.11 2.72 1.09 5.65.28 8.45.75.08.44.24 1.32.31 1.76-2.41-.26-4.87-.91-7.28-.33-.14.57-.42 1.72-.56 2.3-.71 4.59-.36 9.31-1.58 13.83-.76 3.33-2.35 6.49-2.5 9.95-.06 2.93.73 5.77 1.26 8.63 1.43-.03 2.85-.08 4.28-.14-1.3 1.6-2.53 3.25-3.94 4.75-1.27-2.62-2.26-5.84-5.1-7.18-.51 2.26-.62 4.58-.43 6.89 1.12.73 2.23 1.46 3.36 2.18-1.33 1.12-2.65 2.25-4.05 3.29-.68-2.68-1.6-5.3-2.86-7.77l-.34-.97c2.34-3.24 4.46-6.64 6.13-10.27-6.82 4.32-13.67 8.71-20.97 12.16 1.63-5.04 5.25-9.2 6.44-14.41.88-3.84 2.72-7.36 3.87-11.12 5.37-.34 9.62-3.95 14.17-6.42.57-3.33.41-6.73.68-10.09z"/><path fill="#c8e0f9" d="M85.78 34.67c3.18-.1 6.42-.43 9.58-.11 2.88 1.92 5.8 4.49 6.4 8.1-2.04-.05-4.65.5-6.03-1.44-.66-1.26-.9-2.67-1.19-4.04-.07-.44-.23-1.32-.31-1.76-2.8-.47-5.73.34-8.45-.75z"/><path fill="#88bef9" d="M87.26 36.85c2.41-.58 4.87.07 7.28.33.29 1.37.53 2.78 1.19 4.04 1.38 1.94 3.99 1.39 6.03 1.44.06.22.17.65.23.87-2.12-.08-4.24-.12-6.36-.14-1.24 4.68 3.11 7.4 6.53 9.42-2.22-.48-4.43-1.01-6.65-1.45-.07 1.63-.1 3.25-.09 4.87 1.89 2.65 4.41 4.73 6.93 6.74-.03.22-.1.67-.13.89-2.58-1.71-5.16-4.01-8.39-4.16-1.72 5.39 2.35 10.12 3.55 15.15l-.28.44c-2.01-2.37-4.09-4.68-6.32-6.86-.67.73-1.32 1.47-1.97 2.22l-.65.77c-1.43.06-2.85.11-4.28.14-.53-2.86-1.32-5.7-1.26-8.63 3.15.96 5.68 3.07 8.16 5.13.26-1.09.52-2.18.76-3.27-4.2.22-8.04-4.48-5.72-8.37 3.12.61 6.07 1.81 9.13 2.66-.72-3.04-4.33-2.9-6.42-4.54-1.74-.82-1.2-3.03-1.56-4.56 3.11.02 6.16.7 9.25 1.01-1.71-3.35-6.27-2.12-8.65-4.64-.23-.99-.4-2-.51-3.02 2.78-.23 5.57-.23 8.35-.33-.37-2.28-2.84-1.4-4.45-1.77-1.66-.04-2.96-1.2-4.26-2.08.14-.58.42-1.73.56-2.3z"/><path fill="#50a0f8" d="M85.12 52.98c1.22-4.52.87-9.24 1.58-13.83 1.3.88 2.6 2.04 4.26 2.08 1.61.37 4.08-.51 4.45 1.77-2.78.1-5.57.1-8.35.33.11 1.02.28 2.03.51 3.02 2.38 2.52 6.94 1.29 8.65 4.64-3.09-.31-6.14-.99-9.25-1.01.36 1.53-.18 3.74 1.56 4.56 2.09 1.64 5.7 1.5 6.42 4.54-3.06-.85-6.01-2.05-9.13-2.66-2.32 3.89 1.52 8.59 5.72 8.37-.24 1.09-.5 2.18-.76 3.27-2.48-2.06-5.01-4.17-8.16-5.13.15-3.46 1.74-6.62 2.5-9.95z"/><path fill="#c5def9" d="M102.16 52.81c-3.42-2.02-7.77-4.74-6.53-9.42 2.12.02 4.24.06 6.36.14 1.78 6.31 1.42 13.04.36 19.44-2.52-2.01-5.04-4.09-6.93-6.74-.01-1.62.02-3.24.09-4.87 2.22.44 4.43.97 6.65 1.45z"/><path fill="#5454b7" d="M13.86 54.79c2.13-.38 4.25-.78 6.38-1.08 11.6-.85 23.24.88 34.17 4.8l-.61.2c-7.15 2.3-15.03 1.95-22.15-.31-5.68-2.16-11.66-3.77-17.79-3.61z"/><path fill="#8788fe" d="M4.11 56.69c3.21-.83 6.46-1.48 9.75-1.9 6.13-.16 12.11 1.45 17.79 3.61 7.12 2.26 15 2.61 22.15.31 2.39.39 4.69 1.18 6.99 1.92-2.07 4.47-4.41 8.83-7.01 13.02-7.13-1.23-14.12-3.09-20.91-5.6-9.25-3.72-19.39-4.89-29.3-4.35.02-2.35.16-4.69.54-7.01z"/><path fill="#8b8cfe" d="M105.57 60.44c6.21-2.87 12.75-5.08 19.55-5.98.31 3.18.56 6.38.76 9.57-6.95-.57-13.98-.69-20.9.22.25-1.26.44-2.54.59-3.81z"/><path fill="#3f3fab" d="M54.41 58.51c2.74-1 5.47-2.07 8.36-2.54-.63 1.56-1.27 3.12-1.98 4.66-2.3-.74-4.6-1.53-6.99-1.92l.61-.2z"/><path fill="#6eb4ff" d="M62.21 66.3c1.37-2.71 2.21-5.72 4.13-8.12.02.48.04 1.44.06 1.91-1.19 5.21-4.81 9.37-6.44 14.41 7.3-3.45 14.15-7.84 20.97-12.16-1.67 3.63-3.79 7.03-6.13 10.27-5.75 6.82-13.14 11.95-20.78 16.43-3.99 2.3-7.74 5.05-11.98 6.89 2.3-3.28 5.23-6.05 7.65-9.23 5.11-6.17 9.06-13.21 12.52-20.4z"/><path fill="#c2ddf9" d="M93.83 59.7c3.23.15 5.81 2.45 8.39 4.16-.66 4.01-2.7 7.6-4.84 10.99-1.2-5.03-5.27-9.76-3.55-15.15z"/><path fill="#595afd" d="M3.57 63.7c9.91-.54 20.05.63 29.3 4.35-5.81 1.87-11.62 4.26-17.83 4.23-3.75.14-7.43-.73-11.1-1.33-.22-2.41-.34-4.83-.37-7.25z"/><path fill="#5252fe" d="M104.98 64.25c6.92-.91 13.95-.79 20.9-.22-.06 2.74-.28 5.48-.59 8.2-7.22-.92-13.76-4.33-20.88-5.65.14-.58.42-1.75.57-2.33z"/><path fill="#1d1de3" d="M71.34 95.91c14.31-4.67 28.67-14.13 33.07-29.33 7.12 1.32 13.66 4.73 20.88 5.65-.92 7.88-3.47 15.6-7.6 22.4-4.84-.29-8.42 3.49-12.41 5.61-8.51 4.73-16.86 9.75-25.29 14.63-6.72 3.6-13.11 7.94-20.43 10.28-9.08-.5-17.96-3.44-25.74-8.1 11.01-4.38 20.36-11.9 30.98-17.03 2.38-1.05 5.4-1.4 6.54-4.11z"/><path fill="#0202de" d="M32.87 68.05c6.79 2.51 13.78 4.37 20.91 5.6-8.46 13.15-19.08 25.03-31.8 34.2-10.08-9.69-16.87-22.9-18.04-36.9 3.67.6 7.35 1.47 11.1 1.33 6.21.03 12.02-2.36 17.83-4.23z"/><path fill="#7cb9f9" d="M79.12 68.99c2.84 1.34 3.83 4.56 5.1 7.18-.16.14-.47.43-.63.58l-.87.75-.67.56c-1.13-.72-2.24-1.45-3.36-2.18-.19-2.31-.08-4.63.43-6.89z"/><path fill="#bfdbf9" d="M88.81 70.65c.65-.75 1.3-1.49 1.97-2.22 2.23 2.18 4.31 4.49 6.32 6.86-1.69 2.8-4.18 4.98-6.57 7.16-.13-3.99-.85-7.92-1.72-11.8z"/><path fill="#a4cbf6" d="M88.16 71.42l.65-.77c.87 3.88 1.59 7.81 1.72 11.8-.68.59-1.37 1.17-2.06 1.73-1.38-2.63-2.98-5.15-4.88-7.43.16-.15.47-.44.63-.58 1.41-1.5 2.64-3.15 3.94-4.75z"/><path fill="#9bc7f6" d="M75.14 73.58c1.26 2.47 2.18 5.09 2.86 7.77 1.4-1.04 2.72-2.17 4.05-3.29l.67-.56c-.2 3.36-.01 6.74.45 10.07-.91.5-1.82 1-2.74 1.47-.85-2.55-1.68-5.17-3.28-7.37-.97 2.99-1.09 6.16-.61 9.24-.96.45-1.95.87-2.93 1.28-.29-2.37-.7-4.73-1.71-6.91-2.01 2.38-2.63 5.47-2.81 8.5l-1.55.48c-.21-2.06-.48-4.1-.84-6.13-3.36 1.51-6.84 2.75-10.49 3.37.68-1.35.78-3.24 2.17-4.12 4.5-2.86 9.25-5.5 12.81-9.56 1.13 2.09 1.42 4.41 1.19 6.76 1.2-.87 2.4-1.75 3.59-2.64-1.25-.61-2.48-1.22-3.72-1.84.35-2.41 1.83-4.39 2.89-6.52z"/><path fill="#bddaf9" d="M83.59 76.75c1.9 2.28 3.5 4.8 4.88 7.43-1.64 1.32-3.47 2.37-5.3 3.39-.46-3.33-.65-6.71-.45-10.07l.87-.75z"/><path fill="#bfdbf9" d="M77.15 81.67c1.6 2.2 2.43 4.82 3.28 7.37-1.29.64-2.58 1.26-3.89 1.87-.48-3.08-.36-6.25.61-9.24z"/><path fill="#5ca5f6" d="M66.65 83.31c2.03-.5 3.47.02 4.32 1.57-1.59 1.1-3.26 3.04-5.44 2.24.36-1.28.73-2.55 1.12-3.81z"/><path fill="#c1dcf8" d="M69.09 93.78c.18-3.03.8-6.12 2.81-8.5 1.01 2.18 1.42 4.54 1.71 6.91-1.49.57-3 1.1-4.52 1.59z"/><path fill="#56a2f6" d="M61.36 86.96c1.54-1.5 3.49 1.06 1.3 1.83-1.57 1.48-3.29-.88-1.3-1.83z"/><path fill="#c6dff8" d="M56.21 91.5c3.65-.62 7.13-1.86 10.49-3.37.36 2.03.63 4.07.84 6.13-8.2 2.23-16.5 4.14-24.92 5.29-.37-.19-1.12-.57-1.49-.77 2.82-1.42 5.03-4.41 8.42-4.34 1.05-.99 2.07-2.01 3.08-3.04 1.19.07 2.38.19 3.58.1z"/><path fill="#2c2ce5" d="M105.28 100.24c3.99-2.12 7.57-5.9 12.41-5.61-8.53 14.17-22.49 25.47-38.79 29.17-6.32 1.61-12.88 1.5-19.34 1.35 7.32-2.34 13.71-6.68 20.43-10.28 8.43-4.88 16.78-9.9 25.29-14.63z"/><path fill="#1111e2" d="M40.35 102.49c10.5-1.22 20.97-3.12 30.99-6.58-1.14 2.71-4.16 3.06-6.54 4.11-10.62 5.13-19.97 12.65-30.98 17.03-2.37-1.42-4.59-3.07-6.82-4.7 4.52-3.19 8.81-6.72 13.35-9.86z"/></svg>