<?xml version="1.0" encoding="UTF-8" standalone="no"?>
<!-- Created with Inkscape (http://www.inkscape.org/) -->

<svg
   xmlns:dc="http://purl.org/dc/elements/1.1/"
   xmlns:cc="http://creativecommons.org/ns#"
   xmlns:rdf="http://www.w3.org/1999/02/22-rdf-syntax-ns#"
   xmlns:svg="http://www.w3.org/2000/svg"
   xmlns="http://www.w3.org/2000/svg"
   xmlns:sodipodi="http://sodipodi.sourceforge.net/DTD/sodipodi-0.dtd"
   xmlns:inkscape="http://www.inkscape.org/namespaces/inkscape"
   width="483.77951"
   height="492.57245"
   viewBox="0 0 127.99999 130.32646"
   version="1.1"
   id="svg8"
   inkscape:version="0.92.4 (5da689c313, 2019-01-14)"
   sodipodi:docname="sumo-logo.svg">
  <defs
     id="defs2" />
  <sodipodi:namedview
     id="base"
     pagecolor="#ffffff"
     bordercolor="#666666"
     borderopacity="1.0"
     inkscape:pageopacity="0.0"
     inkscape:pageshadow="2"
     inkscape:zoom="0.85422619"
     inkscape:cx="188.90489"
     inkscape:cy="244.46331"
     inkscape:document-units="px"
     inkscape:current-layer="layer2"
     showgrid="false"
     inkscape:window-width="1916"
     inkscape:window-height="1052"
     inkscape:window-x="0"
     inkscape:window-y="24"
     inkscape:window-maximized="1"
     inkscape:showpageshadow="false"
     units="px"
     fit-margin-top="0"
     fit-margin-left="0"
     fit-margin-right="0"
     fit-margin-bottom="0" />
  <metadata
     id="metadata5">
    <rdf:RDF>
      <cc:Work
         rdf:about="">
        <dc:format>image/svg+xml</dc:format>
        <dc:type
           rdf:resource="http://purl.org/dc/dcmitype/StillImage" />
        <dc:title></dc:title>
      </cc:Work>
    </rdf:RDF>
  </metadata>
  <g
     inkscape:groupmode="layer"
     id="layer2"
     inkscape:label="Layer 2"
     style="display:inline"
     transform="translate(-31.277215,-61.010316)">
    <g
       id="g883"
       transform="matrix(0.38134244,0,0,0.38135121,71.63852,70.568917)"
       style="stroke-width:2.62228489">
      <path
         style="fill:#1f2758;fill-opacity:1;stroke:#000000;stroke-width:0.69381285"
         inkscape:connector-curvature="0"
         id="Selection"
         d="m -1.5119048,236.16099 c 0,0 -7.408333,-5.98223 -7.408333,-5.98223 -3.9052502,-3.20146 -7.6464592,-6.72571 -11.0886882,-10.42194 -12.930187,-13.8774 -22.227646,-30.87688 -27.043062,-49.2125 -10.17323,-38.75881 1.330854,-80.674099 29.665083,-109.008332 0,0 3.96875,-3.923771 3.96875,-3.923771 11.5411202,-10.440459 24.02946,-18.00225 38.62917,-23.341542 9.50383,-3.476625 19.54212,-5.654146 29.63333,-6.360583 0,0 2.64583,-0.240771 2.64583,-0.240771 0,0 6.87917,-0.264583 6.87917,-0.264583 0,0 3.96875,0.264583 3.96875,0.264583 14.18431,0.164042 30.52762,4.492625 43.391675,10.400771 29.91908,13.737166 52.40866,40.195499 61.83841,71.620058 2.32569,7.74965 3.76767,15.75065 4.33123,23.8125 0,0 0.24077,2.64584 0.24077,2.64584 0,0 0,11.1125 0,11.1125 -0.005,3.68829 -0.85196,9.76841 -1.47902,13.49375 -1.75419,10.44839 -4.61433,19.47598 -9.02229,29.10416 0,0 -5.58535,10.58334 -5.58535,10.58334 -0.85196,1.42345 -2.27013,3.86291 -3.38402,4.98739 -1.11919,1.12977 -2.59557,1.00013 -4.07723,1.20915 0,0 -8.73125,1.32291 -8.73125,1.32291 -8.74977,1.57957 -19.59769,5.26786 -28.04584,8.27353 -10.45633,3.72268 -23.569085,9.3636 -32.543755,15.8062 -2.47121,1.77271 -5.38162,4.27832 -7.13316,6.7654 -1.73832,2.46856 -1.53988,4.10898 -3.19617,4.72546 0,0 -6.86858,1.29381 -6.86858,1.29381 -3.6195,0.60325 -10.77384,1.61131 -14.2875,1.65365 0,0 -5.55625,0.26458 -5.55625,0.26458 0,0 -6.08542,0 -6.08542,0 0,0 -4.49792,-0.26458 -4.49792,-0.26458 0,0 -10.31875,0 -10.31875,0 0,0 -3.175,0.26458 -3.175,0.26458 0,0 -2.38125,0 -2.38125,0 -4.66725,0.34131 -9.22073,1.16681 -13.7583298,2.28335 -4.445,1.09009 -8.01422996,1.60073 -12.17083,3.88409 -4.746628,2.60614 -7.0088162,5.91608 -5.19642,11.29506 0.576792,1.71715 1.124479,3.50573 3.07975,3.85233 0,0 5.02708,0.40482 5.02708,0.40482 0,0 7.67292,0.72495 7.67292,0.72495 0,0 5.2916698,0.35455 5.2916698,0.35455 0,0 13.49375,1.03716 13.49375,1.03716 0,0 5.55625,0.34925 5.55625,0.34925 0,0 5.55625,-0.59266 5.55625,-0.59266 0,0 8.73125,-0.59796 8.73125,-0.59796 0,0 2.64583,-0.24077 2.64583,-0.24077 0,0 2.11667,0 2.11667,0 0,0 3.96875,-0.26459 3.96875,-0.26459 9.27629,-0.0132 21.56883,-0.0582 30.42708,2.57175 2.2569,0.6694 6.49552,2.03994 8.1915,3.56923 2.06904,1.86796 1.93146,4.42913 -0.26458,6.14627 -2.65113,2.07434 -4.65402,-0.22225 -8.98525,-1.51341 -4.52173,-1.34673 -12.45923,-2.29923 -17.19792,-2.30717 0,0 -4.49792,-0.26458 -4.49792,-0.26458 0,0 -4.7625,0 -4.7625,0 0,0 -3.96875,0.26458 -3.96875,0.26458 0,0 -12.17083,0.55298 -12.17083,0.55298 0,0 -6.08542,0.57944 -6.08542,0.57944 0,0 -3.96875,0.4445 -3.96875,0.4445 0,0 -10.05416,-0.75936 -10.05416,-0.75936 0,0 -18.2562498,-1.39171 -18.2562498,-1.39171 0,0 -10.05417,-0.93927 -10.05417,-0.93927 -1.243542,-0.14552 -3.1591252,-0.0265 -4.2095212,-0.75935 -1.092729,-0.76465 -3.137958,-4.35769 -3.791479,-5.66473 -2.606146,-5.21229 -3.431646,-10.86644 -0.455083,-16.13958 1.039812,-1.8415 2.415645,-3.30994 3.958166,-4.73869 2.3786042,-2.20398 3.9713962,-2.75167 6.6145842,-4.25715 -1.066271,-1.01864 -2.61673,-1.41816 -3.96875,-1.95791 0,0 -7.1437502,-3.13532 -7.1437502,-3.13532 0,0 -8.995834,-4.91066 -8.995834,-4.91066 0,0 -3.175,-2.15371 -3.175,-2.15371 -2.831041,-1.80181 -6.823604,-3.74121 -10.054166,-4.66196 -2.320396,-0.6641 -4.206875,-0.9181 -6.614584,-0.90752 0,0 -4.233333,0.36777 -4.233333,0.36777 -1.082146,-0.16933 -2.759604,-1.06627 -3.704167,-1.64042 -2.598208,-1.5822 -5.061479,-3.6142 -7.098771,-5.8711 0,0 -5.336645,-6.33942 -5.336645,-6.33942 -3.976688,-3.84704 -8.448146,-6.1595 -14.022917,-6.096 -1.304396,0.0159 -2.463271,0.21432 -3.704167,0.62442 -1.322916,0.43656 -4.352396,1.86002 -4.971521,3.10356 -0.523875,1.05834 0.269875,3.40254 0.656167,4.47411 1.362604,3.74914 3.950229,8.04862 6.167438,11.37708 -3.862917,1.12712 -9.958917,6.47435 -7.432146,11.1125 0.717021,1.31498 1.645708,1.85473 2.624666,2.91306 0,0 7.453313,7.67027 7.453313,7.67027 0,0 16.66875,16.1634 16.66875,16.1634 0,0 5.55625,5.19377 5.55625,5.19377 6.111875,5.38692 13.258271,11.86127 20.108333,16.20044 3.299354,2.09021 9.786938,5.10116 13.49375,6.70189 6.365875,2.74638 12.919604,5.27579 19.5791672,7.22313 5.4954,1.60602 11.02254,3.03212 16.6687498,4.01373 0,0 9.78958,1.39964 9.78958,1.39964 0,0 6.08542,2.01613 6.08542,2.01613 0,0 14.55208,4.86569 14.55208,4.86569 4.95565,1.81239 8.84238,3.89202 14.2875,3.95552 4.98475,0.0582 8.3529,-0.20373 13.22917,-1.42082 0,0 4.49792,-1.31498 4.49792,-1.31498 0,0 3.175,-1.10595 3.175,-1.10595 10.13089,-2.61938 20.2221,-5.10382 30.162505,-8.4164 11.54906,-3.84969 23.12723,-7.94544 33.86666,-13.75304 0,0 12.17084,-7.50358 12.17084,-7.50358 21.1402,-14.09171 38.70589,-32.39559 51.5911,-54.3269 11.94065,-20.32794 20.0951,-43.95523 22.44725,-67.46875 0,0 0.59796,-7.9375 0.59796,-7.9375 0,0 0.24077,-3.175 0.24077,-3.175 0,0 0,-14.55208 0,-14.55208 0,0 -0.254,-2.91042 -0.254,-2.91042 -0.2831,-6.47435 -1.12713,-12.93019 -2.28071,-19.31458 C 222.82831,90.362341 214.1685,68.624175 201.33091,49.365154 193.07062,36.974717 183.06143,25.698175 171.79018,15.993258 161.81539,7.404883 150.94366,0.03359205 139.24643,-6.001554 c 0,0 -2.38125,-1.283229 -2.38125,-1.283229 -17.97579,-8.503708 -34.16564,-13.832417 -53.975005,-16.300979 0,0 -10.31875,-0.891646 -10.31875,-0.891646 0,0 -3.175,-0.240771 -3.175,-0.240771 0,0 -15.34583,0 -15.34583,0 0,0 -6.08542,0.484188 -6.08542,0.484188 -11.34004,1.084791 -22.39962,2.923645 -33.3375,6.204479 -37.988872,11.39825 -69.812955,34.263541 -91.897726,67.394666 -4.0005,6.00075 -7.8105,12.289896 -10.956396,18.785417 -8.395229,17.33285 -14.507103,36.877619 -16.427983,56.091669 0,0 -0.59795,7.9375 -0.59795,7.9375 0,0 -0.24077,3.175 -0.24077,3.175 0,0 0,15.34583 0,15.34583 0,0 0.50535,6.35 0.50535,6.35 0.78052,11.16277 3.11679,21.46829 6.81302,32.01458 0,0 3.992562,9.78959 3.992562,9.78959 0.354542,0.74877 1.190625,2.85485 1.643063,3.302 0.695854,0.80962 1.373187,0.33073 2.12725,0 1.979083,-1.0504 2.6035,-1.43669 4.7625,-2.15636 5.476875,-1.82298 11.385021,-1.59279 16.66875,0.78846 6.720417,3.02948 9.067271,7.86606 14.552083,12.69206 1.227667,1.08215 4.108979,3.87615 5.55625,4.40267 0.632354,0.16404 1.677459,0.0291 2.38125,0 0,0 2.645834,0 2.645834,0 5.262562,0.0847 11.673416,2.47385 16.139583,5.16731 0,0 6.35,4.16454 6.35,4.16454 4.040187,2.46857 8.35025,4.4503 12.7000002,6.29973 1.915583,0.81492 5.19906,2.34157 7.14375,2.64584 z" />
      <path
         sodipodi:nodetypes="cccccccccccccccccccccccccccccccccccccccccccc"
         style="fill:#24bcee;fill-opacity:1;stroke:none;stroke-width:0.69381285"
         inkscape:connector-curvature="0"
         id="Selection #1"
         d="m 58.14658,35.644954 -3.43959,0.254 -10.31875,1.389063 C 34.87647,39.005163 26.70614,41.695975 17.92991,45.725579 11.75453,48.559267 5.1055587,52.715871 -0.32634136,56.790452 -19.794382,71.392812 -33.679712,92.141435 -39.582572,115.7581 c -1.43933,5.7494 -2.42358,11.55435 -2.83633,17.4625 l -0.25136,2.64583 v 3.70417 l -0.24341,2.11667 0.254,4.23333 c 0.008,5.49275 0.73819,11.00402 1.74889,16.40417 4.43177,23.64052 17.10532,44.96858 35.2927707,60.62398 5.58535994,4.80747 13.24769,10.09385 19.8437513,13.3932 2.37861,1.19063 5.55361,3.20411 8.20209,3.24115 h 7.14375 l 4.23333,0.26458 h 4.23333 l 3.70417,0.25136 h 3.96875 l 3.175,-0.25136 h 3.70417 l 3.175,-0.24077 8.99583,-0.74612 c 0.99483,-0.14288 4.516439,-0.6985 5.265209,-1.0504 0.87048,-0.4101 2.69875,-3.34433 3.54277,-4.31271 2.27542,-2.61673 5.00062,-4.84187 7.86077,-6.78921 9.741961,-6.63045 23.786051,-12.65766 34.925011,-16.74547 8.71008,-3.19617 17.67681,-5.96636 26.72292,-8.04334 l 6.87916,-1.49489 c 1.64836,-0.3228 2.45269,-0.10584 3.43959,-1.60073 3.82323,-5.79967 7.88723,-14.57325 10.23673,-21.15344 2.75695,-7.72319 4.70429,-15.66333 5.67795,-23.8125 l 0.48948,-5.02708 0.26459,-4.7625 v -4.23334 l -0.26459,-5.02708 -1.38906,-11.64167 C 164.89273,102.89406 155.20634,83.957872 141.20194,68.926892 127.99394,54.750517 110.841,44.738684 92.27783,39.447017 85.798179,37.600225 79.130679,36.5366 72.434079,35.864559 h -2.38125 L 66.87783,35.644954 Z" />
      <path
         d="m 147.8506,161.66317 c 0,0 0,14.2875 0,14.2875 0.003,1.41023 0.33867,5.28902 0.66146,6.61458 0.18521,0.762 0.55827,1.98173 1.46844,2.11932 1.02394,0.15345 2.00289,-1.13242 2.51619,-1.85473 1.52664,-2.14313 2.91306,-5.23875 3.97404,-7.67292 3.56394,-8.20208 5.83141,-17.00742 6.48494,-25.92917 0,0 0.24077,-2.64583 0.24077,-2.64583 0,0 0,-8.73125 0,-8.73125 0,0 -0.24077,-3.175 -0.24077,-3.175 -0.54505,-7.45331 -2.06905,-14.86958 -4.43442,-21.96042 -5.1435,-15.430482 -14.03615,-31.675846 -26.01648,-42.838626 -9.18104,-8.55397 -21.29367,-14.25045 -33.866698,-15.12887 0,0 -2.64583,-0.24077 -2.64583,-0.24077 -7.58825,-0.0873 -15.02304,1.75683 -21.69583,5.37369 -3.65919,1.98437 -8.46138,5.69118 -11.35327,8.65981 -1.92088,1.97114 -3.73592,4.15131 -5.40809,6.33942 -0.85989,1.12977 -1.94733,2.55058 -2.20133,3.96875 -0.76465,4.27831 2.32833,6.89239 5.46894,9.14664 7.48241,5.371015 13.56783,7.691403 20.37027,14.665796 2.29923,2.35743 4.16718,5.4557 4.74398,8.73125 0.23548,1.33879 0.37041,2.33098 0.26458,3.70416 -0.0767,0.55827 -0.33073,1.44727 0,1.92617 0.5715,0.74083 4.0984,1.01071 5.04825,0.97367 4.80219,-0.18786 9.308038,-2.79136 11.093988,-7.39775 0.52653,-1.35732 0.98426,-3.57452 1.06893,-5.02709 0.0344,-1.2065 -0.41011,-2.10608 0,-2.85221 0.5715,-0.96572 3.17236,-1.5875 4.24128,-1.63512 4.97681,-0.21696 6.6331,3.95817 6.61458,8.1915 -0.0318,6.56431 -6.88975,10.22085 -11.37709,13.91973 -5.286398,4.36033 -9.776378,14.40392 -6.265358,21.00527 2.65377,4.99004 8.085698,7.88723 13.144528,9.89542 7.34219,2.91306 15.24529,4.35504 23.01875,5.56154 0,0 15.08125,2.00554 15.08125,2.00554 z M 1.5359891,215.90275 c 0,0 -0.82550002,-3.43958 -0.82550002,-3.43958 -0.58472997,-2.46592 -0.73289994,-4.11692 -0.89164994,-6.61458 -0.17991,-2.8284 0.85989994,-7.72584 1.45256986,-10.58334 0.62441,-3.01889 1.02923,-6.11716 2.1695801,-8.99583 2.9315801,-7.4004 9.7922319,-16.72431 11.2024629,-24.07708 0.51594,-2.69346 0.49212,-4.23069 -0.25665,-6.87917 -1.349371,-4.78102 -4.6328528,-9.906 -0.367771,-14.24252 0.730251,-0.73819 1.947331,-1.57427 2.862791,-2.07963 1.0795,-0.59531 2.78342,-1.38112 3.96875,-1.69068 3.52954,-0.91811 8.29734,2.28864 11.1125,4.16718 4.91861,3.27819 11.59669,8.78946 17.72709,8.81857 0,0 1.5875,0 1.5875,0 0,0 0,-4.23334 0,-4.23334 0,0 -0.24077,-3.175 -0.24077,-3.175 0,0 -0.78317,-7.67291 -0.78317,-7.67291 -1.82298,-13.09423 -6.63575,-26.82082 -15.91998,-36.512491 -7.08025,-7.389778 -16.67933,-11.604575 -26.7123328,-12.998925 -1.74625,-0.24342 -3.5269001,-0.49213 -5.2916702,-0.49477 -4.5693498,-0.008 -7.2548798,-0.32544 -11.6416576,1.5531 -6.0748394,2.6035 -10.4774994,7.961276 -13.7556894,13.528086 -2.61408,4.44235 -6.38175,12.96458 -7.28927,17.99166 0,0 -0.38629,4.7625 -0.38629,4.7625 -0.09,7.76817 0.36777,13.70542 2.8231,21.16667 2.19075,6.65162 7.10142,12.37985 9.42975,19.05 1.46579,4.20687 1.19063,9.8425 1.2409,14.2875 0,0 0.27516,2.64583 0.27516,2.64583 0,0 0,2.11667 0,2.11667 0.75671,7.57502 3.96611,17.82762 7.8739994,24.34167 2.4182985,4.03225 5.8552278,8.13858 10.6362477,9.26041 z"
         id="Selection #2"
         inkscape:connector-curvature="0"
         style="fill:#1aac50;fill-opacity:1;stroke:none;stroke-width:0.69381285" />
    </g>
  </g>
</svg>
