<svg xmlns="http://www.w3.org/2000/svg" width="1086.47" height="1357.999" viewBox="0 0 287.462 359.304"><path d="M.178.178v271.529H407.47v1086.116H679V271.704h407.293V.178H271.705Z" style="display:inline;opacity:1;fill:#2e4761;fill-opacity:1;stroke:none;stroke-width:.14666668;stroke-miterlimit:4;stroke-dasharray:none;stroke-opacity:1" transform="scale(.26458)"/><path d="m275.409 6.174 71.842 71.842H275.41z" style="opacity:1;fill:#2e4761;fill-opacity:1;stroke:none;stroke-width:.03880556;stroke-miterlimit:4;stroke-dasharray:none;stroke-opacity:1" transform="translate(-275.362 -6.127)"/><path d="m275.409 6.174 35.921 35.92 35.921-35.92Z" style="opacity:1;fill:#537aa1;fill-opacity:1;stroke:none;stroke-width:.03880556;stroke-miterlimit:4;stroke-dasharray:none;stroke-opacity:1" transform="translate(-275.362 -6.127)"/><path d="m347.251 6.174 17.96 17.96-35.92 35.921-17.96-17.96Z" style="opacity:1;fill:#1b2a39;fill-opacity:1;stroke:none;stroke-width:.03880556;stroke-miterlimit:4;stroke-dasharray:none;stroke-opacity:1" transform="translate(-275.362 -6.127)"/><path d="m365.212 24.134 17.96 17.96-35.92 35.922-17.961-17.96Z" style="opacity:1;fill:#263c52;fill-opacity:1;stroke:none;stroke-width:.03880556;stroke-miterlimit:4;stroke-dasharray:none;stroke-opacity:1" transform="translate(-275.362 -6.127)"/><path d="M419.093 6.174v71.842L347.251 6.174Z" style="opacity:1;fill:#2e4761;fill-opacity:1;stroke:none;stroke-width:.03880556;stroke-miterlimit:4;stroke-dasharray:none;stroke-opacity:1" transform="translate(-275.362 -6.127)"/><path d="m383.172 42.095 35.921 35.92h-71.842ZM490.935 6.174l-71.842 71.842V6.174Z" style="opacity:1;fill:#537aa1;fill-opacity:1;stroke:none;stroke-width:.03880556;stroke-miterlimit:4;stroke-dasharray:none;stroke-opacity:1" transform="translate(-275.362 -6.127)"/><path d="M455.014 42.095v35.92l-71.842 71.843V78.016h35.921z" style="opacity:1;fill:#263c52;fill-opacity:1;stroke:none;stroke-width:.03880556;stroke-miterlimit:4;stroke-dasharray:none;stroke-opacity:1" transform="translate(-275.362 -6.127)"/><path d="m490.935 6.174 35.921 35.92-17.96 17.961-35.921-35.92Z" style="opacity:1;fill:#1d2d3d;fill-opacity:.99558859;stroke:none;stroke-width:.03880556;stroke-miterlimit:4;stroke-dasharray:none;stroke-opacity:1" transform="translate(-275.362 -6.127)"/><path d="m472.975 24.134 35.92 35.921-17.96 17.96h-35.92v-35.92z" style="opacity:1;fill:#2e4761;fill-opacity:1;stroke:none;stroke-width:.03880556;stroke-miterlimit:4;stroke-dasharray:none;stroke-opacity:1" transform="translate(-275.362 -6.127)"/><path d="m562.777 6.174-35.92 35.92-35.922-35.92Z" style="opacity:1;fill:#263c52;fill-opacity:1;stroke:none;stroke-width:.03880556;stroke-miterlimit:4;stroke-dasharray:none;stroke-opacity:1" transform="translate(-275.362 -6.127)"/><path d="M562.777 6.174v71.842h-71.842zM455.014 78.016l-35.92 35.92 35.92 35.922z" style="opacity:1;fill:#537aa1;fill-opacity:1;stroke:none;stroke-width:.03880556;stroke-miterlimit:4;stroke-dasharray:none;stroke-opacity:1" transform="translate(-275.362 -6.127)"/><path d="m419.093 113.937 35.921 35.92-17.96 17.961-35.921-35.92z" style="opacity:1;fill:#1b2a39;fill-opacity:1;stroke:none;stroke-width:.03880556;stroke-miterlimit:4;stroke-dasharray:none;stroke-opacity:1" transform="translate(-275.362 -6.127)"/><path d="m401.133 131.897 35.92 35.921-17.96 17.96h-35.92v-35.92z" style="opacity:1;fill:#2e4761;fill-opacity:1;stroke:none;stroke-width:.03880556;stroke-miterlimit:4;stroke-dasharray:none;stroke-opacity:1" transform="translate(-275.362 -6.127)"/><path d="M383.172 185.779h35.921l-35.92 35.92z" style="opacity:1;fill:#537aa1;fill-opacity:.86323529;stroke:none;stroke-width:.03880556;stroke-miterlimit:4;stroke-dasharray:none;stroke-opacity:1" transform="translate(-275.362 -6.127)"/><path d="M455.014 149.858 383.172 221.7h71.842zM383.172 221.7l35.921 35.92-35.92 35.922z" style="opacity:1;fill:#263c52;fill-opacity:1;stroke:none;stroke-width:.03880556;stroke-miterlimit:4;stroke-dasharray:none;stroke-opacity:1" transform="translate(-275.362 -6.127)"/><path d="M383.172 221.7h71.842v71.842z" style="opacity:1;fill:#2e4761;fill-opacity:1;stroke:none;stroke-width:.03880556;stroke-miterlimit:4;stroke-dasharray:none;stroke-opacity:1" transform="translate(-275.362 -6.127)"/><path d="m419.093 257.62 17.96 17.961-35.92 35.921-17.96-17.96z" style="opacity:1;fill:#1c2b3b;fill-opacity:.99509804;stroke:none;stroke-width:.03880556;stroke-miterlimit:4;stroke-dasharray:none;stroke-opacity:1" transform="translate(-275.362 -6.127)"/><path d="m437.054 275.581 17.96 17.96-35.92 35.922-17.961-17.96z" style="opacity:1;fill:#537aa1;fill-opacity:1;stroke:none;stroke-width:.03880556;stroke-miterlimit:4;stroke-dasharray:none;stroke-opacity:1" transform="translate(-275.362 -6.127)"/><path d="M455.014 293.542v71.842l-35.92-35.921z" style="opacity:1;fill:#263c52;fill-opacity:1;stroke:none;stroke-width:.03880556;stroke-miterlimit:4;stroke-dasharray:none;stroke-opacity:1" transform="translate(-275.362 -6.127)"/><path d="m383.172 293.542 71.842 71.842h-71.842z" style="display:inline;opacity:1;fill:#2e4761;fill-opacity:1;stroke:none;stroke-width:.03880556;stroke-miterlimit:4;stroke-dasharray:none;stroke-opacity:1" transform="translate(-275.362 -6.127)"/></svg>
