<svg xmlns="http://www.w3.org/2000/svg" width="48" height="48"><path style="marker:none" color="#000" fill="#222" overflow="visible" d="M91.293-7.18h48v48h-48z"/><g fill="#00d8ff"><path d="M136.162 33.616a4 4 0 1 1-8 0 4 4 0 0 1 8 0zM116.823 12.441a4 4 0 1 1-8 0 4 4 0 0 1 8 0zM117.817 34.752a4 4 0 1 1-8 0 4 4 0 0 1 8 0zM102.775 20.75a4 4 0 1 1-8 0 4 4 0 0 1 8 0zM134.719 1.144a4 4 0 1 1-7.837 1.606 4 4 0 0 1 7.837-1.606zM123.576-2.018a4 4 0 1 1-7.838 1.606 4 4 0 0 1 7.838-1.606zM126.315 14.8a4 4 0 1 1-4.066 6.89 4 4 0 0 1 4.066-6.89z" style="marker:none" color="#000" overflow="visible"/><path d="M108.955 14.209l.469.781.187-.125-.468-.781zm-2.312 1.375l.437.781 1.563-.937-.47-.782zm-2.344 1.375l.469.781 1.562-.937-.469-.782zm-2.313 1.375l.47.781 1.53-.937-.437-.782z" style="text-indent:0;text-align:start;line-height:normal;text-transform:none;block-progression:tb;marker:none;-inkscape-font-specification:Sans" font-weight="400" color="#000" overflow="visible" font-family="Sans"/><path d="M106.28 16.31l-.632 2.466 4.506-4.756-6.339 1.658 2.466.633z" fill-rule="evenodd"/><path d="M116.643 3.834l.78.406.813-1.625-.812-.406zm-1.22 2.406l.813.406.782-1.593-.782-.407zm-1.218 2.438l.813.375.812-1.594-.812-.406z" style="text-indent:0;text-align:start;line-height:normal;text-transform:none;block-progression:tb;marker:none;-inkscape-font-specification:Sans" font-weight="400" color="#000" overflow="visible" font-family="Sans"/><path d="M116.256 5.582l.804 2.415 1.21-6.44-4.43 4.829 2.416-.804z" fill-rule="evenodd"/><path d="M120.143 2.771l.28 1.188.876-.219-.281-1.156zm.5 2.063l.406 1.75.875-.219-.406-1.75zm.625 2.625l.406 1.75.875-.219-.406-1.75zm.625 2.625l.406 1.75.875-.219-.406-1.75zm.625 2.625l.406 1.75.875-.219-.406-1.75z" style="text-indent:0;text-align:start;line-height:normal;text-transform:none;block-progression:tb;marker:none;-inkscape-font-specification:Sans" font-weight="400" color="#000" overflow="visible" font-family="Sans"/><path d="M121.414 6.18l2.168 1.334-3.208-5.713-.295 6.546 1.335-2.168z" fill-rule="evenodd"/><path d="M128.361 6.834l.844.344.531-1.344-.843-.344zm-1 2.5l.844.344.656-1.657-.843-.343zm-1 2.531l.813.313.687-1.657-.843-.343zm-1 2.5l.813.344.687-1.688-.843-.343z" style="text-indent:0;text-align:start;line-height:normal;text-transform:none;block-progression:tb;marker:none;-inkscape-font-specification:Sans" font-weight="400" color="#000" overflow="visible" font-family="Sans"/><path d="M127.978 9.004l1.003 2.34.668-6.518-4.01 5.18 2.339-1.002z" fill-rule="evenodd"/><g><path d="M125.705 22.021l.813 1.594.812-.406-.812-1.625zm1.219 2.407l.844 1.593.78-.406-.812-1.625zm1.25 2.375l.812 1.625.813-.407-.813-1.625zm1.219 2.406l.53 1.062.813-.406-.53-1.062z" style="text-indent:0;text-align:start;line-height:normal;text-transform:none;block-progression:tb;marker:none;-inkscape-font-specification:Sans" font-weight="400" color="#000" overflow="visible" font-family="Sans"/><path d="M128.695 26.852l-2.423-.78 4.476 4.785-1.273-6.428-.78 2.423z" fill-rule="evenodd"/></g><g><path d="M121.361 22.021l.75.47.407-.626-.75-.469zm-1.437 2.282l.75.468.969-1.53-.75-.47zm-1.469 2.28l.781.47.97-1.532-.782-.468zm-1.437 2.282l.78.469.938-1.531-.75-.47zm-1.438 2.281l.75.47.969-1.532-.75-.469z" style="text-indent:0;text-align:start;line-height:normal;text-transform:none;block-progression:tb;marker:none;-inkscape-font-specification:Sans" font-weight="400" color="#000" overflow="visible" font-family="Sans"/><path d="M120.213 24.664l.556 2.484 1.853-6.285-4.893 4.357 2.484-.556z" fill-rule="evenodd"/></g><g><path d="M126.33 33.521l.063.907 1.812-.125-.062-.875zm-2.687.157l.062.906 1.813-.094-.063-.906zm-2.688.187l.063.906 1.78-.125-.03-.906zm-2.687.156l.062.907 1.781-.125-.062-.875z" style="text-indent:0;text-align:start;line-height:normal;text-transform:none;block-progression:tb;marker:none;-inkscape-font-specification:Sans" font-weight="400" color="#000" overflow="visible" font-family="Sans"/><path d="M121.403 34.282l1.685-1.907-6.177 2.186 6.4 1.407-1.908-1.686z" fill-rule="evenodd"/></g><g><path d="M101.393 23.803l1.312 1.218.625-.656-1.312-1.219zm1.968 1.843l1.344 1.22.594-.657-1.313-1.219zm2 1.844l1.313 1.219.594-.656-1.313-1.22zm1.97 1.844l1.312 1.219.625-.657-1.344-1.218zm1.968 1.844l1.281 1.187.625-.656-1.281-1.219z" style="text-indent:0;text-align:start;line-height:normal;text-transform:none;block-progression:tb;marker:none;-inkscape-font-specification:Sans" font-weight="400" color="#000" overflow="visible" font-family="Sans"/><path d="M108.254 29.574l-2.544.091 5.838 2.975-3.385-5.61.091 2.544z" fill-rule="evenodd"/></g></g><path transform="matrix(.95067 0 0 .94725 323.466 71.551)" d="M47.906 25.196c0 13.57-10.961 24.572-24.483 24.572S-1.061 38.767-1.061 25.196C-1.06 11.626 9.901.624 23.423.624c13.522 0 24.483 11.001 24.483 24.572z" style="marker:none" color="#000" fill="none" stroke="#00d8ff" stroke-width="1.043" overflow="visible"/><path style="marker:none" d="M346.984 76.668a2.5 2.5 0 1 1-5 0 2.5 2.5 0 0 1 5 0zM336.984 83.668a2.5 2.5 0 1 1-5 0 2.5 2.5 0 0 1 5 0zM351.484 85.543a3.75 3.75 0 1 1-7.5 0 3.75 3.75 0 0 1 7.5 0zM356.019 80.792a2.5 2.5 0 1 1-5 0 2.5 2.5 0 0 1 5 0zM363.042 83.093a2.5 2.5 0 1 1-5 0 2.5 2.5 0 0 1 5 0zM366.998 96.19a2.5 2.5 0 1 1-5 0 2.5 2.5 0 0 1 5 0zM364.937 104.827a2.5 2.5 0 1 1-5 0 2.5 2.5 0 0 1 5 0zM341.88 105.48a3.75 3.75 0 1 1-7.5 0 3.75 3.75 0 0 1 7.5 0zM331.7 88.473a2.5 2.5 0 1 1-5 0 2.5 2.5 0 0 1 5 0zM339.52 94.362a2.5 2.5 0 1 1-5 0 2.5 2.5 0 0 1 5 0z" color="#000" fill="#00d8ff" overflow="visible"/><path d="M344.838 87.926l-5.889 4.847M344.03 86.129l-12.36 1.954M344.02 85.017l-7.06-.999M345.343 79.016l1.1 3.005M350.632 83.163l.955-.784M351.417 84.838l6.669-1.275M362.387 94.849L350.9 87.553M360.922 102.839l-10.915-14.314M346.106 88.922l-6.348 13.178" fill="none" stroke="#00d8ff" stroke-linecap="square"/><path style="marker:none" d="M355.081 98.735a2.5 2.5 0 1 1-5 0 2.5 2.5 0 0 1 5 0zM352.076 106.071a2.5 2.5 0 1 1-5 0 2.5 2.5 0 0 1 5 0zM355.435 112.523a2.5 2.5 0 1 1-5 0 2.5 2.5 0 0 1 5 0zM330.951 103.861a2.5 2.5 0 1 1-5 0 2.5 2.5 0 0 1 5 0zM345.889 112.877a2.5 2.5 0 1 1-5 0 2.5 2.5 0 0 1 5 0z" color="#000" fill="#00d8ff" overflow="visible"/><path d="M334.43 104.861l-3.513-.587M341.529 103.893l8.786-4.1M351.719 96.388l-2.692-7.324M347.08 105.942l-5.205-.269M340.303 108.536l1.637 2.303M341.517 107.091l9.16 4.358" fill="none" stroke="#00d8ff" stroke-linecap="square"/><path style="marker:none" color="#000" fill="#222" overflow="visible" d="M91.082 69.962h48v48h-48z"/><path style="marker:none" d="M106.897 91.944a2.5 2.5 0 1 0-5 0 2.5 2.5 0 0 0 5 0zM105.736 83.707a2.5 2.5 0 1 0-5 0 2.5 2.5 0 0 0 5 0z" color="#000" fill="#00d8ff" overflow="visible"/><path style="marker:none" d="M117.792 94.206a3.604 3.604 0 1 0-7.208 0 3.604 3.604 0 0 0 7.208 0z" color="#000" fill="#00d8ff" stroke="#00d8ff" stroke-width=".512584" overflow="visible"/><path style="marker:none" d="M101.26 97.19a2.5 2.5 0 1 0-5 0 2.5 2.5 0 0 0 5 0zM127.142 96.117a2.5 2.5 0 1 0-5 0 2.5 2.5 0 0 0 5 0zM130.977 88.156a2.5 2.5 0 1 0-5 0 2.5 2.5 0 0 0 5 0zM113.003 85.796a2.5 2.5 0 1 0-5 0 2.5 2.5 0 0 0 5 0zM119.055 80.26a2.5 2.5 0 1 0-5 0 2.5 2.5 0 0 0 5 0z" color="#000" fill="#00d8ff" overflow="visible"/><path d="M114.791 90.653l1.346-7.928M112.741 90.904l-1.234-2.818M111.586 91.712l-6.545-6.275M106.834 92.507l3.842.888M110.649 94.89l-9.434 1.825M117.734 94.854l4.449.813M126.174 89.131l-8.666 3.67" fill="none" stroke="#00d8ff" stroke-linecap="square"/><path style="marker:none" d="M123.48 85.787a2.5 2.5 0 1 0-5 0 2.5 2.5 0 0 0 5 0z" color="#000" fill="#00d8ff" overflow="visible"/><path d="M119.41 87.733l-2.959 3.668" fill="none" stroke="#00d8ff" stroke-linecap="square"/><path style="marker:none" d="M109.063 99.5a2.5 2.5 0 1 0-5 0 2.5 2.5 0 0 0 5 0zM112.813 107.25a2.5 2.5 0 1 0-5 0 2.5 2.5 0 0 0 5 0zM119.688 102.5a2.5 2.5 0 1 0-5 0 2.5 2.5 0 0 0 5 0zM129.938 103.125a2.5 2.5 0 1 0-5 0 2.5 2.5 0 0 0 5 0z" color="#000" fill="#00d8ff" overflow="visible"/><path d="M111.227 96.262l-2.61 1.812M113.161 97.662l-2.136 7.19M115.414 97.597l.923 2.551M117.178 96.22l8.185 5.509" fill="none" stroke="#00d8ff" stroke-linecap="square"/><path style="marker:none" color="#000" fill="#00d8ff" overflow="visible" d="M23.163 100.889h6v4h-6zM175.816 79.223l3.716-4.711 3.14 2.477-3.715 4.71zM162.623 95.947l3.716-4.71 3.14 2.477-3.716 4.71zM169.22 87.585l3.716-4.71 3.14 2.476-3.716 4.711zM182.413 70.86l3.716-4.71 3.14 2.477-3.716 4.71zM189.009 62.499l3.716-4.711 3.14 2.477-3.716 4.71z"/><path style="marker:none" d="M83.625 76.625l-2.742 6.5-7 .875-4.258-5.625 2.742-6.5 7-.875z" color="#000" fill="none" stroke="#00d8ff" stroke-width=".533" stroke-linecap="square" overflow="visible"/><path style="marker:none" d="M42.688 114.625L9.944 131.588l-31.063-19.875 1.682-36.838 32.743-16.963 31.063 19.875zM130.125 109.25l-21.036 6.186-15.875-15.125L98.375 79l21.036-6.186 15.875 15.125z" color="#000" fill="none" stroke="#00d8ff" stroke-linecap="square" overflow="visible"/><path style="marker:none" color="#000" fill="#222" overflow="visible" d="M81 124.75h48v48H81z"/><path d="M96.895 146.396a2.683 2.683 0 1 0-5.366 0 2.683 2.683 0 1 0 5.366 0zM95.65 137.555a2.683 2.683 0 1 0-5.367 0 2.683 2.683 0 1 0 5.366 0z" style="marker:none" color="#000" fill="#00d8ff" overflow="visible"/><path d="M108.589 148.824a3.868 3.868 0 1 0-7.737 0 3.868 3.868 0 1 0 7.737 0z" style="marker:none" color="#000" fill="#00d8ff" stroke="#00d8ff" stroke-width=".5501520000000001" overflow="visible"/><path d="M90.845 152.025a2.683 2.683 0 1 0-5.367 0 2.683 2.683 0 1 0 5.367 0zM118.624 150.874a2.683 2.683 0 1 0-5.366 0 2.683 2.683 0 1 0 5.366 0zM122.74 142.33a2.683 2.683 0 1 0-5.366 0 2.683 2.683 0 1 0 5.366 0zM103.45 139.797a2.683 2.683 0 1 0-5.367 0 2.683 2.683 0 1 0 5.366 0zM109.944 133.856a2.683 2.683 0 1 0-5.366 0 2.683 2.683 0 1 0 5.366 0z" style="marker:none" color="#000" fill="#00d8ff" overflow="visible"/><path d="M105.368 145.01l1.444-8.509M103.168 145.28l-1.325-3.025M101.928 146.147l-7.025-6.735M96.827 147l4.124.953M100.922 149.558l-10.125 1.958M108.526 149.52l4.775.872M117.585 143.376l-9.301 3.939" fill="none" stroke="#00d8ff" stroke-width="1.073" stroke-linecap="square"/><path d="M114.694 139.787a2.683 2.683 0 1 0-5.367 0 2.683 2.683 0 1 0 5.367 0z" style="marker:none" color="#000" fill="#00d8ff" overflow="visible"/><path d="M110.326 141.876l-3.177 3.937" fill="none" stroke="#00d8ff" stroke-width="1.073" stroke-linecap="square"/><path d="M99.087 155.964a2.683 2.683 0 1 0-5.367 0 2.683 2.683 0 1 0 5.367 0zM103.807 163.198a2.683 2.683 0 1 0-5.367 0 2.683 2.683 0 1 0 5.367 0zM110.998 157.225a2.683 2.683 0 1 0-5.366 0 2.683 2.683 0 1 0 5.366 0zM121.624 158.396a2.683 2.683 0 1 0-5.366 0 2.683 2.683 0 1 0 5.366 0z" style="marker:none" color="#000" fill="#00d8ff" overflow="visible"/><path d="M101.785 151.343l-3.345 2.873M103.781 152.577l-2.006 8.018M106.242 152.381l1.017 2.377M107.93 150.984l8.785 5.913" fill="none" stroke="#00d8ff" stroke-width="1.073" stroke-linecap="square"/><path style="marker:none" d="M110.76 125.973l16.727 16.555-5.973 22.763-22.7 6.208-16.727-16.554 5.974-22.763z" color="#000" fill="none" stroke="#00d8ff" stroke-width="1.50045942" stroke-linecap="square" overflow="visible"/><path style="marker:none" color="#000" fill="#222" overflow="visible" d="M1413.116-128.508h420v420h-420z"/><g><path style="marker:none" d="M-5.732-4.638c0 12.674-10.274 22.948-22.947 22.948-12.674 0-22.948-10.274-22.948-22.948 0-12.673 10.274-22.947 22.948-22.947 12.673 0 22.947 10.274 22.947 22.947z" color="#000" fill="none" stroke="#00d8ff" stroke-width="2.10504" stroke-linecap="square" overflow="visible"/><path style="marker:none" d="M-36.947-7.378a2.824 2.824 0 1 0-5.648 0 2.824 2.824 0 0 0 5.648 0zM-38.259-16.684a2.824 2.824 0 1 0-5.648 0 2.824 2.824 0 0 0 5.648 0z" color="#000" fill="#00d8ff" overflow="visible"/><path style="marker:none" d="M-24.64-4.823a4.071 4.071 0 1 0-8.142 0 4.071 4.071 0 0 0 8.142 0z" color="#000" fill="#00d8ff" stroke="#00d8ff" stroke-width=".579044" overflow="visible"/><path style="marker:none" d="M-43.315-1.453a2.824 2.824 0 1 0-5.649 0 2.824 2.824 0 0 0 5.649 0zM-13.024-5.647a2.824 2.824 0 1 0-5.649 0 2.824 2.824 0 0 0 5.649 0zM-9.745-11.658a2.824 2.824 0 1 0-5.648 0 2.824 2.824 0 0 0 5.648 0zM-30.049-14.324a2.824 2.824 0 1 0-5.648 0 2.824 2.824 0 0 0 5.648 0zM-23.213-20.577a2.824 2.824 0 1 0-5.648 0 2.824 2.824 0 0 0 5.648 0z" color="#000" fill="#00d8ff" overflow="visible"/><path d="M-28.03-8.838l1.52-8.954M-30.345-8.553l-1.395-3.184M-31.65-7.64l-7.394-7.09M-37.019-6.742l4.34 1.002M-32.71-4.05l-10.656 2.06M-24.648-5.083l5.981-.383M-15.17-10.556l-9.79 4.145" fill="none" stroke="#00d8ff" stroke-width="1.1297048" stroke-linecap="square"/><path style="marker:none" d="M-18.214-14.334a2.824 2.824 0 1 0-5.648 0 2.824 2.824 0 0 0 5.648 0z" color="#000" fill="#00d8ff" overflow="visible"/><path d="M-22.812-12.136l-3.342 4.144" fill="none" stroke="#00d8ff" stroke-width="1.1297048" stroke-linecap="square"/><path style="marker:none" d="M-36.715 2.268a2.824 2.824 0 1 0-5.649 0 2.824 2.824 0 0 0 5.649 0zM-35.03 9.947a2.824 2.824 0 1 0-5.647 0 2.824 2.824 0 0 0 5.648 0zM-27.193 7a2.824 2.824 0 1 0-5.648 0 2.824 2.824 0 0 0 5.648 0zM-9.428.779a2.824 2.824 0 1 0-5.649 0 2.824 2.824 0 0 0 5.649 0z" color="#000" fill="#00d8ff" overflow="visible"/><path d="M-32.117-2.592L-37.177.72M-30.854-1.36l-5.513 8.905M-29.158-.776l-.549 4.968M-24.856-3.51l9.93 3.379" fill="none" stroke="#00d8ff" stroke-width="1.1297048" stroke-linecap="square"/><path style="marker:none" d="M-19.944 10.699a2.824 2.824 0 1 0-5.648 0 2.824 2.824 0 0 0 5.648 0zM-17.502 3.02a2.824 2.824 0 1 0-5.648 0 2.824 2.824 0 0 0 5.648 0z" color="#000" fill="#00d8ff" overflow="visible"/><path d="M-25.738-2.042l3.35 3.133M-27.255-1.02l3.477 9.08" stroke="#00d8ff" stroke-width="1.1297048" stroke-linecap="square" fill="none"/></g><g><path style="marker:none" d="M46.947 24c0 12.674-10.273 22.947-22.947 22.947S1.053 36.674 1.053 24 11.326 1.053 24 1.053 46.947 11.326 46.947 24z" color="#000" fill="#222" stroke="#00d8ff" stroke-width="2.10504" stroke-linecap="square" overflow="visible"/><path style="marker:none" d="M15.732 21.26a2.824 2.824 0 1 0-5.648 0 2.824 2.824 0 0 0 5.648 0zM14.42 11.954a2.824 2.824 0 1 0-5.648 0 2.824 2.824 0 0 0 5.649 0z" color="#000" fill="#00d8ff" overflow="visible"/><path style="marker:none" d="M28.04 23.815a4.071 4.071 0 1 0-8.143 0 4.071 4.071 0 0 0 8.143 0z" color="#000" fill="#00d8ff" stroke="#00d8ff" stroke-width=".579044" overflow="visible"/><path style="marker:none" d="M9.364 27.185a2.824 2.824 0 1 0-5.648 0 2.824 2.824 0 0 0 5.648 0zM39.655 22.991a2.824 2.824 0 1 0-5.648 0 2.824 2.824 0 0 0 5.648 0zM42.935 16.98a2.824 2.824 0 1 0-5.649 0 2.824 2.824 0 0 0 5.649 0zM22.63 14.314a2.824 2.824 0 1 0-5.648 0 2.824 2.824 0 0 0 5.648 0zM29.467 8.06a2.824 2.824 0 1 0-5.649 0 2.824 2.824 0 0 0 5.649 0z" color="#000" fill="#00d8ff" overflow="visible"/><path d="M24.65 19.8l1.52-8.955M22.334 20.085L20.94 16.9M21.03 20.997l-7.395-7.088M15.66 21.895L20 22.898M19.97 24.588l-10.657 2.06M28.032 23.555l5.98-.384M37.51 18.082l-9.791 4.145" fill="none" stroke="#00d8ff" stroke-width="1.1297048" stroke-linecap="square"/><path style="marker:none" d="M34.465 14.304a2.824 2.824 0 1 0-5.648 0 2.824 2.824 0 0 0 5.648 0z" color="#000" fill="#00d8ff" overflow="visible"/><path d="M29.868 16.502l-3.343 4.144" fill="none" stroke="#00d8ff" stroke-width="1.1297048" stroke-linecap="square"/><path style="marker:none" d="M15.964 30.906a2.824 2.824 0 1 0-5.648 0 2.824 2.824 0 0 0 5.648 0zM17.65 38.585a2.824 2.824 0 1 0-5.648 0 2.824 2.824 0 0 0 5.648 0zM25.487 35.637a2.824 2.824 0 1 0-5.648 0 2.824 2.824 0 0 0 5.648 0zM43.251 29.417a2.824 2.824 0 1 0-5.648 0 2.824 2.824 0 0 0 5.648 0z" color="#000" fill="#00d8ff" overflow="visible"/><path d="M20.562 26.046l-5.06 3.313M21.825 27.277l-5.512 8.906M23.521 27.862l-.548 4.968M27.824 25.127l9.929 3.38" fill="none" stroke="#00d8ff" stroke-width="1.1297048" stroke-linecap="square"/><path style="marker:none" d="M32.735 39.336a2.824 2.824 0 1 0-5.648 0 2.824 2.824 0 0 0 5.648 0zM35.177 31.659a2.824 2.824 0 1 0-5.648 0 2.824 2.824 0 0 0 5.648 0z" color="#000" fill="#00d8ff" overflow="visible"/><path d="M26.942 26.596l3.349 3.133M25.425 27.618l3.476 9.08" stroke="#00d8ff" stroke-width="1.1297048" stroke-linecap="square" fill="none"/></g></svg>