<svg width="1024" height="1024" viewBox="0 0 1024 1024" fill="none" xmlns="http://www.w3.org/2000/svg">
<path d="M429.389 269.137H429.459C455.243 178.999 567.597 135 682.092 135C761.211 135 832.234 160.047 880.924 199.811C851.866 201.181 823.177 206.883 795.804 216.727C835.147 231.35 868.944 253.847 893.991 281.678C875.095 278.426 855.932 276.976 836.761 277.35C883.879 345.603 909.052 426.608 908.919 509.545C908.919 735.681 725.6 919 499.464 919C276.815 919 90.0098 732.581 90.0098 509.545C90.0098 474.321 94.6892 437.949 103.779 403.836C106.166 396.676 109.488 389.809 113.899 387.294C119.42 384.147 124.451 393.529 125.258 396.583C131.245 419.009 139.301 440.831 149.322 461.768C148.445 415.02 168.414 372.437 195.883 335.609C214.203 311.054 231.19 288.3 239.028 222.635C239.554 218.225 243.731 215.054 247.954 216.435C307.57 235.948 339.438 335.223 334.489 418.237C367.421 422.952 367.269 388.546 367.269 388.546C356.74 356.187 363.759 296.044 429.272 269.137H429.389Z" fill="url(#paint0_linear_580_5)"/>
<path opacity="0.9" d="M895.523 405.275C905.479 630.475 720.347 824.638 494.598 824.638C283.261 824.638 110.085 661.29 94.4202 453.965C91.6255 473.38 90.1559 492.962 90.0215 512.576C91.6242 734.406 277.973 919 499.476 919C725.612 919 908.93 735.682 908.93 509.546C908.93 473.514 904.262 438.57 895.523 405.275Z" fill="url(#paint1_radial_580_5)"/>
<path style="mix-blend-mode:screen" d="M489.486 298.981C485.075 291.178 464.708 279.631 455.805 277.619C489.497 169.698 661.141 136.568 766.195 155.66C809.913 163.615 864.359 187.434 880.924 199.811C832.234 160.047 761.2 135 682.093 135C567.598 135 455.244 178.999 429.46 269.137H429.272C363.76 296.044 356.741 356.211 367.269 388.557C377.377 349.963 425.47 302.537 489.486 298.981Z" fill="url(#paint2_radial_580_5)"/>
<path d="M608.472 224.449C516.497 242.546 486.443 248.466 455.664 277.724C490.234 186.206 578.477 167.651 683.625 209.369C658.6 214.527 633.549 219.558 608.472 224.46V224.449Z" fill="url(#paint3_linear_580_5)"/>
<path d="M112.238 391.307C87.1091 494.185 106.529 615.103 220.685 716.578C186.7 679.411 145.205 542.185 236.771 444.15C242.936 437.54 253.546 442.395 253.886 451.427C261.431 655.171 425.833 779.61 615.375 756.341C556.648 753.042 362.426 685.015 506.905 658.108C582.42 644.034 700.823 621.982 700.823 515.734C700.823 343.506 567.656 293.155 486.9 300.642C431.636 305.766 382.443 340.839 367.305 388.535C373.119 407.334 349.944 420.495 334.49 418.284C339.45 335.282 307.583 235.949 247.955 216.435C243.743 215.055 239.555 218.225 239.028 222.635C231.19 288.3 214.204 311.054 195.895 335.61C168.415 372.449 148.445 415.02 149.323 461.768C139.302 440.831 131.246 419.009 125.259 396.583C124.592 394.056 120.93 387.002 116.508 386.674C114.11 386.499 112.835 388.839 112.238 391.307Z" fill="url(#paint4_radial_580_5)"/>
<path style="mix-blend-mode:screen" d="M456.168 668.532C567.352 758.81 790.95 691.122 790.95 471.619C700.682 608.447 585.708 702.832 456.18 668.532H456.168Z" fill="url(#paint5_linear_580_5)"/>
<path style="mix-blend-mode:screen" d="M236.771 444.15C237.782 443.019 239.055 442.154 240.479 441.632C241.903 441.109 243.434 440.946 244.936 441.155C162.975 541.12 229.085 716.682 274.452 759.815C276.991 766.998 231.413 729.645 225.131 720.906C190.619 691.624 141.157 546.525 236.771 444.15Z" fill="url(#paint6_linear_580_5)"/>
<path d="M499.463 676.802C610.671 676.802 700.833 603.24 700.833 512.494C700.833 421.747 610.671 348.186 499.463 348.186C404.587 348.186 298.047 409.908 298.094 514.892C298.141 677.118 469.526 770.45 615.62 756.318C604.646 755.043 536.186 751.404 489.917 699.064C485.741 694.35 478.499 686.114 481.787 680.768C485.062 675.421 494.094 676.79 499.452 676.79L499.463 676.802Z" fill="url(#paint7_linear_580_5)"/>
<path d="M527.716 265.99C549.265 259.205 547.37 237.878 547.37 237.878C547.37 237.878 536.596 225.185 515.246 232.216C495.264 238.802 492.164 253.039 492.164 253.039C492.164 253.039 503.079 273.746 527.716 265.99Z" fill="white"/>
<g clip-path="url(#clip0_580_5)">
<path fill-rule="evenodd" clip-rule="evenodd" d="M600.185 440.035C605.146 431.444 602.202 420.458 593.61 415.497C585.019 410.537 574.032 413.481 569.072 422.072L545.318 463.216C530.99 458.489 515.553 455.914 499.465 455.914C483.239 455.914 467.676 458.533 453.244 463.338L430.284 423.569C425.323 414.978 414.337 412.034 405.745 416.994C397.154 421.955 394.21 432.941 399.17 441.532L420.797 478.99C385.973 501.767 363.244 539.262 363.244 581.656L363.277 581.662C363.255 582.157 363.244 582.654 363.244 583.153C363.244 601.341 377.988 616.086 396.177 616.086H602.753C620.941 616.086 635.685 601.341 635.685 583.153C635.685 582.655 635.674 582.159 635.652 581.667L635.685 581.656C635.685 539.133 612.818 501.539 577.815 478.782L600.185 440.035ZM436.594 572.675C449.821 572.675 460.545 561.952 460.545 548.724C460.545 535.496 449.821 524.773 436.594 524.773C423.366 524.773 412.643 535.496 412.643 548.724C412.643 561.952 423.366 572.675 436.594 572.675ZM562.336 572.675C575.564 572.675 586.287 561.952 586.287 548.724C586.287 535.496 575.564 524.773 562.336 524.773C549.108 524.773 538.385 535.496 538.385 548.724C538.385 561.952 549.108 572.675 562.336 572.675Z" fill="white"/>
</g>
<g clip-path="url(#clip1_580_5)">
<path fill-rule="evenodd" clip-rule="evenodd" d="M600.185 434.048C605.146 425.457 602.202 414.471 593.61 409.51C585.019 404.55 574.032 407.494 569.072 416.085L545.318 457.229C530.99 452.502 515.553 449.927 499.465 449.927C483.239 449.927 467.676 452.546 453.244 457.351L430.284 417.582C425.323 408.99 414.337 406.047 405.745 411.007C397.154 415.968 394.21 426.954 399.17 435.545L420.797 473.003C385.973 495.78 363.244 533.275 363.244 575.669L363.277 575.675C363.255 576.169 363.244 576.667 363.244 577.166C363.244 595.354 377.988 610.099 396.177 610.099H602.753C620.941 610.099 635.685 595.354 635.685 577.166C635.685 576.668 635.674 576.172 635.652 575.679L635.685 575.669C635.685 533.146 612.818 495.552 577.815 472.795L600.185 434.048ZM436.594 566.688C449.821 566.688 460.545 555.965 460.545 542.737C460.545 529.509 449.821 518.786 436.594 518.786C423.366 518.786 412.643 529.509 412.643 542.737C412.643 555.965 423.366 566.688 436.594 566.688ZM562.336 566.688C575.564 566.688 586.287 555.965 586.287 542.737C586.287 529.509 575.564 518.786 562.336 518.786C549.108 518.786 538.385 529.509 538.385 542.737C538.385 555.965 549.108 566.688 562.336 566.688Z" fill="url(#paint8_linear_580_5)"/>
</g>
<path fill-rule="evenodd" clip-rule="evenodd" d="M580.312 474.458L577.815 478.783C612.011 501.016 634.625 537.409 635.649 578.726C635.673 578.209 635.685 577.689 635.685 577.166C635.685 576.668 635.674 576.172 635.652 575.679L635.685 575.669C635.685 534.165 613.901 497.358 580.312 474.458ZM363.28 578.726C364.301 537.537 386.778 501.242 420.797 478.991L418.304 474.673C384.892 497.588 363.244 534.295 363.244 575.669L363.277 575.675C363.255 576.17 363.244 576.667 363.244 577.166C363.244 577.689 363.256 578.209 363.28 578.726ZM593.61 409.51C600.297 413.371 603.563 420.882 602.343 428.074C601.482 422.975 598.438 418.285 593.61 415.498C585.019 410.538 574.032 413.481 569.072 422.073L545.318 463.217C530.99 458.49 515.553 455.915 499.465 455.915C483.239 455.915 467.676 458.534 453.244 463.338L430.284 423.57C425.323 414.978 414.337 412.035 405.745 416.995C400.918 419.782 397.873 424.472 397.012 429.571C395.793 422.379 399.058 414.868 405.745 411.007C414.337 406.047 425.323 408.99 430.284 417.582L453.244 457.351C467.676 452.546 483.239 449.927 499.465 449.927C515.553 449.927 530.99 452.502 545.318 457.229L569.072 416.085C574.032 407.494 585.019 404.55 593.61 409.51ZM460.359 545.731C458.886 557.546 448.807 566.688 436.594 566.688C424.38 566.688 414.301 557.546 412.828 545.731C412.706 546.712 412.643 547.711 412.643 548.725C412.643 561.953 423.366 572.676 436.594 572.676C449.821 572.676 460.545 561.953 460.545 548.725C460.545 547.711 460.482 546.712 460.359 545.731ZM586.101 545.731C584.628 557.546 574.55 566.688 562.336 566.688C550.122 566.688 540.044 557.546 538.57 545.731C538.448 546.712 538.385 547.711 538.385 548.725C538.385 561.953 549.108 572.676 562.336 572.676C575.564 572.676 586.287 561.953 586.287 548.725C586.287 547.711 586.224 546.712 586.101 545.731Z" fill="#166534"/>
<defs>
<linearGradient id="paint0_linear_580_5" x1="232.126" y1="269.956" x2="809.339" y2="808.354" gradientUnits="userSpaceOnUse">
<stop stop-color="#1B91F3"/>
<stop offset="1" stop-color="#0B68CB"/>
</linearGradient>
<radialGradient id="paint1_radial_580_5" cx="0" cy="0" r="1" gradientTransform="matrix(137.963 317.561 -304.213 132.16 231.061 455.205)" gradientUnits="userSpaceOnUse">
<stop offset="0.53" stop-color="#0B4186" stop-opacity="0"/>
<stop offset="1" stop-color="#0B4186" stop-opacity="0.45"/>
</radialGradient>
<radialGradient id="paint2_radial_580_5" cx="0" cy="0" r="1" gradientTransform="matrix(-45.5664 -58.3297 96.5259 -75.3981 509.993 313.007)" gradientUnits="userSpaceOnUse">
<stop stop-color="#EF3ACC" stop-opacity="0"/>
<stop offset="1" stop-color="#EF3ACC" stop-opacity="0.64"/>
</radialGradient>
<linearGradient id="paint3_linear_580_5" x1="392.737" y1="407.779" x2="600.435" y2="176.566" gradientUnits="userSpaceOnUse">
<stop stop-color="#0F5DB0"/>
<stop offset="1" stop-color="#0F5DB0" stop-opacity="0"/>
</linearGradient>
<radialGradient id="paint4_radial_580_5" cx="0" cy="0" r="1" gradientTransform="matrix(234.559 -486.56 601.044 289.753 345.042 732.64)" gradientUnits="userSpaceOnUse">
<stop offset="0.02" stop-color="#094188"/>
<stop offset="0.97" stop-color="#0B4186" stop-opacity="0"/>
</radialGradient>
<linearGradient id="paint5_linear_580_5" x1="756.743" y1="575.188" x2="660.17" y2="812.309" gradientUnits="userSpaceOnUse">
<stop stop-color="#E247C4" stop-opacity="0"/>
<stop offset="1" stop-color="#E247C4" stop-opacity="0.64"/>
</linearGradient>
<linearGradient id="paint6_linear_580_5" x1="157.875" y1="362.54" x2="242.959" y2="704.984" gradientUnits="userSpaceOnUse">
<stop offset="0.1" stop-color="#EF3ACC"/>
<stop offset="1" stop-color="#EF3ACC" stop-opacity="0"/>
</linearGradient>
<linearGradient id="paint7_linear_580_5" x1="499.463" y1="408.352" x2="499.463" y2="754.633" gradientUnits="userSpaceOnUse">
<stop stop-color="white"/>
<stop offset="0.91" stop-color="#DCFCE7"/>
<stop offset="1" stop-color="#BBF7D0"/>
</linearGradient>
<linearGradient id="paint8_linear_580_5" x1="511.732" y1="569.688" x2="511.705" y2="468.35" gradientUnits="userSpaceOnUse">
<stop stop-color="#22C55E"/>
<stop offset="1" stop-color="#16A34A"/>
</linearGradient>
<clipPath id="clip0_580_5">
<rect width="272.441" height="272.441" fill="white" transform="translate(363.244 378.658)"/>
</clipPath>
<clipPath id="clip1_580_5">
<rect width="272.441" height="272.441" fill="white" transform="translate(363.244 372.671)"/>
</clipPath>
</defs>
</svg>
