<?xml version="1.0" encoding="UTF-8" standalone="no"?>
<svg
   width="250"
   height="250"
   viewBox="0 0 250 250"
   version="1.1"
   id="svg1"
   sodipodi:docname="webcompat.svg"
   inkscape:version="1.4.2 (ebf0e940d0, 2025-05-08)"
   xmlns:inkscape="http://www.inkscape.org/namespaces/inkscape"
   xmlns:sodipodi="http://sodipodi.sourceforge.net/DTD/sodipodi-0.dtd"
   xmlns="http://www.w3.org/2000/svg"
   xmlns:svg="http://www.w3.org/2000/svg">
  <defs
     id="defs1" />
  <sodipodi:namedview
     id="namedview1"
     pagecolor="#505050"
     bordercolor="#ffffff"
     borderopacity="1"
     inkscape:showpageshadow="0"
     inkscape:pageopacity="0"
     inkscape:pagecheckerboard="1"
     inkscape:deskcolor="#505050"
     inkscape:zoom="1.2760593"
     inkscape:cx="101.09248"
     inkscape:cy="105.79445"
     inkscape:window-width="1504"
     inkscape:window-height="969"
     inkscape:window-x="0"
     inkscape:window-y="0"
     inkscape:window-maximized="0"
     inkscape:current-layer="Page-1" />
  <g
     id="Page-1"
     stroke="none"
     stroke-width="1"
     fill="none"
     fill-rule="evenodd"
     style="stroke:#000000;stroke-opacity:1">
    <g
       id="bulb"
       transform="matrix(0.98546413,0,0,0.98546413,-12.069499,-188.22365)"
       style="fill:none;fill-opacity:1;stroke:#000000;stroke-opacity:1">
      <g
         id="lightbulb"
         transform="translate(62)"
         style="fill:none;fill-opacity:1;stroke:#000000;stroke-opacity:1">
        <path
           d="M 0.77366667,376.67658 C 4.3854039,415.0469 31.708981,441.93757 77.091244,441.93757 c 45.382266,0 72.705836,-26.89067 76.317576,-65.26099 2.82658,-38.84209 -10.05005,-50.95075 -27.16654,-75.95436 -5.49613,-7.86277 -8.95083,-16.51182 -11.14928,-24.6891 0,0 -51.663545,0.62902 -51.820577,0 H 39.246519 c -2.198448,8.17728 -5.653154,16.82633 -11.149275,24.6891 -17.273526,25.00361 -30.1501543,37.11227 -27.32357733,75.95436 z"
           id="Shape"
           stroke="#505050"
           stroke-width="5.5"
           style="fill:none;fill-opacity:1;stroke:#000000;stroke-opacity:1" />
        <path
           d="m 121.5691,369.85178 c -0.43473,-0.65302 -0.86946,-1.08837 -1.52155,-5.0065 L 93.311721,283 c -2.825738,0.43535 -1.738915,0.43535 -2.825738,0.43535 h -1.95628 c -1.304187,0.43534 -0.869458,1.95906 -0.434729,3.2651 l 25.214276,76.83879 c -6.0862,-3.04743 -13.693959,-4.35347 -19.997529,-2.39441 -1.304186,0.43535 -2.608373,1.08837 -3.695196,1.74139 l -10.650858,-3.2651 c -4.564654,0 -9.129308,1.52371 -12.389775,4.13579 -1.95628,-1.08836 -4.129924,-1.74138 -6.520933,-2.3944 -7.173028,-1.74139 -13.476597,-1.30605 -18.693344,1.30604 l 24.779549,-75.75043 c 0.434728,-1.30604 0.869457,-3.48277 0.652093,-3.48277 -5.651476,-0.21768 -5.651476,0.21767 -5.434112,1.74139 l -27.170557,83.15132 c -0.217365,0.21767 -0.434729,0.43535 -0.652094,0.8707 -0.869457,1.08836 -0.652093,2.61208 0.434729,3.48277 1.086823,0.8707 2.608374,0.65303 3.477832,-0.43534 4.999382,-6.31254 12.17241,-8.2716 21.301717,-5.87719 1.086822,0.21767 2.608373,0.65302 4.129925,1.52371 -1.521552,2.39441 -2.391009,5.22417 -2.173645,7.83626 0.217365,5.65951 2.173645,9.57763 5.216747,11.10135 1.738916,0.87069 3.695196,0.87069 5.434112,-0.21767 2.608373,-1.74139 3.91256,-5.87719 3.477831,-11.10136 -0.217364,-3.2651 -1.738916,-6.09486 -4.129925,-8.48927 4.129925,-2.61208 10.433494,-2.82976 14.998148,-0.43535 -1.738916,2.39441 -2.608373,5.44184 -2.825738,8.92462 -0.217364,5.00649 1.304187,8.92462 4.129925,10.66601 1.738916,1.08837 3.91256,1.08837 5.86884,0.21767 2.825738,-1.74139 4.564654,-5.65951 4.34729,-10.666 0,-3.26511 -1.304187,-6.53021 -3.477832,-9.1423 0.434729,-0.21767 0.652094,-0.21767 1.086823,-0.43535 7.607757,-2.39441 18.693347,1.95907 22.823267,6.96556 0.86946,1.08837 2.39101,1.30604 3.47783,0.43535 1.08682,-1.08837 1.30419,-2.61209 0.43473,-3.70045 z m -53.254292,12.40739 v 0 h -0.217364 c -0.652094,-0.43534 -2.173645,-2.39441 -2.391009,-6.74788 0,-1.74139 0.434729,-3.48278 1.304186,-5.00649 1.521552,1.30604 2.391009,3.04743 2.608374,5.22417 0.434729,3.91812 -0.434729,6.09486 -1.304187,6.5302 z m 21.953811,-0.43534 h -0.217365 c 0,0 -0.217364,0 -0.434729,-0.21768 -0.652093,-0.43534 -1.95628,-2.17673 -1.738915,-6.09486 0.217364,-2.39441 0.652093,-4.35347 1.738915,-6.09486 1.521552,1.74139 2.39101,3.70045 2.39101,5.87719 0,4.35347 -1.086823,6.09486 -1.738916,6.53021 z"
           id="path1"
           fill="#505050"
           style="fill:none;fill-opacity:1;stroke:#000000;stroke-width:3;stroke-dasharray:none;stroke-opacity:1" />
      </g>
      <path
         d="m 171.29694,220.9668 h -61.46577 c 0.10851,-0.64356 0.24021,-1.32261 0.39749,-2.0313 0.79546,-3.58434 2.06734,-7.16613 3.91114,-10.48917 5.20583,-9.3824 13.85008,-14.94633 27.08791,-14.94633 13.21058,0 21.55682,5.53173 26.31918,14.86925 1.68892,3.31146 2.79739,6.88408 3.43078,10.46057 0.1324,0.7476 0.23779,1.46223 0.31927,2.13698 z M 104.5,253.56959 h 71 v 11.94394 h -71 z m 3,-22.01353 h 66 V 243.5 h -66 z"
         id="Combined-Shape"
         stroke="#505050"
         stroke-width="5"
         style="fill:none;fill-opacity:1;stroke:#000000;stroke-opacity:1" />
    </g>
  </g>
</svg>
